M48
; DRILL file {KiCad 7.0.7} date Sun Feb 25 20:38:03 2024
; FORMAT={-:-/ absolute / inch / decimal}
; #@! TF.CreationDate,2024-02-25T20:38:03+01:00
; #@! TF.GenerationSoftware,Kicad,Pcbnew,7.0.7
; #@! TF.FileFunction,Plated,1,2,PTH
FMAT,2
INCH
; #@! TA.AperFunction,Plated,PTH,ViaDrill
T1C0.0157
; #@! TA.AperFunction,Plated,PTH,ComponentDrill
T2C0.0315
; #@! TA.AperFunction,Plated,PTH,ComponentDrill
T3C0.0354
; #@! TA.AperFunction,Plated,PTH,ComponentDrill
T4C0.0394
; #@! TA.AperFunction,Plated,PTH,ComponentDrill
T5C0.0402
; #@! TA.AperFunction,Plated,PTH,ComponentDrill
T6C0.0433
; #@! TA.AperFunction,Plated,PTH,ComponentDrill
T7C0.0472
; #@! TA.AperFunction,Plated,PTH,ComponentDrill
T8C0.0512
%
G90
G05
T1
X2.0936Y-4.3852
X2.2047Y-1.6142
X2.3849Y-4.67
X2.4355Y-4.5882
X2.4409Y-1.5748
X2.5984Y-1.5774
X2.6175Y-2.2459
X2.6268Y-2.691
X2.7089Y-3.6721
X2.9059Y-5.2463
T2
X1.9291Y-3.7764
X1.9291Y-4.1764
X2.0866Y-3.7764
X2.0866Y-4.1764
X2.2441Y-3.7764
X2.2441Y-4.1764
X2.4016Y-3.7764
X2.4016Y-4.1764
X2.5591Y-3.7764
X2.5591Y-4.1764
T3
X1.6732Y-5.5118
X1.7732Y-5.5118
X1.8898Y-5.5118
X1.9898Y-5.5118
X2.1063Y-5.5118
X2.2063Y-5.5118
T4
X2.1142Y-5.2756
X2.2142Y-5.2756
X2.2441Y-4.4882
X2.3142Y-5.2756
X2.3441Y-4.4882
X2.4142Y-5.2756
X2.4441Y-4.4882
X2.7559Y-4.8031
X2.8346Y-1.7717
X2.8346Y-3.189
X2.8559Y-4.8031
X2.9346Y-1.7717
X2.9346Y-3.189
X2.9559Y-4.8031
X3.0346Y-1.7717
X3.0346Y-3.189
T5
X1.4382Y-1.9067
X1.4382Y-2.0067
X1.4382Y-2.1067
X1.4382Y-2.2067
X1.4382Y-2.3067
X1.4382Y-2.4067
X1.4382Y-2.5067
X1.4382Y-2.6067
X1.4382Y-2.7067
X1.4382Y-2.8067
X1.4382Y-2.9067
X1.4382Y-3.0067
X1.4382Y-3.1067
X1.4382Y-3.2067
X1.4382Y-3.3067
X2.4382Y-1.9067
X2.4382Y-2.0067
X2.4382Y-2.1067
X2.4382Y-2.2067
X2.4382Y-2.3067
X2.4382Y-2.4067
X2.4382Y-2.5067
X2.4382Y-2.6067
X2.4382Y-2.7067
X2.4382Y-2.8067
X2.4382Y-2.9067
X2.4382Y-3.0067
X2.4382Y-3.1067
X2.4382Y-3.2067
X2.4382Y-3.3067
T6
X1.5354Y-3.937
X1.5354Y-4.037
T7
X1.9291Y-1.4961
X2.0291Y-1.4961
X2.1291Y-1.4961
X2.2291Y-1.4961
X2.3291Y-1.4961
X2.4268Y-5.6063
X2.4291Y-1.4961
X2.5268Y-5.6063
X2.5291Y-1.4961
X2.6268Y-5.6063
X2.6291Y-1.4961
X2.7268Y-5.6063
X2.7291Y-1.4961
X2.8291Y-1.4961
X2.9291Y-1.4961
X3.0291Y-1.4961
X3.1291Y-1.4961
X3.2291Y-1.4961
T8
X1.4465Y-4.4685
X1.4465Y-4.6654
X1.4465Y-5.002
X1.4465Y-5.1988
X1.9386Y-4.4685
X1.9386Y-4.6654
X1.9386Y-5.002
X1.9386Y-5.1988
T0
M30
