%TF.GenerationSoftware,KiCad,Pcbnew,7.0.7*%
%TF.CreationDate,2024-02-25T20:38:04+01:00*%
%TF.ProjectId,TFT_tactil_screen,5446545f-7461-4637-9469-6c5f73637265,rev?*%
%TF.SameCoordinates,Original*%
%TF.FileFunction,Drillmap*%
%TF.FilePolarity,Positive*%
%FSLAX45Y45*%
G04 Gerber Fmt 4.5, Leading zero omitted, Abs format (unit mm)*
G04 Created by KiCad (PCBNEW 7.0.7) date 2024-02-25 20:38:04*
%MOMM*%
%LPD*%
G01*
G04 APERTURE LIST*
%ADD10C,0.100000*%
%ADD11C,0.200000*%
%ADD12C,0.040000*%
%ADD13C,0.080000*%
%ADD14C,0.090000*%
%ADD15C,0.102000*%
%ADD16C,0.110000*%
%ADD17C,0.120000*%
%ADD18C,0.130000*%
G04 APERTURE END LIST*
D10*
X3950000Y-3900000D02*
G75*
G03*
X3950000Y-3900000I-150000J0D01*
G01*
X9450000Y-3900000D02*
G75*
G03*
X9450000Y-3900000I-150000J0D01*
G01*
X3950000Y-14100000D02*
G75*
G03*
X3950000Y-14100000I-150000J0D01*
G01*
X9450000Y-14100000D02*
G75*
G03*
X9450000Y-14100000I-150000J0D01*
G01*
X9640000Y-3630000D02*
X3460000Y-3630000D01*
X9640000Y-4150000D02*
X9640000Y-3630000D01*
X8100000Y-4150000D02*
X9640000Y-4150000D01*
X8100000Y-13800000D02*
X8100000Y-4150000D01*
X9640000Y-13800000D02*
X8100000Y-13800000D01*
X9640000Y-14410000D02*
X9640000Y-13800000D01*
X3460000Y-14410000D02*
X9640000Y-14410000D01*
X3460000Y-3630000D02*
X3460000Y-14410000D01*
D11*
D12*
X5297810Y-11118500D02*
X5337810Y-11158500D01*
X5337810Y-11118500D02*
X5297810Y-11158500D01*
X5580000Y-4080000D02*
X5620000Y-4120000D01*
X5620000Y-4080000D02*
X5580000Y-4120000D01*
X6037680Y-11841700D02*
X6077680Y-11881700D01*
X6077680Y-11841700D02*
X6037680Y-11881700D01*
X6166140Y-11634000D02*
X6206140Y-11674000D01*
X6206140Y-11634000D02*
X6166140Y-11674000D01*
X6180000Y-3980000D02*
X6220000Y-4020000D01*
X6220000Y-3980000D02*
X6180000Y-4020000D01*
X6580000Y-3986470D02*
X6620000Y-4026470D01*
X6620000Y-3986470D02*
X6580000Y-4026470D01*
X6628560Y-5684580D02*
X6668560Y-5724580D01*
X6668560Y-5684580D02*
X6628560Y-5724580D01*
X6652000Y-6815040D02*
X6692000Y-6855040D01*
X6692000Y-6815040D02*
X6652000Y-6855040D01*
X6860590Y-9307090D02*
X6900590Y-9347090D01*
X6900590Y-9307090D02*
X6860590Y-9347090D01*
X7361000Y-13305500D02*
X7401000Y-13345500D01*
X7401000Y-13305500D02*
X7361000Y-13345500D01*
D13*
X4940000Y-9592000D02*
G75*
G03*
X4940000Y-9592000I-40000J0D01*
G01*
X4940000Y-10608000D02*
G75*
G03*
X4940000Y-10608000I-40000J0D01*
G01*
X5340000Y-9592000D02*
G75*
G03*
X5340000Y-9592000I-40000J0D01*
G01*
X5340000Y-10608000D02*
G75*
G03*
X5340000Y-10608000I-40000J0D01*
G01*
X5740000Y-9592000D02*
G75*
G03*
X5740000Y-9592000I-40000J0D01*
G01*
X5740000Y-10608000D02*
G75*
G03*
X5740000Y-10608000I-40000J0D01*
G01*
X6140000Y-9592000D02*
G75*
G03*
X6140000Y-9592000I-40000J0D01*
G01*
X6140000Y-10608000D02*
G75*
G03*
X6140000Y-10608000I-40000J0D01*
G01*
X6540000Y-9592000D02*
G75*
G03*
X6540000Y-9592000I-40000J0D01*
G01*
X6540000Y-10608000D02*
G75*
G03*
X6540000Y-10608000I-40000J0D01*
G01*
D14*
X4250000Y-13955000D02*
X4250000Y-14045000D01*
X4205000Y-14000000D02*
X4295000Y-14000000D01*
X4504000Y-13955000D02*
X4504000Y-14045000D01*
X4459000Y-14000000D02*
X4549000Y-14000000D01*
X4800000Y-13955000D02*
X4800000Y-14045000D01*
X4755000Y-14000000D02*
X4845000Y-14000000D01*
X5054000Y-13955000D02*
X5054000Y-14045000D01*
X5009000Y-14000000D02*
X5099000Y-14000000D01*
X5350000Y-13955000D02*
X5350000Y-14045000D01*
X5305000Y-14000000D02*
X5395000Y-14000000D01*
X5604000Y-13955000D02*
X5604000Y-14045000D01*
X5559000Y-14000000D02*
X5649000Y-14000000D01*
D10*
X5405356Y-13435356D02*
X5405356Y-13364644D01*
X5334644Y-13364644D01*
X5334644Y-13435356D01*
X5405356Y-13435356D01*
X5659356Y-13435356D02*
X5659356Y-13364644D01*
X5588644Y-13364644D01*
X5588644Y-13435356D01*
X5659356Y-13435356D01*
X5735356Y-11435356D02*
X5735356Y-11364644D01*
X5664644Y-11364644D01*
X5664644Y-11435356D01*
X5735356Y-11435356D01*
X5913356Y-13435356D02*
X5913356Y-13364644D01*
X5842644Y-13364644D01*
X5842644Y-13435356D01*
X5913356Y-13435356D01*
X5989356Y-11435356D02*
X5989356Y-11364644D01*
X5918644Y-11364644D01*
X5918644Y-11435356D01*
X5989356Y-11435356D01*
X6167356Y-13435356D02*
X6167356Y-13364644D01*
X6096644Y-13364644D01*
X6096644Y-13435356D01*
X6167356Y-13435356D01*
X6243356Y-11435356D02*
X6243356Y-11364644D01*
X6172644Y-11364644D01*
X6172644Y-11435356D01*
X6243356Y-11435356D01*
X7035356Y-12235356D02*
X7035356Y-12164644D01*
X6964644Y-12164644D01*
X6964644Y-12235356D01*
X7035356Y-12235356D01*
X7235356Y-4535356D02*
X7235356Y-4464644D01*
X7164644Y-4464644D01*
X7164644Y-4535356D01*
X7235356Y-4535356D01*
X7235356Y-8135356D02*
X7235356Y-8064644D01*
X7164644Y-8064644D01*
X7164644Y-8135356D01*
X7235356Y-8135356D01*
X7289356Y-12235356D02*
X7289356Y-12164644D01*
X7218644Y-12164644D01*
X7218644Y-12235356D01*
X7289356Y-12235356D01*
X7489356Y-4535356D02*
X7489356Y-4464644D01*
X7418644Y-4464644D01*
X7418644Y-4535356D01*
X7489356Y-4535356D01*
X7489356Y-8135356D02*
X7489356Y-8064644D01*
X7418644Y-8064644D01*
X7418644Y-8135356D01*
X7489356Y-8135356D01*
X7543356Y-12235356D02*
X7543356Y-12164644D01*
X7472644Y-12164644D01*
X7472644Y-12235356D01*
X7543356Y-12235356D01*
X7743356Y-4535356D02*
X7743356Y-4464644D01*
X7672644Y-4464644D01*
X7672644Y-4535356D01*
X7743356Y-4535356D01*
X7743356Y-8135356D02*
X7743356Y-8064644D01*
X7672644Y-8064644D01*
X7672644Y-8135356D01*
X7743356Y-8135356D01*
D15*
X3653000Y-4894000D02*
X3704000Y-4843000D01*
X3653000Y-4792000D01*
X3602000Y-4843000D01*
X3653000Y-4894000D01*
X3653000Y-5148000D02*
X3704000Y-5097000D01*
X3653000Y-5046000D01*
X3602000Y-5097000D01*
X3653000Y-5148000D01*
X3653000Y-5402000D02*
X3704000Y-5351000D01*
X3653000Y-5300000D01*
X3602000Y-5351000D01*
X3653000Y-5402000D01*
X3653000Y-5656000D02*
X3704000Y-5605000D01*
X3653000Y-5554000D01*
X3602000Y-5605000D01*
X3653000Y-5656000D01*
X3653000Y-5910000D02*
X3704000Y-5859000D01*
X3653000Y-5808000D01*
X3602000Y-5859000D01*
X3653000Y-5910000D01*
X3653000Y-6164000D02*
X3704000Y-6113000D01*
X3653000Y-6062000D01*
X3602000Y-6113000D01*
X3653000Y-6164000D01*
X3653000Y-6418000D02*
X3704000Y-6367000D01*
X3653000Y-6316000D01*
X3602000Y-6367000D01*
X3653000Y-6418000D01*
X3653000Y-6672000D02*
X3704000Y-6621000D01*
X3653000Y-6570000D01*
X3602000Y-6621000D01*
X3653000Y-6672000D01*
X3653000Y-6926000D02*
X3704000Y-6875000D01*
X3653000Y-6824000D01*
X3602000Y-6875000D01*
X3653000Y-6926000D01*
X3653000Y-7180000D02*
X3704000Y-7129000D01*
X3653000Y-7078000D01*
X3602000Y-7129000D01*
X3653000Y-7180000D01*
X3653000Y-7434000D02*
X3704000Y-7383000D01*
X3653000Y-7332000D01*
X3602000Y-7383000D01*
X3653000Y-7434000D01*
X3653000Y-7688000D02*
X3704000Y-7637000D01*
X3653000Y-7586000D01*
X3602000Y-7637000D01*
X3653000Y-7688000D01*
X3653000Y-7942000D02*
X3704000Y-7891000D01*
X3653000Y-7840000D01*
X3602000Y-7891000D01*
X3653000Y-7942000D01*
X3653000Y-8196000D02*
X3704000Y-8145000D01*
X3653000Y-8094000D01*
X3602000Y-8145000D01*
X3653000Y-8196000D01*
X3653000Y-8450000D02*
X3704000Y-8399000D01*
X3653000Y-8348000D01*
X3602000Y-8399000D01*
X3653000Y-8450000D01*
X6193000Y-4894000D02*
X6244000Y-4843000D01*
X6193000Y-4792000D01*
X6142000Y-4843000D01*
X6193000Y-4894000D01*
X6193000Y-5148000D02*
X6244000Y-5097000D01*
X6193000Y-5046000D01*
X6142000Y-5097000D01*
X6193000Y-5148000D01*
X6193000Y-5402000D02*
X6244000Y-5351000D01*
X6193000Y-5300000D01*
X6142000Y-5351000D01*
X6193000Y-5402000D01*
X6193000Y-5656000D02*
X6244000Y-5605000D01*
X6193000Y-5554000D01*
X6142000Y-5605000D01*
X6193000Y-5656000D01*
X6193000Y-5910000D02*
X6244000Y-5859000D01*
X6193000Y-5808000D01*
X6142000Y-5859000D01*
X6193000Y-5910000D01*
X6193000Y-6164000D02*
X6244000Y-6113000D01*
X6193000Y-6062000D01*
X6142000Y-6113000D01*
X6193000Y-6164000D01*
X6193000Y-6418000D02*
X6244000Y-6367000D01*
X6193000Y-6316000D01*
X6142000Y-6367000D01*
X6193000Y-6418000D01*
X6193000Y-6672000D02*
X6244000Y-6621000D01*
X6193000Y-6570000D01*
X6142000Y-6621000D01*
X6193000Y-6672000D01*
X6193000Y-6926000D02*
X6244000Y-6875000D01*
X6193000Y-6824000D01*
X6142000Y-6875000D01*
X6193000Y-6926000D01*
X6193000Y-7180000D02*
X6244000Y-7129000D01*
X6193000Y-7078000D01*
X6142000Y-7129000D01*
X6193000Y-7180000D01*
X6193000Y-7434000D02*
X6244000Y-7383000D01*
X6193000Y-7332000D01*
X6142000Y-7383000D01*
X6193000Y-7434000D01*
X6193000Y-7688000D02*
X6244000Y-7637000D01*
X6193000Y-7586000D01*
X6142000Y-7637000D01*
X6193000Y-7688000D01*
X6193000Y-7942000D02*
X6244000Y-7891000D01*
X6193000Y-7840000D01*
X6142000Y-7891000D01*
X6193000Y-7942000D01*
X6193000Y-8196000D02*
X6244000Y-8145000D01*
X6193000Y-8094000D01*
X6142000Y-8145000D01*
X6193000Y-8196000D01*
X6193000Y-8450000D02*
X6244000Y-8399000D01*
X6193000Y-8348000D01*
X6142000Y-8399000D01*
X6193000Y-8450000D01*
D16*
X3845000Y-9945000D02*
X3955000Y-10055000D01*
X3955000Y-9945000D02*
X3845000Y-10055000D01*
X3955000Y-10000000D02*
G75*
G03*
X3955000Y-10000000I-55000J0D01*
G01*
X3845000Y-10199000D02*
X3955000Y-10309000D01*
X3955000Y-10199000D02*
X3845000Y-10309000D01*
X3955000Y-10254000D02*
G75*
G03*
X3955000Y-10254000I-55000J0D01*
G01*
D17*
X4840000Y-3740000D02*
X4960000Y-3860000D01*
X4960000Y-3740000D02*
X4840000Y-3860000D01*
X4900000Y-3740000D02*
X4900000Y-3860000D01*
X4840000Y-3800000D02*
X4960000Y-3800000D01*
X5094000Y-3740000D02*
X5214000Y-3860000D01*
X5214000Y-3740000D02*
X5094000Y-3860000D01*
X5154000Y-3740000D02*
X5154000Y-3860000D01*
X5094000Y-3800000D02*
X5214000Y-3800000D01*
X5348000Y-3740000D02*
X5468000Y-3860000D01*
X5468000Y-3740000D02*
X5348000Y-3860000D01*
X5408000Y-3740000D02*
X5408000Y-3860000D01*
X5348000Y-3800000D02*
X5468000Y-3800000D01*
X5602000Y-3740000D02*
X5722000Y-3860000D01*
X5722000Y-3740000D02*
X5602000Y-3860000D01*
X5662000Y-3740000D02*
X5662000Y-3860000D01*
X5602000Y-3800000D02*
X5722000Y-3800000D01*
X5856000Y-3740000D02*
X5976000Y-3860000D01*
X5976000Y-3740000D02*
X5856000Y-3860000D01*
X5916000Y-3740000D02*
X5916000Y-3860000D01*
X5856000Y-3800000D02*
X5976000Y-3800000D01*
X6104000Y-14180000D02*
X6224000Y-14300000D01*
X6224000Y-14180000D02*
X6104000Y-14300000D01*
X6164000Y-14180000D02*
X6164000Y-14300000D01*
X6104000Y-14240000D02*
X6224000Y-14240000D01*
X6110000Y-3740000D02*
X6230000Y-3860000D01*
X6230000Y-3740000D02*
X6110000Y-3860000D01*
X6170000Y-3740000D02*
X6170000Y-3860000D01*
X6110000Y-3800000D02*
X6230000Y-3800000D01*
X6358000Y-14180000D02*
X6478000Y-14300000D01*
X6478000Y-14180000D02*
X6358000Y-14300000D01*
X6418000Y-14180000D02*
X6418000Y-14300000D01*
X6358000Y-14240000D02*
X6478000Y-14240000D01*
X6364000Y-3740000D02*
X6484000Y-3860000D01*
X6484000Y-3740000D02*
X6364000Y-3860000D01*
X6424000Y-3740000D02*
X6424000Y-3860000D01*
X6364000Y-3800000D02*
X6484000Y-3800000D01*
X6612000Y-14180000D02*
X6732000Y-14300000D01*
X6732000Y-14180000D02*
X6612000Y-14300000D01*
X6672000Y-14180000D02*
X6672000Y-14300000D01*
X6612000Y-14240000D02*
X6732000Y-14240000D01*
X6618000Y-3740000D02*
X6738000Y-3860000D01*
X6738000Y-3740000D02*
X6618000Y-3860000D01*
X6678000Y-3740000D02*
X6678000Y-3860000D01*
X6618000Y-3800000D02*
X6738000Y-3800000D01*
X6866000Y-14180000D02*
X6986000Y-14300000D01*
X6986000Y-14180000D02*
X6866000Y-14300000D01*
X6926000Y-14180000D02*
X6926000Y-14300000D01*
X6866000Y-14240000D02*
X6986000Y-14240000D01*
X6872000Y-3740000D02*
X6992000Y-3860000D01*
X6992000Y-3740000D02*
X6872000Y-3860000D01*
X6932000Y-3740000D02*
X6932000Y-3860000D01*
X6872000Y-3800000D02*
X6992000Y-3800000D01*
X7126000Y-3740000D02*
X7246000Y-3860000D01*
X7246000Y-3740000D02*
X7126000Y-3860000D01*
X7186000Y-3740000D02*
X7186000Y-3860000D01*
X7126000Y-3800000D02*
X7246000Y-3800000D01*
X7380000Y-3740000D02*
X7500000Y-3860000D01*
X7500000Y-3740000D02*
X7380000Y-3860000D01*
X7440000Y-3740000D02*
X7440000Y-3860000D01*
X7380000Y-3800000D02*
X7500000Y-3800000D01*
X7634000Y-3740000D02*
X7754000Y-3860000D01*
X7754000Y-3740000D02*
X7634000Y-3860000D01*
X7694000Y-3740000D02*
X7694000Y-3860000D01*
X7634000Y-3800000D02*
X7754000Y-3800000D01*
X7888000Y-3740000D02*
X8008000Y-3860000D01*
X8008000Y-3740000D02*
X7888000Y-3860000D01*
X7948000Y-3740000D02*
X7948000Y-3860000D01*
X7888000Y-3800000D02*
X8008000Y-3800000D01*
X8142000Y-3740000D02*
X8262000Y-3860000D01*
X8262000Y-3740000D02*
X8142000Y-3860000D01*
X8202000Y-3740000D02*
X8202000Y-3860000D01*
X8142000Y-3800000D02*
X8262000Y-3800000D01*
D18*
X3609000Y-11285000D02*
X3739000Y-11415000D01*
X3739000Y-11285000D02*
X3609000Y-11415000D01*
X3719962Y-11395962D02*
X3719962Y-11304038D01*
X3628038Y-11304038D01*
X3628038Y-11395962D01*
X3719962Y-11395962D01*
X3609000Y-11785000D02*
X3739000Y-11915000D01*
X3739000Y-11785000D02*
X3609000Y-11915000D01*
X3719962Y-11895962D02*
X3719962Y-11804038D01*
X3628038Y-11804038D01*
X3628038Y-11895962D01*
X3719962Y-11895962D01*
X3609000Y-12640000D02*
X3739000Y-12770000D01*
X3739000Y-12640000D02*
X3609000Y-12770000D01*
X3719962Y-12750962D02*
X3719962Y-12659038D01*
X3628038Y-12659038D01*
X3628038Y-12750962D01*
X3719962Y-12750962D01*
X3609000Y-13140000D02*
X3739000Y-13270000D01*
X3739000Y-13140000D02*
X3609000Y-13270000D01*
X3719962Y-13250962D02*
X3719962Y-13159038D01*
X3628038Y-13159038D01*
X3628038Y-13250962D01*
X3719962Y-13250962D01*
X4859000Y-11285000D02*
X4989000Y-11415000D01*
X4989000Y-11285000D02*
X4859000Y-11415000D01*
X4969962Y-11395962D02*
X4969962Y-11304038D01*
X4878038Y-11304038D01*
X4878038Y-11395962D01*
X4969962Y-11395962D01*
X4859000Y-11785000D02*
X4989000Y-11915000D01*
X4989000Y-11785000D02*
X4859000Y-11915000D01*
X4969962Y-11895962D02*
X4969962Y-11804038D01*
X4878038Y-11804038D01*
X4878038Y-11895962D01*
X4969962Y-11895962D01*
X4859000Y-12640000D02*
X4989000Y-12770000D01*
X4989000Y-12640000D02*
X4859000Y-12770000D01*
X4969962Y-12750962D02*
X4969962Y-12659038D01*
X4878038Y-12659038D01*
X4878038Y-12750962D01*
X4969962Y-12750962D01*
X4859000Y-13140000D02*
X4989000Y-13270000D01*
X4989000Y-13140000D02*
X4859000Y-13270000D01*
X4969962Y-13250962D02*
X4969962Y-13159038D01*
X4878038Y-13159038D01*
X4878038Y-13250962D01*
X4969962Y-13250962D01*
D11*
X3715777Y-14726484D02*
X3715777Y-14526484D01*
X3715777Y-14526484D02*
X3763396Y-14526484D01*
X3763396Y-14526484D02*
X3791967Y-14536008D01*
X3791967Y-14536008D02*
X3811015Y-14555055D01*
X3811015Y-14555055D02*
X3820539Y-14574103D01*
X3820539Y-14574103D02*
X3830062Y-14612198D01*
X3830062Y-14612198D02*
X3830062Y-14640769D01*
X3830062Y-14640769D02*
X3820539Y-14678865D01*
X3820539Y-14678865D02*
X3811015Y-14697912D01*
X3811015Y-14697912D02*
X3791967Y-14716960D01*
X3791967Y-14716960D02*
X3763396Y-14726484D01*
X3763396Y-14726484D02*
X3715777Y-14726484D01*
X3915777Y-14726484D02*
X3915777Y-14593150D01*
X3915777Y-14631246D02*
X3925301Y-14612198D01*
X3925301Y-14612198D02*
X3934824Y-14602674D01*
X3934824Y-14602674D02*
X3953872Y-14593150D01*
X3953872Y-14593150D02*
X3972920Y-14593150D01*
X4039586Y-14726484D02*
X4039586Y-14593150D01*
X4039586Y-14526484D02*
X4030062Y-14536008D01*
X4030062Y-14536008D02*
X4039586Y-14545531D01*
X4039586Y-14545531D02*
X4049110Y-14536008D01*
X4049110Y-14536008D02*
X4039586Y-14526484D01*
X4039586Y-14526484D02*
X4039586Y-14545531D01*
X4163396Y-14726484D02*
X4144348Y-14716960D01*
X4144348Y-14716960D02*
X4134824Y-14697912D01*
X4134824Y-14697912D02*
X4134824Y-14526484D01*
X4268158Y-14726484D02*
X4249110Y-14716960D01*
X4249110Y-14716960D02*
X4239586Y-14697912D01*
X4239586Y-14697912D02*
X4239586Y-14526484D01*
X4496729Y-14726484D02*
X4496729Y-14526484D01*
X4496729Y-14526484D02*
X4563396Y-14669341D01*
X4563396Y-14669341D02*
X4630063Y-14526484D01*
X4630063Y-14526484D02*
X4630063Y-14726484D01*
X4811015Y-14726484D02*
X4811015Y-14621722D01*
X4811015Y-14621722D02*
X4801491Y-14602674D01*
X4801491Y-14602674D02*
X4782444Y-14593150D01*
X4782444Y-14593150D02*
X4744348Y-14593150D01*
X4744348Y-14593150D02*
X4725301Y-14602674D01*
X4811015Y-14716960D02*
X4791967Y-14726484D01*
X4791967Y-14726484D02*
X4744348Y-14726484D01*
X4744348Y-14726484D02*
X4725301Y-14716960D01*
X4725301Y-14716960D02*
X4715777Y-14697912D01*
X4715777Y-14697912D02*
X4715777Y-14678865D01*
X4715777Y-14678865D02*
X4725301Y-14659817D01*
X4725301Y-14659817D02*
X4744348Y-14650293D01*
X4744348Y-14650293D02*
X4791967Y-14650293D01*
X4791967Y-14650293D02*
X4811015Y-14640769D01*
X4906253Y-14593150D02*
X4906253Y-14793150D01*
X4906253Y-14602674D02*
X4925301Y-14593150D01*
X4925301Y-14593150D02*
X4963396Y-14593150D01*
X4963396Y-14593150D02*
X4982444Y-14602674D01*
X4982444Y-14602674D02*
X4991967Y-14612198D01*
X4991967Y-14612198D02*
X5001491Y-14631246D01*
X5001491Y-14631246D02*
X5001491Y-14688388D01*
X5001491Y-14688388D02*
X4991967Y-14707436D01*
X4991967Y-14707436D02*
X4982444Y-14716960D01*
X4982444Y-14716960D02*
X4963396Y-14726484D01*
X4963396Y-14726484D02*
X4925301Y-14726484D01*
X4925301Y-14726484D02*
X4906253Y-14716960D01*
X5087205Y-14707436D02*
X5096729Y-14716960D01*
X5096729Y-14716960D02*
X5087205Y-14726484D01*
X5087205Y-14726484D02*
X5077682Y-14716960D01*
X5077682Y-14716960D02*
X5087205Y-14707436D01*
X5087205Y-14707436D02*
X5087205Y-14726484D01*
X5087205Y-14602674D02*
X5096729Y-14612198D01*
X5096729Y-14612198D02*
X5087205Y-14621722D01*
X5087205Y-14621722D02*
X5077682Y-14612198D01*
X5077682Y-14612198D02*
X5087205Y-14602674D01*
X5087205Y-14602674D02*
X5087205Y-14621722D01*
D12*
X3415000Y-15035000D02*
X3455000Y-15075000D01*
X3455000Y-15035000D02*
X3415000Y-15075000D01*
D11*
X3753872Y-14946484D02*
X3772920Y-14946484D01*
X3772920Y-14946484D02*
X3791967Y-14956008D01*
X3791967Y-14956008D02*
X3801491Y-14965531D01*
X3801491Y-14965531D02*
X3811015Y-14984579D01*
X3811015Y-14984579D02*
X3820539Y-15022674D01*
X3820539Y-15022674D02*
X3820539Y-15070293D01*
X3820539Y-15070293D02*
X3811015Y-15108388D01*
X3811015Y-15108388D02*
X3801491Y-15127436D01*
X3801491Y-15127436D02*
X3791967Y-15136960D01*
X3791967Y-15136960D02*
X3772920Y-15146484D01*
X3772920Y-15146484D02*
X3753872Y-15146484D01*
X3753872Y-15146484D02*
X3734824Y-15136960D01*
X3734824Y-15136960D02*
X3725301Y-15127436D01*
X3725301Y-15127436D02*
X3715777Y-15108388D01*
X3715777Y-15108388D02*
X3706253Y-15070293D01*
X3706253Y-15070293D02*
X3706253Y-15022674D01*
X3706253Y-15022674D02*
X3715777Y-14984579D01*
X3715777Y-14984579D02*
X3725301Y-14965531D01*
X3725301Y-14965531D02*
X3734824Y-14956008D01*
X3734824Y-14956008D02*
X3753872Y-14946484D01*
X3906253Y-15127436D02*
X3915777Y-15136960D01*
X3915777Y-15136960D02*
X3906253Y-15146484D01*
X3906253Y-15146484D02*
X3896729Y-15136960D01*
X3896729Y-15136960D02*
X3906253Y-15127436D01*
X3906253Y-15127436D02*
X3906253Y-15146484D01*
X4087205Y-15013150D02*
X4087205Y-15146484D01*
X4039586Y-14936960D02*
X3991967Y-15079817D01*
X3991967Y-15079817D02*
X4115777Y-15079817D01*
X4230063Y-14946484D02*
X4249110Y-14946484D01*
X4249110Y-14946484D02*
X4268158Y-14956008D01*
X4268158Y-14956008D02*
X4277682Y-14965531D01*
X4277682Y-14965531D02*
X4287205Y-14984579D01*
X4287205Y-14984579D02*
X4296729Y-15022674D01*
X4296729Y-15022674D02*
X4296729Y-15070293D01*
X4296729Y-15070293D02*
X4287205Y-15108388D01*
X4287205Y-15108388D02*
X4277682Y-15127436D01*
X4277682Y-15127436D02*
X4268158Y-15136960D01*
X4268158Y-15136960D02*
X4249110Y-15146484D01*
X4249110Y-15146484D02*
X4230063Y-15146484D01*
X4230063Y-15146484D02*
X4211015Y-15136960D01*
X4211015Y-15136960D02*
X4201491Y-15127436D01*
X4201491Y-15127436D02*
X4191967Y-15108388D01*
X4191967Y-15108388D02*
X4182443Y-15070293D01*
X4182443Y-15070293D02*
X4182443Y-15022674D01*
X4182443Y-15022674D02*
X4191967Y-14984579D01*
X4191967Y-14984579D02*
X4201491Y-14965531D01*
X4201491Y-14965531D02*
X4211015Y-14956008D01*
X4211015Y-14956008D02*
X4230063Y-14946484D01*
X4420539Y-14946484D02*
X4439586Y-14946484D01*
X4439586Y-14946484D02*
X4458634Y-14956008D01*
X4458634Y-14956008D02*
X4468158Y-14965531D01*
X4468158Y-14965531D02*
X4477682Y-14984579D01*
X4477682Y-14984579D02*
X4487205Y-15022674D01*
X4487205Y-15022674D02*
X4487205Y-15070293D01*
X4487205Y-15070293D02*
X4477682Y-15108388D01*
X4477682Y-15108388D02*
X4468158Y-15127436D01*
X4468158Y-15127436D02*
X4458634Y-15136960D01*
X4458634Y-15136960D02*
X4439586Y-15146484D01*
X4439586Y-15146484D02*
X4420539Y-15146484D01*
X4420539Y-15146484D02*
X4401491Y-15136960D01*
X4401491Y-15136960D02*
X4391967Y-15127436D01*
X4391967Y-15127436D02*
X4382444Y-15108388D01*
X4382444Y-15108388D02*
X4372920Y-15070293D01*
X4372920Y-15070293D02*
X4372920Y-15022674D01*
X4372920Y-15022674D02*
X4382444Y-14984579D01*
X4382444Y-14984579D02*
X4391967Y-14965531D01*
X4391967Y-14965531D02*
X4401491Y-14956008D01*
X4401491Y-14956008D02*
X4420539Y-14946484D01*
X4572920Y-15146484D02*
X4572920Y-15013150D01*
X4572920Y-15032198D02*
X4582444Y-15022674D01*
X4582444Y-15022674D02*
X4601491Y-15013150D01*
X4601491Y-15013150D02*
X4630063Y-15013150D01*
X4630063Y-15013150D02*
X4649110Y-15022674D01*
X4649110Y-15022674D02*
X4658634Y-15041722D01*
X4658634Y-15041722D02*
X4658634Y-15146484D01*
X4658634Y-15041722D02*
X4668158Y-15022674D01*
X4668158Y-15022674D02*
X4687205Y-15013150D01*
X4687205Y-15013150D02*
X4715777Y-15013150D01*
X4715777Y-15013150D02*
X4734825Y-15022674D01*
X4734825Y-15022674D02*
X4744348Y-15041722D01*
X4744348Y-15041722D02*
X4744348Y-15146484D01*
X4839586Y-15146484D02*
X4839586Y-15013150D01*
X4839586Y-15032198D02*
X4849110Y-15022674D01*
X4849110Y-15022674D02*
X4868158Y-15013150D01*
X4868158Y-15013150D02*
X4896729Y-15013150D01*
X4896729Y-15013150D02*
X4915777Y-15022674D01*
X4915777Y-15022674D02*
X4925301Y-15041722D01*
X4925301Y-15041722D02*
X4925301Y-15146484D01*
X4925301Y-15041722D02*
X4934825Y-15022674D01*
X4934825Y-15022674D02*
X4953872Y-15013150D01*
X4953872Y-15013150D02*
X4982444Y-15013150D01*
X4982444Y-15013150D02*
X5001491Y-15022674D01*
X5001491Y-15022674D02*
X5011015Y-15041722D01*
X5011015Y-15041722D02*
X5011015Y-15146484D01*
X5401491Y-14936960D02*
X5230063Y-15194103D01*
X5658634Y-14946484D02*
X5677682Y-14946484D01*
X5677682Y-14946484D02*
X5696729Y-14956008D01*
X5696729Y-14956008D02*
X5706253Y-14965531D01*
X5706253Y-14965531D02*
X5715777Y-14984579D01*
X5715777Y-14984579D02*
X5725301Y-15022674D01*
X5725301Y-15022674D02*
X5725301Y-15070293D01*
X5725301Y-15070293D02*
X5715777Y-15108388D01*
X5715777Y-15108388D02*
X5706253Y-15127436D01*
X5706253Y-15127436D02*
X5696729Y-15136960D01*
X5696729Y-15136960D02*
X5677682Y-15146484D01*
X5677682Y-15146484D02*
X5658634Y-15146484D01*
X5658634Y-15146484D02*
X5639586Y-15136960D01*
X5639586Y-15136960D02*
X5630063Y-15127436D01*
X5630063Y-15127436D02*
X5620539Y-15108388D01*
X5620539Y-15108388D02*
X5611015Y-15070293D01*
X5611015Y-15070293D02*
X5611015Y-15022674D01*
X5611015Y-15022674D02*
X5620539Y-14984579D01*
X5620539Y-14984579D02*
X5630063Y-14965531D01*
X5630063Y-14965531D02*
X5639586Y-14956008D01*
X5639586Y-14956008D02*
X5658634Y-14946484D01*
X5811015Y-15127436D02*
X5820539Y-15136960D01*
X5820539Y-15136960D02*
X5811015Y-15146484D01*
X5811015Y-15146484D02*
X5801491Y-15136960D01*
X5801491Y-15136960D02*
X5811015Y-15127436D01*
X5811015Y-15127436D02*
X5811015Y-15146484D01*
X5944348Y-14946484D02*
X5963396Y-14946484D01*
X5963396Y-14946484D02*
X5982444Y-14956008D01*
X5982444Y-14956008D02*
X5991967Y-14965531D01*
X5991967Y-14965531D02*
X6001491Y-14984579D01*
X6001491Y-14984579D02*
X6011015Y-15022674D01*
X6011015Y-15022674D02*
X6011015Y-15070293D01*
X6011015Y-15070293D02*
X6001491Y-15108388D01*
X6001491Y-15108388D02*
X5991967Y-15127436D01*
X5991967Y-15127436D02*
X5982444Y-15136960D01*
X5982444Y-15136960D02*
X5963396Y-15146484D01*
X5963396Y-15146484D02*
X5944348Y-15146484D01*
X5944348Y-15146484D02*
X5925301Y-15136960D01*
X5925301Y-15136960D02*
X5915777Y-15127436D01*
X5915777Y-15127436D02*
X5906253Y-15108388D01*
X5906253Y-15108388D02*
X5896729Y-15070293D01*
X5896729Y-15070293D02*
X5896729Y-15022674D01*
X5896729Y-15022674D02*
X5906253Y-14984579D01*
X5906253Y-14984579D02*
X5915777Y-14965531D01*
X5915777Y-14965531D02*
X5925301Y-14956008D01*
X5925301Y-14956008D02*
X5944348Y-14946484D01*
X6201491Y-15146484D02*
X6087206Y-15146484D01*
X6144348Y-15146484D02*
X6144348Y-14946484D01*
X6144348Y-14946484D02*
X6125301Y-14975055D01*
X6125301Y-14975055D02*
X6106253Y-14994103D01*
X6106253Y-14994103D02*
X6087206Y-15003627D01*
X6382444Y-14946484D02*
X6287206Y-14946484D01*
X6287206Y-14946484D02*
X6277682Y-15041722D01*
X6277682Y-15041722D02*
X6287206Y-15032198D01*
X6287206Y-15032198D02*
X6306253Y-15022674D01*
X6306253Y-15022674D02*
X6353872Y-15022674D01*
X6353872Y-15022674D02*
X6372920Y-15032198D01*
X6372920Y-15032198D02*
X6382444Y-15041722D01*
X6382444Y-15041722D02*
X6391967Y-15060769D01*
X6391967Y-15060769D02*
X6391967Y-15108388D01*
X6391967Y-15108388D02*
X6382444Y-15127436D01*
X6382444Y-15127436D02*
X6372920Y-15136960D01*
X6372920Y-15136960D02*
X6353872Y-15146484D01*
X6353872Y-15146484D02*
X6306253Y-15146484D01*
X6306253Y-15146484D02*
X6287206Y-15136960D01*
X6287206Y-15136960D02*
X6277682Y-15127436D01*
X6458634Y-14946484D02*
X6591967Y-14946484D01*
X6591967Y-14946484D02*
X6506253Y-15146484D01*
X6658634Y-14946484D02*
X6658634Y-14984579D01*
X6734825Y-14946484D02*
X6734825Y-14984579D01*
X7030063Y-15222674D02*
X7020539Y-15213150D01*
X7020539Y-15213150D02*
X7001491Y-15184579D01*
X7001491Y-15184579D02*
X6991968Y-15165531D01*
X6991968Y-15165531D02*
X6982444Y-15136960D01*
X6982444Y-15136960D02*
X6972920Y-15089341D01*
X6972920Y-15089341D02*
X6972920Y-15051246D01*
X6972920Y-15051246D02*
X6982444Y-15003627D01*
X6982444Y-15003627D02*
X6991968Y-14975055D01*
X6991968Y-14975055D02*
X7001491Y-14956008D01*
X7001491Y-14956008D02*
X7020539Y-14927436D01*
X7020539Y-14927436D02*
X7030063Y-14917912D01*
X7211015Y-15146484D02*
X7096729Y-15146484D01*
X7153872Y-15146484D02*
X7153872Y-14946484D01*
X7153872Y-14946484D02*
X7134825Y-14975055D01*
X7134825Y-14975055D02*
X7115777Y-14994103D01*
X7115777Y-14994103D02*
X7096729Y-15003627D01*
X7334825Y-14946484D02*
X7353872Y-14946484D01*
X7353872Y-14946484D02*
X7372920Y-14956008D01*
X7372920Y-14956008D02*
X7382444Y-14965531D01*
X7382444Y-14965531D02*
X7391968Y-14984579D01*
X7391968Y-14984579D02*
X7401491Y-15022674D01*
X7401491Y-15022674D02*
X7401491Y-15070293D01*
X7401491Y-15070293D02*
X7391968Y-15108388D01*
X7391968Y-15108388D02*
X7382444Y-15127436D01*
X7382444Y-15127436D02*
X7372920Y-15136960D01*
X7372920Y-15136960D02*
X7353872Y-15146484D01*
X7353872Y-15146484D02*
X7334825Y-15146484D01*
X7334825Y-15146484D02*
X7315777Y-15136960D01*
X7315777Y-15136960D02*
X7306253Y-15127436D01*
X7306253Y-15127436D02*
X7296729Y-15108388D01*
X7296729Y-15108388D02*
X7287206Y-15070293D01*
X7287206Y-15070293D02*
X7287206Y-15022674D01*
X7287206Y-15022674D02*
X7296729Y-14984579D01*
X7296729Y-14984579D02*
X7306253Y-14965531D01*
X7306253Y-14965531D02*
X7315777Y-14956008D01*
X7315777Y-14956008D02*
X7334825Y-14946484D01*
X7639587Y-15146484D02*
X7639587Y-14946484D01*
X7725301Y-15146484D02*
X7725301Y-15041722D01*
X7725301Y-15041722D02*
X7715777Y-15022674D01*
X7715777Y-15022674D02*
X7696730Y-15013150D01*
X7696730Y-15013150D02*
X7668158Y-15013150D01*
X7668158Y-15013150D02*
X7649110Y-15022674D01*
X7649110Y-15022674D02*
X7639587Y-15032198D01*
X7849110Y-15146484D02*
X7830063Y-15136960D01*
X7830063Y-15136960D02*
X7820539Y-15127436D01*
X7820539Y-15127436D02*
X7811015Y-15108388D01*
X7811015Y-15108388D02*
X7811015Y-15051246D01*
X7811015Y-15051246D02*
X7820539Y-15032198D01*
X7820539Y-15032198D02*
X7830063Y-15022674D01*
X7830063Y-15022674D02*
X7849110Y-15013150D01*
X7849110Y-15013150D02*
X7877682Y-15013150D01*
X7877682Y-15013150D02*
X7896730Y-15022674D01*
X7896730Y-15022674D02*
X7906253Y-15032198D01*
X7906253Y-15032198D02*
X7915777Y-15051246D01*
X7915777Y-15051246D02*
X7915777Y-15108388D01*
X7915777Y-15108388D02*
X7906253Y-15127436D01*
X7906253Y-15127436D02*
X7896730Y-15136960D01*
X7896730Y-15136960D02*
X7877682Y-15146484D01*
X7877682Y-15146484D02*
X7849110Y-15146484D01*
X8030063Y-15146484D02*
X8011015Y-15136960D01*
X8011015Y-15136960D02*
X8001491Y-15117912D01*
X8001491Y-15117912D02*
X8001491Y-14946484D01*
X8182444Y-15136960D02*
X8163396Y-15146484D01*
X8163396Y-15146484D02*
X8125301Y-15146484D01*
X8125301Y-15146484D02*
X8106253Y-15136960D01*
X8106253Y-15136960D02*
X8096730Y-15117912D01*
X8096730Y-15117912D02*
X8096730Y-15041722D01*
X8096730Y-15041722D02*
X8106253Y-15022674D01*
X8106253Y-15022674D02*
X8125301Y-15013150D01*
X8125301Y-15013150D02*
X8163396Y-15013150D01*
X8163396Y-15013150D02*
X8182444Y-15022674D01*
X8182444Y-15022674D02*
X8191968Y-15041722D01*
X8191968Y-15041722D02*
X8191968Y-15060769D01*
X8191968Y-15060769D02*
X8096730Y-15079817D01*
X8268158Y-15136960D02*
X8287206Y-15146484D01*
X8287206Y-15146484D02*
X8325301Y-15146484D01*
X8325301Y-15146484D02*
X8344349Y-15136960D01*
X8344349Y-15136960D02*
X8353872Y-15117912D01*
X8353872Y-15117912D02*
X8353872Y-15108388D01*
X8353872Y-15108388D02*
X8344349Y-15089341D01*
X8344349Y-15089341D02*
X8325301Y-15079817D01*
X8325301Y-15079817D02*
X8296730Y-15079817D01*
X8296730Y-15079817D02*
X8277682Y-15070293D01*
X8277682Y-15070293D02*
X8268158Y-15051246D01*
X8268158Y-15051246D02*
X8268158Y-15041722D01*
X8268158Y-15041722D02*
X8277682Y-15022674D01*
X8277682Y-15022674D02*
X8296730Y-15013150D01*
X8296730Y-15013150D02*
X8325301Y-15013150D01*
X8325301Y-15013150D02*
X8344349Y-15022674D01*
X8420539Y-15222674D02*
X8430063Y-15213150D01*
X8430063Y-15213150D02*
X8449111Y-15184579D01*
X8449111Y-15184579D02*
X8458634Y-15165531D01*
X8458634Y-15165531D02*
X8468158Y-15136960D01*
X8468158Y-15136960D02*
X8477682Y-15089341D01*
X8477682Y-15089341D02*
X8477682Y-15051246D01*
X8477682Y-15051246D02*
X8468158Y-15003627D01*
X8468158Y-15003627D02*
X8458634Y-14975055D01*
X8458634Y-14975055D02*
X8449111Y-14956008D01*
X8449111Y-14956008D02*
X8430063Y-14927436D01*
X8430063Y-14927436D02*
X8420539Y-14917912D01*
D13*
X3455000Y-15319000D02*
G75*
G03*
X3455000Y-15319000I-40000J0D01*
G01*
D11*
X3753872Y-15210484D02*
X3772920Y-15210484D01*
X3772920Y-15210484D02*
X3791967Y-15220008D01*
X3791967Y-15220008D02*
X3801491Y-15229531D01*
X3801491Y-15229531D02*
X3811015Y-15248579D01*
X3811015Y-15248579D02*
X3820539Y-15286674D01*
X3820539Y-15286674D02*
X3820539Y-15334293D01*
X3820539Y-15334293D02*
X3811015Y-15372388D01*
X3811015Y-15372388D02*
X3801491Y-15391436D01*
X3801491Y-15391436D02*
X3791967Y-15400960D01*
X3791967Y-15400960D02*
X3772920Y-15410484D01*
X3772920Y-15410484D02*
X3753872Y-15410484D01*
X3753872Y-15410484D02*
X3734824Y-15400960D01*
X3734824Y-15400960D02*
X3725301Y-15391436D01*
X3725301Y-15391436D02*
X3715777Y-15372388D01*
X3715777Y-15372388D02*
X3706253Y-15334293D01*
X3706253Y-15334293D02*
X3706253Y-15286674D01*
X3706253Y-15286674D02*
X3715777Y-15248579D01*
X3715777Y-15248579D02*
X3725301Y-15229531D01*
X3725301Y-15229531D02*
X3734824Y-15220008D01*
X3734824Y-15220008D02*
X3753872Y-15210484D01*
X3906253Y-15391436D02*
X3915777Y-15400960D01*
X3915777Y-15400960D02*
X3906253Y-15410484D01*
X3906253Y-15410484D02*
X3896729Y-15400960D01*
X3896729Y-15400960D02*
X3906253Y-15391436D01*
X3906253Y-15391436D02*
X3906253Y-15410484D01*
X4030062Y-15296198D02*
X4011015Y-15286674D01*
X4011015Y-15286674D02*
X4001491Y-15277150D01*
X4001491Y-15277150D02*
X3991967Y-15258103D01*
X3991967Y-15258103D02*
X3991967Y-15248579D01*
X3991967Y-15248579D02*
X4001491Y-15229531D01*
X4001491Y-15229531D02*
X4011015Y-15220008D01*
X4011015Y-15220008D02*
X4030062Y-15210484D01*
X4030062Y-15210484D02*
X4068158Y-15210484D01*
X4068158Y-15210484D02*
X4087205Y-15220008D01*
X4087205Y-15220008D02*
X4096729Y-15229531D01*
X4096729Y-15229531D02*
X4106253Y-15248579D01*
X4106253Y-15248579D02*
X4106253Y-15258103D01*
X4106253Y-15258103D02*
X4096729Y-15277150D01*
X4096729Y-15277150D02*
X4087205Y-15286674D01*
X4087205Y-15286674D02*
X4068158Y-15296198D01*
X4068158Y-15296198D02*
X4030062Y-15296198D01*
X4030062Y-15296198D02*
X4011015Y-15305722D01*
X4011015Y-15305722D02*
X4001491Y-15315246D01*
X4001491Y-15315246D02*
X3991967Y-15334293D01*
X3991967Y-15334293D02*
X3991967Y-15372388D01*
X3991967Y-15372388D02*
X4001491Y-15391436D01*
X4001491Y-15391436D02*
X4011015Y-15400960D01*
X4011015Y-15400960D02*
X4030062Y-15410484D01*
X4030062Y-15410484D02*
X4068158Y-15410484D01*
X4068158Y-15410484D02*
X4087205Y-15400960D01*
X4087205Y-15400960D02*
X4096729Y-15391436D01*
X4096729Y-15391436D02*
X4106253Y-15372388D01*
X4106253Y-15372388D02*
X4106253Y-15334293D01*
X4106253Y-15334293D02*
X4096729Y-15315246D01*
X4096729Y-15315246D02*
X4087205Y-15305722D01*
X4087205Y-15305722D02*
X4068158Y-15296198D01*
X4230063Y-15210484D02*
X4249110Y-15210484D01*
X4249110Y-15210484D02*
X4268158Y-15220008D01*
X4268158Y-15220008D02*
X4277682Y-15229531D01*
X4277682Y-15229531D02*
X4287205Y-15248579D01*
X4287205Y-15248579D02*
X4296729Y-15286674D01*
X4296729Y-15286674D02*
X4296729Y-15334293D01*
X4296729Y-15334293D02*
X4287205Y-15372388D01*
X4287205Y-15372388D02*
X4277682Y-15391436D01*
X4277682Y-15391436D02*
X4268158Y-15400960D01*
X4268158Y-15400960D02*
X4249110Y-15410484D01*
X4249110Y-15410484D02*
X4230063Y-15410484D01*
X4230063Y-15410484D02*
X4211015Y-15400960D01*
X4211015Y-15400960D02*
X4201491Y-15391436D01*
X4201491Y-15391436D02*
X4191967Y-15372388D01*
X4191967Y-15372388D02*
X4182443Y-15334293D01*
X4182443Y-15334293D02*
X4182443Y-15286674D01*
X4182443Y-15286674D02*
X4191967Y-15248579D01*
X4191967Y-15248579D02*
X4201491Y-15229531D01*
X4201491Y-15229531D02*
X4211015Y-15220008D01*
X4211015Y-15220008D02*
X4230063Y-15210484D01*
X4420539Y-15210484D02*
X4439586Y-15210484D01*
X4439586Y-15210484D02*
X4458634Y-15220008D01*
X4458634Y-15220008D02*
X4468158Y-15229531D01*
X4468158Y-15229531D02*
X4477682Y-15248579D01*
X4477682Y-15248579D02*
X4487205Y-15286674D01*
X4487205Y-15286674D02*
X4487205Y-15334293D01*
X4487205Y-15334293D02*
X4477682Y-15372388D01*
X4477682Y-15372388D02*
X4468158Y-15391436D01*
X4468158Y-15391436D02*
X4458634Y-15400960D01*
X4458634Y-15400960D02*
X4439586Y-15410484D01*
X4439586Y-15410484D02*
X4420539Y-15410484D01*
X4420539Y-15410484D02*
X4401491Y-15400960D01*
X4401491Y-15400960D02*
X4391967Y-15391436D01*
X4391967Y-15391436D02*
X4382444Y-15372388D01*
X4382444Y-15372388D02*
X4372920Y-15334293D01*
X4372920Y-15334293D02*
X4372920Y-15286674D01*
X4372920Y-15286674D02*
X4382444Y-15248579D01*
X4382444Y-15248579D02*
X4391967Y-15229531D01*
X4391967Y-15229531D02*
X4401491Y-15220008D01*
X4401491Y-15220008D02*
X4420539Y-15210484D01*
X4572920Y-15410484D02*
X4572920Y-15277150D01*
X4572920Y-15296198D02*
X4582444Y-15286674D01*
X4582444Y-15286674D02*
X4601491Y-15277150D01*
X4601491Y-15277150D02*
X4630063Y-15277150D01*
X4630063Y-15277150D02*
X4649110Y-15286674D01*
X4649110Y-15286674D02*
X4658634Y-15305722D01*
X4658634Y-15305722D02*
X4658634Y-15410484D01*
X4658634Y-15305722D02*
X4668158Y-15286674D01*
X4668158Y-15286674D02*
X4687205Y-15277150D01*
X4687205Y-15277150D02*
X4715777Y-15277150D01*
X4715777Y-15277150D02*
X4734825Y-15286674D01*
X4734825Y-15286674D02*
X4744348Y-15305722D01*
X4744348Y-15305722D02*
X4744348Y-15410484D01*
X4839586Y-15410484D02*
X4839586Y-15277150D01*
X4839586Y-15296198D02*
X4849110Y-15286674D01*
X4849110Y-15286674D02*
X4868158Y-15277150D01*
X4868158Y-15277150D02*
X4896729Y-15277150D01*
X4896729Y-15277150D02*
X4915777Y-15286674D01*
X4915777Y-15286674D02*
X4925301Y-15305722D01*
X4925301Y-15305722D02*
X4925301Y-15410484D01*
X4925301Y-15305722D02*
X4934825Y-15286674D01*
X4934825Y-15286674D02*
X4953872Y-15277150D01*
X4953872Y-15277150D02*
X4982444Y-15277150D01*
X4982444Y-15277150D02*
X5001491Y-15286674D01*
X5001491Y-15286674D02*
X5011015Y-15305722D01*
X5011015Y-15305722D02*
X5011015Y-15410484D01*
X5401491Y-15200960D02*
X5230063Y-15458103D01*
X5658634Y-15210484D02*
X5677682Y-15210484D01*
X5677682Y-15210484D02*
X5696729Y-15220008D01*
X5696729Y-15220008D02*
X5706253Y-15229531D01*
X5706253Y-15229531D02*
X5715777Y-15248579D01*
X5715777Y-15248579D02*
X5725301Y-15286674D01*
X5725301Y-15286674D02*
X5725301Y-15334293D01*
X5725301Y-15334293D02*
X5715777Y-15372388D01*
X5715777Y-15372388D02*
X5706253Y-15391436D01*
X5706253Y-15391436D02*
X5696729Y-15400960D01*
X5696729Y-15400960D02*
X5677682Y-15410484D01*
X5677682Y-15410484D02*
X5658634Y-15410484D01*
X5658634Y-15410484D02*
X5639586Y-15400960D01*
X5639586Y-15400960D02*
X5630063Y-15391436D01*
X5630063Y-15391436D02*
X5620539Y-15372388D01*
X5620539Y-15372388D02*
X5611015Y-15334293D01*
X5611015Y-15334293D02*
X5611015Y-15286674D01*
X5611015Y-15286674D02*
X5620539Y-15248579D01*
X5620539Y-15248579D02*
X5630063Y-15229531D01*
X5630063Y-15229531D02*
X5639586Y-15220008D01*
X5639586Y-15220008D02*
X5658634Y-15210484D01*
X5811015Y-15391436D02*
X5820539Y-15400960D01*
X5820539Y-15400960D02*
X5811015Y-15410484D01*
X5811015Y-15410484D02*
X5801491Y-15400960D01*
X5801491Y-15400960D02*
X5811015Y-15391436D01*
X5811015Y-15391436D02*
X5811015Y-15410484D01*
X5944348Y-15210484D02*
X5963396Y-15210484D01*
X5963396Y-15210484D02*
X5982444Y-15220008D01*
X5982444Y-15220008D02*
X5991967Y-15229531D01*
X5991967Y-15229531D02*
X6001491Y-15248579D01*
X6001491Y-15248579D02*
X6011015Y-15286674D01*
X6011015Y-15286674D02*
X6011015Y-15334293D01*
X6011015Y-15334293D02*
X6001491Y-15372388D01*
X6001491Y-15372388D02*
X5991967Y-15391436D01*
X5991967Y-15391436D02*
X5982444Y-15400960D01*
X5982444Y-15400960D02*
X5963396Y-15410484D01*
X5963396Y-15410484D02*
X5944348Y-15410484D01*
X5944348Y-15410484D02*
X5925301Y-15400960D01*
X5925301Y-15400960D02*
X5915777Y-15391436D01*
X5915777Y-15391436D02*
X5906253Y-15372388D01*
X5906253Y-15372388D02*
X5896729Y-15334293D01*
X5896729Y-15334293D02*
X5896729Y-15286674D01*
X5896729Y-15286674D02*
X5906253Y-15248579D01*
X5906253Y-15248579D02*
X5915777Y-15229531D01*
X5915777Y-15229531D02*
X5925301Y-15220008D01*
X5925301Y-15220008D02*
X5944348Y-15210484D01*
X6077682Y-15210484D02*
X6201491Y-15210484D01*
X6201491Y-15210484D02*
X6134825Y-15286674D01*
X6134825Y-15286674D02*
X6163396Y-15286674D01*
X6163396Y-15286674D02*
X6182444Y-15296198D01*
X6182444Y-15296198D02*
X6191967Y-15305722D01*
X6191967Y-15305722D02*
X6201491Y-15324769D01*
X6201491Y-15324769D02*
X6201491Y-15372388D01*
X6201491Y-15372388D02*
X6191967Y-15391436D01*
X6191967Y-15391436D02*
X6182444Y-15400960D01*
X6182444Y-15400960D02*
X6163396Y-15410484D01*
X6163396Y-15410484D02*
X6106253Y-15410484D01*
X6106253Y-15410484D02*
X6087206Y-15400960D01*
X6087206Y-15400960D02*
X6077682Y-15391436D01*
X6391967Y-15410484D02*
X6277682Y-15410484D01*
X6334825Y-15410484D02*
X6334825Y-15210484D01*
X6334825Y-15210484D02*
X6315777Y-15239055D01*
X6315777Y-15239055D02*
X6296729Y-15258103D01*
X6296729Y-15258103D02*
X6277682Y-15267627D01*
X6572920Y-15210484D02*
X6477682Y-15210484D01*
X6477682Y-15210484D02*
X6468158Y-15305722D01*
X6468158Y-15305722D02*
X6477682Y-15296198D01*
X6477682Y-15296198D02*
X6496729Y-15286674D01*
X6496729Y-15286674D02*
X6544348Y-15286674D01*
X6544348Y-15286674D02*
X6563396Y-15296198D01*
X6563396Y-15296198D02*
X6572920Y-15305722D01*
X6572920Y-15305722D02*
X6582444Y-15324769D01*
X6582444Y-15324769D02*
X6582444Y-15372388D01*
X6582444Y-15372388D02*
X6572920Y-15391436D01*
X6572920Y-15391436D02*
X6563396Y-15400960D01*
X6563396Y-15400960D02*
X6544348Y-15410484D01*
X6544348Y-15410484D02*
X6496729Y-15410484D01*
X6496729Y-15410484D02*
X6477682Y-15400960D01*
X6477682Y-15400960D02*
X6468158Y-15391436D01*
X6658634Y-15210484D02*
X6658634Y-15248579D01*
X6734825Y-15210484D02*
X6734825Y-15248579D01*
X7030063Y-15486674D02*
X7020539Y-15477150D01*
X7020539Y-15477150D02*
X7001491Y-15448579D01*
X7001491Y-15448579D02*
X6991968Y-15429531D01*
X6991968Y-15429531D02*
X6982444Y-15400960D01*
X6982444Y-15400960D02*
X6972920Y-15353341D01*
X6972920Y-15353341D02*
X6972920Y-15315246D01*
X6972920Y-15315246D02*
X6982444Y-15267627D01*
X6982444Y-15267627D02*
X6991968Y-15239055D01*
X6991968Y-15239055D02*
X7001491Y-15220008D01*
X7001491Y-15220008D02*
X7020539Y-15191436D01*
X7020539Y-15191436D02*
X7030063Y-15181912D01*
X7211015Y-15410484D02*
X7096729Y-15410484D01*
X7153872Y-15410484D02*
X7153872Y-15210484D01*
X7153872Y-15210484D02*
X7134825Y-15239055D01*
X7134825Y-15239055D02*
X7115777Y-15258103D01*
X7115777Y-15258103D02*
X7096729Y-15267627D01*
X7334825Y-15210484D02*
X7353872Y-15210484D01*
X7353872Y-15210484D02*
X7372920Y-15220008D01*
X7372920Y-15220008D02*
X7382444Y-15229531D01*
X7382444Y-15229531D02*
X7391968Y-15248579D01*
X7391968Y-15248579D02*
X7401491Y-15286674D01*
X7401491Y-15286674D02*
X7401491Y-15334293D01*
X7401491Y-15334293D02*
X7391968Y-15372388D01*
X7391968Y-15372388D02*
X7382444Y-15391436D01*
X7382444Y-15391436D02*
X7372920Y-15400960D01*
X7372920Y-15400960D02*
X7353872Y-15410484D01*
X7353872Y-15410484D02*
X7334825Y-15410484D01*
X7334825Y-15410484D02*
X7315777Y-15400960D01*
X7315777Y-15400960D02*
X7306253Y-15391436D01*
X7306253Y-15391436D02*
X7296729Y-15372388D01*
X7296729Y-15372388D02*
X7287206Y-15334293D01*
X7287206Y-15334293D02*
X7287206Y-15286674D01*
X7287206Y-15286674D02*
X7296729Y-15248579D01*
X7296729Y-15248579D02*
X7306253Y-15229531D01*
X7306253Y-15229531D02*
X7315777Y-15220008D01*
X7315777Y-15220008D02*
X7334825Y-15210484D01*
X7639587Y-15410484D02*
X7639587Y-15210484D01*
X7725301Y-15410484D02*
X7725301Y-15305722D01*
X7725301Y-15305722D02*
X7715777Y-15286674D01*
X7715777Y-15286674D02*
X7696730Y-15277150D01*
X7696730Y-15277150D02*
X7668158Y-15277150D01*
X7668158Y-15277150D02*
X7649110Y-15286674D01*
X7649110Y-15286674D02*
X7639587Y-15296198D01*
X7849110Y-15410484D02*
X7830063Y-15400960D01*
X7830063Y-15400960D02*
X7820539Y-15391436D01*
X7820539Y-15391436D02*
X7811015Y-15372388D01*
X7811015Y-15372388D02*
X7811015Y-15315246D01*
X7811015Y-15315246D02*
X7820539Y-15296198D01*
X7820539Y-15296198D02*
X7830063Y-15286674D01*
X7830063Y-15286674D02*
X7849110Y-15277150D01*
X7849110Y-15277150D02*
X7877682Y-15277150D01*
X7877682Y-15277150D02*
X7896730Y-15286674D01*
X7896730Y-15286674D02*
X7906253Y-15296198D01*
X7906253Y-15296198D02*
X7915777Y-15315246D01*
X7915777Y-15315246D02*
X7915777Y-15372388D01*
X7915777Y-15372388D02*
X7906253Y-15391436D01*
X7906253Y-15391436D02*
X7896730Y-15400960D01*
X7896730Y-15400960D02*
X7877682Y-15410484D01*
X7877682Y-15410484D02*
X7849110Y-15410484D01*
X8030063Y-15410484D02*
X8011015Y-15400960D01*
X8011015Y-15400960D02*
X8001491Y-15381912D01*
X8001491Y-15381912D02*
X8001491Y-15210484D01*
X8182444Y-15400960D02*
X8163396Y-15410484D01*
X8163396Y-15410484D02*
X8125301Y-15410484D01*
X8125301Y-15410484D02*
X8106253Y-15400960D01*
X8106253Y-15400960D02*
X8096730Y-15381912D01*
X8096730Y-15381912D02*
X8096730Y-15305722D01*
X8096730Y-15305722D02*
X8106253Y-15286674D01*
X8106253Y-15286674D02*
X8125301Y-15277150D01*
X8125301Y-15277150D02*
X8163396Y-15277150D01*
X8163396Y-15277150D02*
X8182444Y-15286674D01*
X8182444Y-15286674D02*
X8191968Y-15305722D01*
X8191968Y-15305722D02*
X8191968Y-15324769D01*
X8191968Y-15324769D02*
X8096730Y-15343817D01*
X8268158Y-15400960D02*
X8287206Y-15410484D01*
X8287206Y-15410484D02*
X8325301Y-15410484D01*
X8325301Y-15410484D02*
X8344349Y-15400960D01*
X8344349Y-15400960D02*
X8353872Y-15381912D01*
X8353872Y-15381912D02*
X8353872Y-15372388D01*
X8353872Y-15372388D02*
X8344349Y-15353341D01*
X8344349Y-15353341D02*
X8325301Y-15343817D01*
X8325301Y-15343817D02*
X8296730Y-15343817D01*
X8296730Y-15343817D02*
X8277682Y-15334293D01*
X8277682Y-15334293D02*
X8268158Y-15315246D01*
X8268158Y-15315246D02*
X8268158Y-15305722D01*
X8268158Y-15305722D02*
X8277682Y-15286674D01*
X8277682Y-15286674D02*
X8296730Y-15277150D01*
X8296730Y-15277150D02*
X8325301Y-15277150D01*
X8325301Y-15277150D02*
X8344349Y-15286674D01*
X8420539Y-15486674D02*
X8430063Y-15477150D01*
X8430063Y-15477150D02*
X8449111Y-15448579D01*
X8449111Y-15448579D02*
X8458634Y-15429531D01*
X8458634Y-15429531D02*
X8468158Y-15400960D01*
X8468158Y-15400960D02*
X8477682Y-15353341D01*
X8477682Y-15353341D02*
X8477682Y-15315246D01*
X8477682Y-15315246D02*
X8468158Y-15267627D01*
X8468158Y-15267627D02*
X8458634Y-15239055D01*
X8458634Y-15239055D02*
X8449111Y-15220008D01*
X8449111Y-15220008D02*
X8430063Y-15191436D01*
X8430063Y-15191436D02*
X8420539Y-15181912D01*
D14*
X3410000Y-15538000D02*
X3410000Y-15628000D01*
X3365000Y-15583000D02*
X3455000Y-15583000D01*
D11*
X3753872Y-15474484D02*
X3772920Y-15474484D01*
X3772920Y-15474484D02*
X3791967Y-15484008D01*
X3791967Y-15484008D02*
X3801491Y-15493531D01*
X3801491Y-15493531D02*
X3811015Y-15512579D01*
X3811015Y-15512579D02*
X3820539Y-15550674D01*
X3820539Y-15550674D02*
X3820539Y-15598293D01*
X3820539Y-15598293D02*
X3811015Y-15636388D01*
X3811015Y-15636388D02*
X3801491Y-15655436D01*
X3801491Y-15655436D02*
X3791967Y-15664960D01*
X3791967Y-15664960D02*
X3772920Y-15674484D01*
X3772920Y-15674484D02*
X3753872Y-15674484D01*
X3753872Y-15674484D02*
X3734824Y-15664960D01*
X3734824Y-15664960D02*
X3725301Y-15655436D01*
X3725301Y-15655436D02*
X3715777Y-15636388D01*
X3715777Y-15636388D02*
X3706253Y-15598293D01*
X3706253Y-15598293D02*
X3706253Y-15550674D01*
X3706253Y-15550674D02*
X3715777Y-15512579D01*
X3715777Y-15512579D02*
X3725301Y-15493531D01*
X3725301Y-15493531D02*
X3734824Y-15484008D01*
X3734824Y-15484008D02*
X3753872Y-15474484D01*
X3906253Y-15655436D02*
X3915777Y-15664960D01*
X3915777Y-15664960D02*
X3906253Y-15674484D01*
X3906253Y-15674484D02*
X3896729Y-15664960D01*
X3896729Y-15664960D02*
X3906253Y-15655436D01*
X3906253Y-15655436D02*
X3906253Y-15674484D01*
X4011015Y-15674484D02*
X4049110Y-15674484D01*
X4049110Y-15674484D02*
X4068158Y-15664960D01*
X4068158Y-15664960D02*
X4077682Y-15655436D01*
X4077682Y-15655436D02*
X4096729Y-15626865D01*
X4096729Y-15626865D02*
X4106253Y-15588769D01*
X4106253Y-15588769D02*
X4106253Y-15512579D01*
X4106253Y-15512579D02*
X4096729Y-15493531D01*
X4096729Y-15493531D02*
X4087205Y-15484008D01*
X4087205Y-15484008D02*
X4068158Y-15474484D01*
X4068158Y-15474484D02*
X4030062Y-15474484D01*
X4030062Y-15474484D02*
X4011015Y-15484008D01*
X4011015Y-15484008D02*
X4001491Y-15493531D01*
X4001491Y-15493531D02*
X3991967Y-15512579D01*
X3991967Y-15512579D02*
X3991967Y-15560198D01*
X3991967Y-15560198D02*
X4001491Y-15579246D01*
X4001491Y-15579246D02*
X4011015Y-15588769D01*
X4011015Y-15588769D02*
X4030062Y-15598293D01*
X4030062Y-15598293D02*
X4068158Y-15598293D01*
X4068158Y-15598293D02*
X4087205Y-15588769D01*
X4087205Y-15588769D02*
X4096729Y-15579246D01*
X4096729Y-15579246D02*
X4106253Y-15560198D01*
X4230063Y-15474484D02*
X4249110Y-15474484D01*
X4249110Y-15474484D02*
X4268158Y-15484008D01*
X4268158Y-15484008D02*
X4277682Y-15493531D01*
X4277682Y-15493531D02*
X4287205Y-15512579D01*
X4287205Y-15512579D02*
X4296729Y-15550674D01*
X4296729Y-15550674D02*
X4296729Y-15598293D01*
X4296729Y-15598293D02*
X4287205Y-15636388D01*
X4287205Y-15636388D02*
X4277682Y-15655436D01*
X4277682Y-15655436D02*
X4268158Y-15664960D01*
X4268158Y-15664960D02*
X4249110Y-15674484D01*
X4249110Y-15674484D02*
X4230063Y-15674484D01*
X4230063Y-15674484D02*
X4211015Y-15664960D01*
X4211015Y-15664960D02*
X4201491Y-15655436D01*
X4201491Y-15655436D02*
X4191967Y-15636388D01*
X4191967Y-15636388D02*
X4182443Y-15598293D01*
X4182443Y-15598293D02*
X4182443Y-15550674D01*
X4182443Y-15550674D02*
X4191967Y-15512579D01*
X4191967Y-15512579D02*
X4201491Y-15493531D01*
X4201491Y-15493531D02*
X4211015Y-15484008D01*
X4211015Y-15484008D02*
X4230063Y-15474484D01*
X4420539Y-15474484D02*
X4439586Y-15474484D01*
X4439586Y-15474484D02*
X4458634Y-15484008D01*
X4458634Y-15484008D02*
X4468158Y-15493531D01*
X4468158Y-15493531D02*
X4477682Y-15512579D01*
X4477682Y-15512579D02*
X4487205Y-15550674D01*
X4487205Y-15550674D02*
X4487205Y-15598293D01*
X4487205Y-15598293D02*
X4477682Y-15636388D01*
X4477682Y-15636388D02*
X4468158Y-15655436D01*
X4468158Y-15655436D02*
X4458634Y-15664960D01*
X4458634Y-15664960D02*
X4439586Y-15674484D01*
X4439586Y-15674484D02*
X4420539Y-15674484D01*
X4420539Y-15674484D02*
X4401491Y-15664960D01*
X4401491Y-15664960D02*
X4391967Y-15655436D01*
X4391967Y-15655436D02*
X4382444Y-15636388D01*
X4382444Y-15636388D02*
X4372920Y-15598293D01*
X4372920Y-15598293D02*
X4372920Y-15550674D01*
X4372920Y-15550674D02*
X4382444Y-15512579D01*
X4382444Y-15512579D02*
X4391967Y-15493531D01*
X4391967Y-15493531D02*
X4401491Y-15484008D01*
X4401491Y-15484008D02*
X4420539Y-15474484D01*
X4572920Y-15674484D02*
X4572920Y-15541150D01*
X4572920Y-15560198D02*
X4582444Y-15550674D01*
X4582444Y-15550674D02*
X4601491Y-15541150D01*
X4601491Y-15541150D02*
X4630063Y-15541150D01*
X4630063Y-15541150D02*
X4649110Y-15550674D01*
X4649110Y-15550674D02*
X4658634Y-15569722D01*
X4658634Y-15569722D02*
X4658634Y-15674484D01*
X4658634Y-15569722D02*
X4668158Y-15550674D01*
X4668158Y-15550674D02*
X4687205Y-15541150D01*
X4687205Y-15541150D02*
X4715777Y-15541150D01*
X4715777Y-15541150D02*
X4734825Y-15550674D01*
X4734825Y-15550674D02*
X4744348Y-15569722D01*
X4744348Y-15569722D02*
X4744348Y-15674484D01*
X4839586Y-15674484D02*
X4839586Y-15541150D01*
X4839586Y-15560198D02*
X4849110Y-15550674D01*
X4849110Y-15550674D02*
X4868158Y-15541150D01*
X4868158Y-15541150D02*
X4896729Y-15541150D01*
X4896729Y-15541150D02*
X4915777Y-15550674D01*
X4915777Y-15550674D02*
X4925301Y-15569722D01*
X4925301Y-15569722D02*
X4925301Y-15674484D01*
X4925301Y-15569722D02*
X4934825Y-15550674D01*
X4934825Y-15550674D02*
X4953872Y-15541150D01*
X4953872Y-15541150D02*
X4982444Y-15541150D01*
X4982444Y-15541150D02*
X5001491Y-15550674D01*
X5001491Y-15550674D02*
X5011015Y-15569722D01*
X5011015Y-15569722D02*
X5011015Y-15674484D01*
X5401491Y-15464960D02*
X5230063Y-15722103D01*
X5658634Y-15474484D02*
X5677682Y-15474484D01*
X5677682Y-15474484D02*
X5696729Y-15484008D01*
X5696729Y-15484008D02*
X5706253Y-15493531D01*
X5706253Y-15493531D02*
X5715777Y-15512579D01*
X5715777Y-15512579D02*
X5725301Y-15550674D01*
X5725301Y-15550674D02*
X5725301Y-15598293D01*
X5725301Y-15598293D02*
X5715777Y-15636388D01*
X5715777Y-15636388D02*
X5706253Y-15655436D01*
X5706253Y-15655436D02*
X5696729Y-15664960D01*
X5696729Y-15664960D02*
X5677682Y-15674484D01*
X5677682Y-15674484D02*
X5658634Y-15674484D01*
X5658634Y-15674484D02*
X5639586Y-15664960D01*
X5639586Y-15664960D02*
X5630063Y-15655436D01*
X5630063Y-15655436D02*
X5620539Y-15636388D01*
X5620539Y-15636388D02*
X5611015Y-15598293D01*
X5611015Y-15598293D02*
X5611015Y-15550674D01*
X5611015Y-15550674D02*
X5620539Y-15512579D01*
X5620539Y-15512579D02*
X5630063Y-15493531D01*
X5630063Y-15493531D02*
X5639586Y-15484008D01*
X5639586Y-15484008D02*
X5658634Y-15474484D01*
X5811015Y-15655436D02*
X5820539Y-15664960D01*
X5820539Y-15664960D02*
X5811015Y-15674484D01*
X5811015Y-15674484D02*
X5801491Y-15664960D01*
X5801491Y-15664960D02*
X5811015Y-15655436D01*
X5811015Y-15655436D02*
X5811015Y-15674484D01*
X5944348Y-15474484D02*
X5963396Y-15474484D01*
X5963396Y-15474484D02*
X5982444Y-15484008D01*
X5982444Y-15484008D02*
X5991967Y-15493531D01*
X5991967Y-15493531D02*
X6001491Y-15512579D01*
X6001491Y-15512579D02*
X6011015Y-15550674D01*
X6011015Y-15550674D02*
X6011015Y-15598293D01*
X6011015Y-15598293D02*
X6001491Y-15636388D01*
X6001491Y-15636388D02*
X5991967Y-15655436D01*
X5991967Y-15655436D02*
X5982444Y-15664960D01*
X5982444Y-15664960D02*
X5963396Y-15674484D01*
X5963396Y-15674484D02*
X5944348Y-15674484D01*
X5944348Y-15674484D02*
X5925301Y-15664960D01*
X5925301Y-15664960D02*
X5915777Y-15655436D01*
X5915777Y-15655436D02*
X5906253Y-15636388D01*
X5906253Y-15636388D02*
X5896729Y-15598293D01*
X5896729Y-15598293D02*
X5896729Y-15550674D01*
X5896729Y-15550674D02*
X5906253Y-15512579D01*
X5906253Y-15512579D02*
X5915777Y-15493531D01*
X5915777Y-15493531D02*
X5925301Y-15484008D01*
X5925301Y-15484008D02*
X5944348Y-15474484D01*
X6077682Y-15474484D02*
X6201491Y-15474484D01*
X6201491Y-15474484D02*
X6134825Y-15550674D01*
X6134825Y-15550674D02*
X6163396Y-15550674D01*
X6163396Y-15550674D02*
X6182444Y-15560198D01*
X6182444Y-15560198D02*
X6191967Y-15569722D01*
X6191967Y-15569722D02*
X6201491Y-15588769D01*
X6201491Y-15588769D02*
X6201491Y-15636388D01*
X6201491Y-15636388D02*
X6191967Y-15655436D01*
X6191967Y-15655436D02*
X6182444Y-15664960D01*
X6182444Y-15664960D02*
X6163396Y-15674484D01*
X6163396Y-15674484D02*
X6106253Y-15674484D01*
X6106253Y-15674484D02*
X6087206Y-15664960D01*
X6087206Y-15664960D02*
X6077682Y-15655436D01*
X6382444Y-15474484D02*
X6287206Y-15474484D01*
X6287206Y-15474484D02*
X6277682Y-15569722D01*
X6277682Y-15569722D02*
X6287206Y-15560198D01*
X6287206Y-15560198D02*
X6306253Y-15550674D01*
X6306253Y-15550674D02*
X6353872Y-15550674D01*
X6353872Y-15550674D02*
X6372920Y-15560198D01*
X6372920Y-15560198D02*
X6382444Y-15569722D01*
X6382444Y-15569722D02*
X6391967Y-15588769D01*
X6391967Y-15588769D02*
X6391967Y-15636388D01*
X6391967Y-15636388D02*
X6382444Y-15655436D01*
X6382444Y-15655436D02*
X6372920Y-15664960D01*
X6372920Y-15664960D02*
X6353872Y-15674484D01*
X6353872Y-15674484D02*
X6306253Y-15674484D01*
X6306253Y-15674484D02*
X6287206Y-15664960D01*
X6287206Y-15664960D02*
X6277682Y-15655436D01*
X6563396Y-15541150D02*
X6563396Y-15674484D01*
X6515777Y-15464960D02*
X6468158Y-15607817D01*
X6468158Y-15607817D02*
X6591967Y-15607817D01*
X6658634Y-15474484D02*
X6658634Y-15512579D01*
X6734825Y-15474484D02*
X6734825Y-15512579D01*
X7030063Y-15750674D02*
X7020539Y-15741150D01*
X7020539Y-15741150D02*
X7001491Y-15712579D01*
X7001491Y-15712579D02*
X6991968Y-15693531D01*
X6991968Y-15693531D02*
X6982444Y-15664960D01*
X6982444Y-15664960D02*
X6972920Y-15617341D01*
X6972920Y-15617341D02*
X6972920Y-15579246D01*
X6972920Y-15579246D02*
X6982444Y-15531627D01*
X6982444Y-15531627D02*
X6991968Y-15503055D01*
X6991968Y-15503055D02*
X7001491Y-15484008D01*
X7001491Y-15484008D02*
X7020539Y-15455436D01*
X7020539Y-15455436D02*
X7030063Y-15445912D01*
X7191968Y-15474484D02*
X7153872Y-15474484D01*
X7153872Y-15474484D02*
X7134825Y-15484008D01*
X7134825Y-15484008D02*
X7125301Y-15493531D01*
X7125301Y-15493531D02*
X7106253Y-15522103D01*
X7106253Y-15522103D02*
X7096729Y-15560198D01*
X7096729Y-15560198D02*
X7096729Y-15636388D01*
X7096729Y-15636388D02*
X7106253Y-15655436D01*
X7106253Y-15655436D02*
X7115777Y-15664960D01*
X7115777Y-15664960D02*
X7134825Y-15674484D01*
X7134825Y-15674484D02*
X7172920Y-15674484D01*
X7172920Y-15674484D02*
X7191968Y-15664960D01*
X7191968Y-15664960D02*
X7201491Y-15655436D01*
X7201491Y-15655436D02*
X7211015Y-15636388D01*
X7211015Y-15636388D02*
X7211015Y-15588769D01*
X7211015Y-15588769D02*
X7201491Y-15569722D01*
X7201491Y-15569722D02*
X7191968Y-15560198D01*
X7191968Y-15560198D02*
X7172920Y-15550674D01*
X7172920Y-15550674D02*
X7134825Y-15550674D01*
X7134825Y-15550674D02*
X7115777Y-15560198D01*
X7115777Y-15560198D02*
X7106253Y-15569722D01*
X7106253Y-15569722D02*
X7096729Y-15588769D01*
X7449110Y-15674484D02*
X7449110Y-15474484D01*
X7534825Y-15674484D02*
X7534825Y-15569722D01*
X7534825Y-15569722D02*
X7525301Y-15550674D01*
X7525301Y-15550674D02*
X7506253Y-15541150D01*
X7506253Y-15541150D02*
X7477682Y-15541150D01*
X7477682Y-15541150D02*
X7458634Y-15550674D01*
X7458634Y-15550674D02*
X7449110Y-15560198D01*
X7658634Y-15674484D02*
X7639587Y-15664960D01*
X7639587Y-15664960D02*
X7630063Y-15655436D01*
X7630063Y-15655436D02*
X7620539Y-15636388D01*
X7620539Y-15636388D02*
X7620539Y-15579246D01*
X7620539Y-15579246D02*
X7630063Y-15560198D01*
X7630063Y-15560198D02*
X7639587Y-15550674D01*
X7639587Y-15550674D02*
X7658634Y-15541150D01*
X7658634Y-15541150D02*
X7687206Y-15541150D01*
X7687206Y-15541150D02*
X7706253Y-15550674D01*
X7706253Y-15550674D02*
X7715777Y-15560198D01*
X7715777Y-15560198D02*
X7725301Y-15579246D01*
X7725301Y-15579246D02*
X7725301Y-15636388D01*
X7725301Y-15636388D02*
X7715777Y-15655436D01*
X7715777Y-15655436D02*
X7706253Y-15664960D01*
X7706253Y-15664960D02*
X7687206Y-15674484D01*
X7687206Y-15674484D02*
X7658634Y-15674484D01*
X7839587Y-15674484D02*
X7820539Y-15664960D01*
X7820539Y-15664960D02*
X7811015Y-15645912D01*
X7811015Y-15645912D02*
X7811015Y-15474484D01*
X7991968Y-15664960D02*
X7972920Y-15674484D01*
X7972920Y-15674484D02*
X7934825Y-15674484D01*
X7934825Y-15674484D02*
X7915777Y-15664960D01*
X7915777Y-15664960D02*
X7906253Y-15645912D01*
X7906253Y-15645912D02*
X7906253Y-15569722D01*
X7906253Y-15569722D02*
X7915777Y-15550674D01*
X7915777Y-15550674D02*
X7934825Y-15541150D01*
X7934825Y-15541150D02*
X7972920Y-15541150D01*
X7972920Y-15541150D02*
X7991968Y-15550674D01*
X7991968Y-15550674D02*
X8001491Y-15569722D01*
X8001491Y-15569722D02*
X8001491Y-15588769D01*
X8001491Y-15588769D02*
X7906253Y-15607817D01*
X8077682Y-15664960D02*
X8096730Y-15674484D01*
X8096730Y-15674484D02*
X8134825Y-15674484D01*
X8134825Y-15674484D02*
X8153872Y-15664960D01*
X8153872Y-15664960D02*
X8163396Y-15645912D01*
X8163396Y-15645912D02*
X8163396Y-15636388D01*
X8163396Y-15636388D02*
X8153872Y-15617341D01*
X8153872Y-15617341D02*
X8134825Y-15607817D01*
X8134825Y-15607817D02*
X8106253Y-15607817D01*
X8106253Y-15607817D02*
X8087206Y-15598293D01*
X8087206Y-15598293D02*
X8077682Y-15579246D01*
X8077682Y-15579246D02*
X8077682Y-15569722D01*
X8077682Y-15569722D02*
X8087206Y-15550674D01*
X8087206Y-15550674D02*
X8106253Y-15541150D01*
X8106253Y-15541150D02*
X8134825Y-15541150D01*
X8134825Y-15541150D02*
X8153872Y-15550674D01*
X8230063Y-15750674D02*
X8239587Y-15741150D01*
X8239587Y-15741150D02*
X8258634Y-15712579D01*
X8258634Y-15712579D02*
X8268158Y-15693531D01*
X8268158Y-15693531D02*
X8277682Y-15664960D01*
X8277682Y-15664960D02*
X8287206Y-15617341D01*
X8287206Y-15617341D02*
X8287206Y-15579246D01*
X8287206Y-15579246D02*
X8277682Y-15531627D01*
X8277682Y-15531627D02*
X8268158Y-15503055D01*
X8268158Y-15503055D02*
X8258634Y-15484008D01*
X8258634Y-15484008D02*
X8239587Y-15455436D01*
X8239587Y-15455436D02*
X8230063Y-15445912D01*
D10*
X3440356Y-15882356D02*
X3440356Y-15811644D01*
X3369644Y-15811644D01*
X3369644Y-15882356D01*
X3440356Y-15882356D01*
D11*
X3820539Y-15938484D02*
X3706253Y-15938484D01*
X3763396Y-15938484D02*
X3763396Y-15738484D01*
X3763396Y-15738484D02*
X3744348Y-15767055D01*
X3744348Y-15767055D02*
X3725301Y-15786103D01*
X3725301Y-15786103D02*
X3706253Y-15795627D01*
X3906253Y-15919436D02*
X3915777Y-15928960D01*
X3915777Y-15928960D02*
X3906253Y-15938484D01*
X3906253Y-15938484D02*
X3896729Y-15928960D01*
X3896729Y-15928960D02*
X3906253Y-15919436D01*
X3906253Y-15919436D02*
X3906253Y-15938484D01*
X4039586Y-15738484D02*
X4058634Y-15738484D01*
X4058634Y-15738484D02*
X4077682Y-15748008D01*
X4077682Y-15748008D02*
X4087205Y-15757531D01*
X4087205Y-15757531D02*
X4096729Y-15776579D01*
X4096729Y-15776579D02*
X4106253Y-15814674D01*
X4106253Y-15814674D02*
X4106253Y-15862293D01*
X4106253Y-15862293D02*
X4096729Y-15900388D01*
X4096729Y-15900388D02*
X4087205Y-15919436D01*
X4087205Y-15919436D02*
X4077682Y-15928960D01*
X4077682Y-15928960D02*
X4058634Y-15938484D01*
X4058634Y-15938484D02*
X4039586Y-15938484D01*
X4039586Y-15938484D02*
X4020539Y-15928960D01*
X4020539Y-15928960D02*
X4011015Y-15919436D01*
X4011015Y-15919436D02*
X4001491Y-15900388D01*
X4001491Y-15900388D02*
X3991967Y-15862293D01*
X3991967Y-15862293D02*
X3991967Y-15814674D01*
X3991967Y-15814674D02*
X4001491Y-15776579D01*
X4001491Y-15776579D02*
X4011015Y-15757531D01*
X4011015Y-15757531D02*
X4020539Y-15748008D01*
X4020539Y-15748008D02*
X4039586Y-15738484D01*
X4230063Y-15738484D02*
X4249110Y-15738484D01*
X4249110Y-15738484D02*
X4268158Y-15748008D01*
X4268158Y-15748008D02*
X4277682Y-15757531D01*
X4277682Y-15757531D02*
X4287205Y-15776579D01*
X4287205Y-15776579D02*
X4296729Y-15814674D01*
X4296729Y-15814674D02*
X4296729Y-15862293D01*
X4296729Y-15862293D02*
X4287205Y-15900388D01*
X4287205Y-15900388D02*
X4277682Y-15919436D01*
X4277682Y-15919436D02*
X4268158Y-15928960D01*
X4268158Y-15928960D02*
X4249110Y-15938484D01*
X4249110Y-15938484D02*
X4230063Y-15938484D01*
X4230063Y-15938484D02*
X4211015Y-15928960D01*
X4211015Y-15928960D02*
X4201491Y-15919436D01*
X4201491Y-15919436D02*
X4191967Y-15900388D01*
X4191967Y-15900388D02*
X4182443Y-15862293D01*
X4182443Y-15862293D02*
X4182443Y-15814674D01*
X4182443Y-15814674D02*
X4191967Y-15776579D01*
X4191967Y-15776579D02*
X4201491Y-15757531D01*
X4201491Y-15757531D02*
X4211015Y-15748008D01*
X4211015Y-15748008D02*
X4230063Y-15738484D01*
X4420539Y-15738484D02*
X4439586Y-15738484D01*
X4439586Y-15738484D02*
X4458634Y-15748008D01*
X4458634Y-15748008D02*
X4468158Y-15757531D01*
X4468158Y-15757531D02*
X4477682Y-15776579D01*
X4477682Y-15776579D02*
X4487205Y-15814674D01*
X4487205Y-15814674D02*
X4487205Y-15862293D01*
X4487205Y-15862293D02*
X4477682Y-15900388D01*
X4477682Y-15900388D02*
X4468158Y-15919436D01*
X4468158Y-15919436D02*
X4458634Y-15928960D01*
X4458634Y-15928960D02*
X4439586Y-15938484D01*
X4439586Y-15938484D02*
X4420539Y-15938484D01*
X4420539Y-15938484D02*
X4401491Y-15928960D01*
X4401491Y-15928960D02*
X4391967Y-15919436D01*
X4391967Y-15919436D02*
X4382444Y-15900388D01*
X4382444Y-15900388D02*
X4372920Y-15862293D01*
X4372920Y-15862293D02*
X4372920Y-15814674D01*
X4372920Y-15814674D02*
X4382444Y-15776579D01*
X4382444Y-15776579D02*
X4391967Y-15757531D01*
X4391967Y-15757531D02*
X4401491Y-15748008D01*
X4401491Y-15748008D02*
X4420539Y-15738484D01*
X4572920Y-15938484D02*
X4572920Y-15805150D01*
X4572920Y-15824198D02*
X4582444Y-15814674D01*
X4582444Y-15814674D02*
X4601491Y-15805150D01*
X4601491Y-15805150D02*
X4630063Y-15805150D01*
X4630063Y-15805150D02*
X4649110Y-15814674D01*
X4649110Y-15814674D02*
X4658634Y-15833722D01*
X4658634Y-15833722D02*
X4658634Y-15938484D01*
X4658634Y-15833722D02*
X4668158Y-15814674D01*
X4668158Y-15814674D02*
X4687205Y-15805150D01*
X4687205Y-15805150D02*
X4715777Y-15805150D01*
X4715777Y-15805150D02*
X4734825Y-15814674D01*
X4734825Y-15814674D02*
X4744348Y-15833722D01*
X4744348Y-15833722D02*
X4744348Y-15938484D01*
X4839586Y-15938484D02*
X4839586Y-15805150D01*
X4839586Y-15824198D02*
X4849110Y-15814674D01*
X4849110Y-15814674D02*
X4868158Y-15805150D01*
X4868158Y-15805150D02*
X4896729Y-15805150D01*
X4896729Y-15805150D02*
X4915777Y-15814674D01*
X4915777Y-15814674D02*
X4925301Y-15833722D01*
X4925301Y-15833722D02*
X4925301Y-15938484D01*
X4925301Y-15833722D02*
X4934825Y-15814674D01*
X4934825Y-15814674D02*
X4953872Y-15805150D01*
X4953872Y-15805150D02*
X4982444Y-15805150D01*
X4982444Y-15805150D02*
X5001491Y-15814674D01*
X5001491Y-15814674D02*
X5011015Y-15833722D01*
X5011015Y-15833722D02*
X5011015Y-15938484D01*
X5401491Y-15728960D02*
X5230063Y-15986103D01*
X5658634Y-15738484D02*
X5677682Y-15738484D01*
X5677682Y-15738484D02*
X5696729Y-15748008D01*
X5696729Y-15748008D02*
X5706253Y-15757531D01*
X5706253Y-15757531D02*
X5715777Y-15776579D01*
X5715777Y-15776579D02*
X5725301Y-15814674D01*
X5725301Y-15814674D02*
X5725301Y-15862293D01*
X5725301Y-15862293D02*
X5715777Y-15900388D01*
X5715777Y-15900388D02*
X5706253Y-15919436D01*
X5706253Y-15919436D02*
X5696729Y-15928960D01*
X5696729Y-15928960D02*
X5677682Y-15938484D01*
X5677682Y-15938484D02*
X5658634Y-15938484D01*
X5658634Y-15938484D02*
X5639586Y-15928960D01*
X5639586Y-15928960D02*
X5630063Y-15919436D01*
X5630063Y-15919436D02*
X5620539Y-15900388D01*
X5620539Y-15900388D02*
X5611015Y-15862293D01*
X5611015Y-15862293D02*
X5611015Y-15814674D01*
X5611015Y-15814674D02*
X5620539Y-15776579D01*
X5620539Y-15776579D02*
X5630063Y-15757531D01*
X5630063Y-15757531D02*
X5639586Y-15748008D01*
X5639586Y-15748008D02*
X5658634Y-15738484D01*
X5811015Y-15919436D02*
X5820539Y-15928960D01*
X5820539Y-15928960D02*
X5811015Y-15938484D01*
X5811015Y-15938484D02*
X5801491Y-15928960D01*
X5801491Y-15928960D02*
X5811015Y-15919436D01*
X5811015Y-15919436D02*
X5811015Y-15938484D01*
X5944348Y-15738484D02*
X5963396Y-15738484D01*
X5963396Y-15738484D02*
X5982444Y-15748008D01*
X5982444Y-15748008D02*
X5991967Y-15757531D01*
X5991967Y-15757531D02*
X6001491Y-15776579D01*
X6001491Y-15776579D02*
X6011015Y-15814674D01*
X6011015Y-15814674D02*
X6011015Y-15862293D01*
X6011015Y-15862293D02*
X6001491Y-15900388D01*
X6001491Y-15900388D02*
X5991967Y-15919436D01*
X5991967Y-15919436D02*
X5982444Y-15928960D01*
X5982444Y-15928960D02*
X5963396Y-15938484D01*
X5963396Y-15938484D02*
X5944348Y-15938484D01*
X5944348Y-15938484D02*
X5925301Y-15928960D01*
X5925301Y-15928960D02*
X5915777Y-15919436D01*
X5915777Y-15919436D02*
X5906253Y-15900388D01*
X5906253Y-15900388D02*
X5896729Y-15862293D01*
X5896729Y-15862293D02*
X5896729Y-15814674D01*
X5896729Y-15814674D02*
X5906253Y-15776579D01*
X5906253Y-15776579D02*
X5915777Y-15757531D01*
X5915777Y-15757531D02*
X5925301Y-15748008D01*
X5925301Y-15748008D02*
X5944348Y-15738484D01*
X6077682Y-15738484D02*
X6201491Y-15738484D01*
X6201491Y-15738484D02*
X6134825Y-15814674D01*
X6134825Y-15814674D02*
X6163396Y-15814674D01*
X6163396Y-15814674D02*
X6182444Y-15824198D01*
X6182444Y-15824198D02*
X6191967Y-15833722D01*
X6191967Y-15833722D02*
X6201491Y-15852769D01*
X6201491Y-15852769D02*
X6201491Y-15900388D01*
X6201491Y-15900388D02*
X6191967Y-15919436D01*
X6191967Y-15919436D02*
X6182444Y-15928960D01*
X6182444Y-15928960D02*
X6163396Y-15938484D01*
X6163396Y-15938484D02*
X6106253Y-15938484D01*
X6106253Y-15938484D02*
X6087206Y-15928960D01*
X6087206Y-15928960D02*
X6077682Y-15919436D01*
X6296729Y-15938484D02*
X6334825Y-15938484D01*
X6334825Y-15938484D02*
X6353872Y-15928960D01*
X6353872Y-15928960D02*
X6363396Y-15919436D01*
X6363396Y-15919436D02*
X6382444Y-15890865D01*
X6382444Y-15890865D02*
X6391967Y-15852769D01*
X6391967Y-15852769D02*
X6391967Y-15776579D01*
X6391967Y-15776579D02*
X6382444Y-15757531D01*
X6382444Y-15757531D02*
X6372920Y-15748008D01*
X6372920Y-15748008D02*
X6353872Y-15738484D01*
X6353872Y-15738484D02*
X6315777Y-15738484D01*
X6315777Y-15738484D02*
X6296729Y-15748008D01*
X6296729Y-15748008D02*
X6287206Y-15757531D01*
X6287206Y-15757531D02*
X6277682Y-15776579D01*
X6277682Y-15776579D02*
X6277682Y-15824198D01*
X6277682Y-15824198D02*
X6287206Y-15843246D01*
X6287206Y-15843246D02*
X6296729Y-15852769D01*
X6296729Y-15852769D02*
X6315777Y-15862293D01*
X6315777Y-15862293D02*
X6353872Y-15862293D01*
X6353872Y-15862293D02*
X6372920Y-15852769D01*
X6372920Y-15852769D02*
X6382444Y-15843246D01*
X6382444Y-15843246D02*
X6391967Y-15824198D01*
X6563396Y-15805150D02*
X6563396Y-15938484D01*
X6515777Y-15728960D02*
X6468158Y-15871817D01*
X6468158Y-15871817D02*
X6591967Y-15871817D01*
X6658634Y-15738484D02*
X6658634Y-15776579D01*
X6734825Y-15738484D02*
X6734825Y-15776579D01*
X7030063Y-16014674D02*
X7020539Y-16005150D01*
X7020539Y-16005150D02*
X7001491Y-15976579D01*
X7001491Y-15976579D02*
X6991968Y-15957531D01*
X6991968Y-15957531D02*
X6982444Y-15928960D01*
X6982444Y-15928960D02*
X6972920Y-15881341D01*
X6972920Y-15881341D02*
X6972920Y-15843246D01*
X6972920Y-15843246D02*
X6982444Y-15795627D01*
X6982444Y-15795627D02*
X6991968Y-15767055D01*
X6991968Y-15767055D02*
X7001491Y-15748008D01*
X7001491Y-15748008D02*
X7020539Y-15719436D01*
X7020539Y-15719436D02*
X7030063Y-15709912D01*
X7211015Y-15938484D02*
X7096729Y-15938484D01*
X7153872Y-15938484D02*
X7153872Y-15738484D01*
X7153872Y-15738484D02*
X7134825Y-15767055D01*
X7134825Y-15767055D02*
X7115777Y-15786103D01*
X7115777Y-15786103D02*
X7096729Y-15795627D01*
X7382444Y-15738484D02*
X7344348Y-15738484D01*
X7344348Y-15738484D02*
X7325301Y-15748008D01*
X7325301Y-15748008D02*
X7315777Y-15757531D01*
X7315777Y-15757531D02*
X7296729Y-15786103D01*
X7296729Y-15786103D02*
X7287206Y-15824198D01*
X7287206Y-15824198D02*
X7287206Y-15900388D01*
X7287206Y-15900388D02*
X7296729Y-15919436D01*
X7296729Y-15919436D02*
X7306253Y-15928960D01*
X7306253Y-15928960D02*
X7325301Y-15938484D01*
X7325301Y-15938484D02*
X7363396Y-15938484D01*
X7363396Y-15938484D02*
X7382444Y-15928960D01*
X7382444Y-15928960D02*
X7391968Y-15919436D01*
X7391968Y-15919436D02*
X7401491Y-15900388D01*
X7401491Y-15900388D02*
X7401491Y-15852769D01*
X7401491Y-15852769D02*
X7391968Y-15833722D01*
X7391968Y-15833722D02*
X7382444Y-15824198D01*
X7382444Y-15824198D02*
X7363396Y-15814674D01*
X7363396Y-15814674D02*
X7325301Y-15814674D01*
X7325301Y-15814674D02*
X7306253Y-15824198D01*
X7306253Y-15824198D02*
X7296729Y-15833722D01*
X7296729Y-15833722D02*
X7287206Y-15852769D01*
X7639587Y-15938484D02*
X7639587Y-15738484D01*
X7725301Y-15938484D02*
X7725301Y-15833722D01*
X7725301Y-15833722D02*
X7715777Y-15814674D01*
X7715777Y-15814674D02*
X7696730Y-15805150D01*
X7696730Y-15805150D02*
X7668158Y-15805150D01*
X7668158Y-15805150D02*
X7649110Y-15814674D01*
X7649110Y-15814674D02*
X7639587Y-15824198D01*
X7849110Y-15938484D02*
X7830063Y-15928960D01*
X7830063Y-15928960D02*
X7820539Y-15919436D01*
X7820539Y-15919436D02*
X7811015Y-15900388D01*
X7811015Y-15900388D02*
X7811015Y-15843246D01*
X7811015Y-15843246D02*
X7820539Y-15824198D01*
X7820539Y-15824198D02*
X7830063Y-15814674D01*
X7830063Y-15814674D02*
X7849110Y-15805150D01*
X7849110Y-15805150D02*
X7877682Y-15805150D01*
X7877682Y-15805150D02*
X7896730Y-15814674D01*
X7896730Y-15814674D02*
X7906253Y-15824198D01*
X7906253Y-15824198D02*
X7915777Y-15843246D01*
X7915777Y-15843246D02*
X7915777Y-15900388D01*
X7915777Y-15900388D02*
X7906253Y-15919436D01*
X7906253Y-15919436D02*
X7896730Y-15928960D01*
X7896730Y-15928960D02*
X7877682Y-15938484D01*
X7877682Y-15938484D02*
X7849110Y-15938484D01*
X8030063Y-15938484D02*
X8011015Y-15928960D01*
X8011015Y-15928960D02*
X8001491Y-15909912D01*
X8001491Y-15909912D02*
X8001491Y-15738484D01*
X8182444Y-15928960D02*
X8163396Y-15938484D01*
X8163396Y-15938484D02*
X8125301Y-15938484D01*
X8125301Y-15938484D02*
X8106253Y-15928960D01*
X8106253Y-15928960D02*
X8096730Y-15909912D01*
X8096730Y-15909912D02*
X8096730Y-15833722D01*
X8096730Y-15833722D02*
X8106253Y-15814674D01*
X8106253Y-15814674D02*
X8125301Y-15805150D01*
X8125301Y-15805150D02*
X8163396Y-15805150D01*
X8163396Y-15805150D02*
X8182444Y-15814674D01*
X8182444Y-15814674D02*
X8191968Y-15833722D01*
X8191968Y-15833722D02*
X8191968Y-15852769D01*
X8191968Y-15852769D02*
X8096730Y-15871817D01*
X8268158Y-15928960D02*
X8287206Y-15938484D01*
X8287206Y-15938484D02*
X8325301Y-15938484D01*
X8325301Y-15938484D02*
X8344349Y-15928960D01*
X8344349Y-15928960D02*
X8353872Y-15909912D01*
X8353872Y-15909912D02*
X8353872Y-15900388D01*
X8353872Y-15900388D02*
X8344349Y-15881341D01*
X8344349Y-15881341D02*
X8325301Y-15871817D01*
X8325301Y-15871817D02*
X8296730Y-15871817D01*
X8296730Y-15871817D02*
X8277682Y-15862293D01*
X8277682Y-15862293D02*
X8268158Y-15843246D01*
X8268158Y-15843246D02*
X8268158Y-15833722D01*
X8268158Y-15833722D02*
X8277682Y-15814674D01*
X8277682Y-15814674D02*
X8296730Y-15805150D01*
X8296730Y-15805150D02*
X8325301Y-15805150D01*
X8325301Y-15805150D02*
X8344349Y-15814674D01*
X8420539Y-16014674D02*
X8430063Y-16005150D01*
X8430063Y-16005150D02*
X8449111Y-15976579D01*
X8449111Y-15976579D02*
X8458634Y-15957531D01*
X8458634Y-15957531D02*
X8468158Y-15928960D01*
X8468158Y-15928960D02*
X8477682Y-15881341D01*
X8477682Y-15881341D02*
X8477682Y-15843246D01*
X8477682Y-15843246D02*
X8468158Y-15795627D01*
X8468158Y-15795627D02*
X8458634Y-15767055D01*
X8458634Y-15767055D02*
X8449111Y-15748008D01*
X8449111Y-15748008D02*
X8430063Y-15719436D01*
X8430063Y-15719436D02*
X8420539Y-15709912D01*
D15*
X3404000Y-16162000D02*
X3455000Y-16111000D01*
X3404000Y-16060000D01*
X3353000Y-16111000D01*
X3404000Y-16162000D01*
D11*
X3820539Y-16202484D02*
X3706253Y-16202484D01*
X3763396Y-16202484D02*
X3763396Y-16002484D01*
X3763396Y-16002484D02*
X3744348Y-16031055D01*
X3744348Y-16031055D02*
X3725301Y-16050103D01*
X3725301Y-16050103D02*
X3706253Y-16059627D01*
X3906253Y-16183436D02*
X3915777Y-16192960D01*
X3915777Y-16192960D02*
X3906253Y-16202484D01*
X3906253Y-16202484D02*
X3896729Y-16192960D01*
X3896729Y-16192960D02*
X3906253Y-16183436D01*
X3906253Y-16183436D02*
X3906253Y-16202484D01*
X4039586Y-16002484D02*
X4058634Y-16002484D01*
X4058634Y-16002484D02*
X4077682Y-16012008D01*
X4077682Y-16012008D02*
X4087205Y-16021531D01*
X4087205Y-16021531D02*
X4096729Y-16040579D01*
X4096729Y-16040579D02*
X4106253Y-16078674D01*
X4106253Y-16078674D02*
X4106253Y-16126293D01*
X4106253Y-16126293D02*
X4096729Y-16164388D01*
X4096729Y-16164388D02*
X4087205Y-16183436D01*
X4087205Y-16183436D02*
X4077682Y-16192960D01*
X4077682Y-16192960D02*
X4058634Y-16202484D01*
X4058634Y-16202484D02*
X4039586Y-16202484D01*
X4039586Y-16202484D02*
X4020539Y-16192960D01*
X4020539Y-16192960D02*
X4011015Y-16183436D01*
X4011015Y-16183436D02*
X4001491Y-16164388D01*
X4001491Y-16164388D02*
X3991967Y-16126293D01*
X3991967Y-16126293D02*
X3991967Y-16078674D01*
X3991967Y-16078674D02*
X4001491Y-16040579D01*
X4001491Y-16040579D02*
X4011015Y-16021531D01*
X4011015Y-16021531D02*
X4020539Y-16012008D01*
X4020539Y-16012008D02*
X4039586Y-16002484D01*
X4182443Y-16021531D02*
X4191967Y-16012008D01*
X4191967Y-16012008D02*
X4211015Y-16002484D01*
X4211015Y-16002484D02*
X4258634Y-16002484D01*
X4258634Y-16002484D02*
X4277682Y-16012008D01*
X4277682Y-16012008D02*
X4287205Y-16021531D01*
X4287205Y-16021531D02*
X4296729Y-16040579D01*
X4296729Y-16040579D02*
X4296729Y-16059627D01*
X4296729Y-16059627D02*
X4287205Y-16088198D01*
X4287205Y-16088198D02*
X4172920Y-16202484D01*
X4172920Y-16202484D02*
X4296729Y-16202484D01*
X4420539Y-16002484D02*
X4439586Y-16002484D01*
X4439586Y-16002484D02*
X4458634Y-16012008D01*
X4458634Y-16012008D02*
X4468158Y-16021531D01*
X4468158Y-16021531D02*
X4477682Y-16040579D01*
X4477682Y-16040579D02*
X4487205Y-16078674D01*
X4487205Y-16078674D02*
X4487205Y-16126293D01*
X4487205Y-16126293D02*
X4477682Y-16164388D01*
X4477682Y-16164388D02*
X4468158Y-16183436D01*
X4468158Y-16183436D02*
X4458634Y-16192960D01*
X4458634Y-16192960D02*
X4439586Y-16202484D01*
X4439586Y-16202484D02*
X4420539Y-16202484D01*
X4420539Y-16202484D02*
X4401491Y-16192960D01*
X4401491Y-16192960D02*
X4391967Y-16183436D01*
X4391967Y-16183436D02*
X4382444Y-16164388D01*
X4382444Y-16164388D02*
X4372920Y-16126293D01*
X4372920Y-16126293D02*
X4372920Y-16078674D01*
X4372920Y-16078674D02*
X4382444Y-16040579D01*
X4382444Y-16040579D02*
X4391967Y-16021531D01*
X4391967Y-16021531D02*
X4401491Y-16012008D01*
X4401491Y-16012008D02*
X4420539Y-16002484D01*
X4572920Y-16202484D02*
X4572920Y-16069150D01*
X4572920Y-16088198D02*
X4582444Y-16078674D01*
X4582444Y-16078674D02*
X4601491Y-16069150D01*
X4601491Y-16069150D02*
X4630063Y-16069150D01*
X4630063Y-16069150D02*
X4649110Y-16078674D01*
X4649110Y-16078674D02*
X4658634Y-16097722D01*
X4658634Y-16097722D02*
X4658634Y-16202484D01*
X4658634Y-16097722D02*
X4668158Y-16078674D01*
X4668158Y-16078674D02*
X4687205Y-16069150D01*
X4687205Y-16069150D02*
X4715777Y-16069150D01*
X4715777Y-16069150D02*
X4734825Y-16078674D01*
X4734825Y-16078674D02*
X4744348Y-16097722D01*
X4744348Y-16097722D02*
X4744348Y-16202484D01*
X4839586Y-16202484D02*
X4839586Y-16069150D01*
X4839586Y-16088198D02*
X4849110Y-16078674D01*
X4849110Y-16078674D02*
X4868158Y-16069150D01*
X4868158Y-16069150D02*
X4896729Y-16069150D01*
X4896729Y-16069150D02*
X4915777Y-16078674D01*
X4915777Y-16078674D02*
X4925301Y-16097722D01*
X4925301Y-16097722D02*
X4925301Y-16202484D01*
X4925301Y-16097722D02*
X4934825Y-16078674D01*
X4934825Y-16078674D02*
X4953872Y-16069150D01*
X4953872Y-16069150D02*
X4982444Y-16069150D01*
X4982444Y-16069150D02*
X5001491Y-16078674D01*
X5001491Y-16078674D02*
X5011015Y-16097722D01*
X5011015Y-16097722D02*
X5011015Y-16202484D01*
X5401491Y-15992960D02*
X5230063Y-16250103D01*
X5658634Y-16002484D02*
X5677682Y-16002484D01*
X5677682Y-16002484D02*
X5696729Y-16012008D01*
X5696729Y-16012008D02*
X5706253Y-16021531D01*
X5706253Y-16021531D02*
X5715777Y-16040579D01*
X5715777Y-16040579D02*
X5725301Y-16078674D01*
X5725301Y-16078674D02*
X5725301Y-16126293D01*
X5725301Y-16126293D02*
X5715777Y-16164388D01*
X5715777Y-16164388D02*
X5706253Y-16183436D01*
X5706253Y-16183436D02*
X5696729Y-16192960D01*
X5696729Y-16192960D02*
X5677682Y-16202484D01*
X5677682Y-16202484D02*
X5658634Y-16202484D01*
X5658634Y-16202484D02*
X5639586Y-16192960D01*
X5639586Y-16192960D02*
X5630063Y-16183436D01*
X5630063Y-16183436D02*
X5620539Y-16164388D01*
X5620539Y-16164388D02*
X5611015Y-16126293D01*
X5611015Y-16126293D02*
X5611015Y-16078674D01*
X5611015Y-16078674D02*
X5620539Y-16040579D01*
X5620539Y-16040579D02*
X5630063Y-16021531D01*
X5630063Y-16021531D02*
X5639586Y-16012008D01*
X5639586Y-16012008D02*
X5658634Y-16002484D01*
X5811015Y-16183436D02*
X5820539Y-16192960D01*
X5820539Y-16192960D02*
X5811015Y-16202484D01*
X5811015Y-16202484D02*
X5801491Y-16192960D01*
X5801491Y-16192960D02*
X5811015Y-16183436D01*
X5811015Y-16183436D02*
X5811015Y-16202484D01*
X5944348Y-16002484D02*
X5963396Y-16002484D01*
X5963396Y-16002484D02*
X5982444Y-16012008D01*
X5982444Y-16012008D02*
X5991967Y-16021531D01*
X5991967Y-16021531D02*
X6001491Y-16040579D01*
X6001491Y-16040579D02*
X6011015Y-16078674D01*
X6011015Y-16078674D02*
X6011015Y-16126293D01*
X6011015Y-16126293D02*
X6001491Y-16164388D01*
X6001491Y-16164388D02*
X5991967Y-16183436D01*
X5991967Y-16183436D02*
X5982444Y-16192960D01*
X5982444Y-16192960D02*
X5963396Y-16202484D01*
X5963396Y-16202484D02*
X5944348Y-16202484D01*
X5944348Y-16202484D02*
X5925301Y-16192960D01*
X5925301Y-16192960D02*
X5915777Y-16183436D01*
X5915777Y-16183436D02*
X5906253Y-16164388D01*
X5906253Y-16164388D02*
X5896729Y-16126293D01*
X5896729Y-16126293D02*
X5896729Y-16078674D01*
X5896729Y-16078674D02*
X5906253Y-16040579D01*
X5906253Y-16040579D02*
X5915777Y-16021531D01*
X5915777Y-16021531D02*
X5925301Y-16012008D01*
X5925301Y-16012008D02*
X5944348Y-16002484D01*
X6182444Y-16069150D02*
X6182444Y-16202484D01*
X6134825Y-15992960D02*
X6087206Y-16135817D01*
X6087206Y-16135817D02*
X6211015Y-16135817D01*
X6325301Y-16002484D02*
X6344348Y-16002484D01*
X6344348Y-16002484D02*
X6363396Y-16012008D01*
X6363396Y-16012008D02*
X6372920Y-16021531D01*
X6372920Y-16021531D02*
X6382444Y-16040579D01*
X6382444Y-16040579D02*
X6391967Y-16078674D01*
X6391967Y-16078674D02*
X6391967Y-16126293D01*
X6391967Y-16126293D02*
X6382444Y-16164388D01*
X6382444Y-16164388D02*
X6372920Y-16183436D01*
X6372920Y-16183436D02*
X6363396Y-16192960D01*
X6363396Y-16192960D02*
X6344348Y-16202484D01*
X6344348Y-16202484D02*
X6325301Y-16202484D01*
X6325301Y-16202484D02*
X6306253Y-16192960D01*
X6306253Y-16192960D02*
X6296729Y-16183436D01*
X6296729Y-16183436D02*
X6287206Y-16164388D01*
X6287206Y-16164388D02*
X6277682Y-16126293D01*
X6277682Y-16126293D02*
X6277682Y-16078674D01*
X6277682Y-16078674D02*
X6287206Y-16040579D01*
X6287206Y-16040579D02*
X6296729Y-16021531D01*
X6296729Y-16021531D02*
X6306253Y-16012008D01*
X6306253Y-16012008D02*
X6325301Y-16002484D01*
X6468158Y-16021531D02*
X6477682Y-16012008D01*
X6477682Y-16012008D02*
X6496729Y-16002484D01*
X6496729Y-16002484D02*
X6544348Y-16002484D01*
X6544348Y-16002484D02*
X6563396Y-16012008D01*
X6563396Y-16012008D02*
X6572920Y-16021531D01*
X6572920Y-16021531D02*
X6582444Y-16040579D01*
X6582444Y-16040579D02*
X6582444Y-16059627D01*
X6582444Y-16059627D02*
X6572920Y-16088198D01*
X6572920Y-16088198D02*
X6458634Y-16202484D01*
X6458634Y-16202484D02*
X6582444Y-16202484D01*
X6658634Y-16002484D02*
X6658634Y-16040579D01*
X6734825Y-16002484D02*
X6734825Y-16040579D01*
X7030063Y-16278674D02*
X7020539Y-16269150D01*
X7020539Y-16269150D02*
X7001491Y-16240579D01*
X7001491Y-16240579D02*
X6991968Y-16221531D01*
X6991968Y-16221531D02*
X6982444Y-16192960D01*
X6982444Y-16192960D02*
X6972920Y-16145341D01*
X6972920Y-16145341D02*
X6972920Y-16107246D01*
X6972920Y-16107246D02*
X6982444Y-16059627D01*
X6982444Y-16059627D02*
X6991968Y-16031055D01*
X6991968Y-16031055D02*
X7001491Y-16012008D01*
X7001491Y-16012008D02*
X7020539Y-15983436D01*
X7020539Y-15983436D02*
X7030063Y-15973912D01*
X7087206Y-16002484D02*
X7211015Y-16002484D01*
X7211015Y-16002484D02*
X7144348Y-16078674D01*
X7144348Y-16078674D02*
X7172920Y-16078674D01*
X7172920Y-16078674D02*
X7191968Y-16088198D01*
X7191968Y-16088198D02*
X7201491Y-16097722D01*
X7201491Y-16097722D02*
X7211015Y-16116769D01*
X7211015Y-16116769D02*
X7211015Y-16164388D01*
X7211015Y-16164388D02*
X7201491Y-16183436D01*
X7201491Y-16183436D02*
X7191968Y-16192960D01*
X7191968Y-16192960D02*
X7172920Y-16202484D01*
X7172920Y-16202484D02*
X7115777Y-16202484D01*
X7115777Y-16202484D02*
X7096729Y-16192960D01*
X7096729Y-16192960D02*
X7087206Y-16183436D01*
X7334825Y-16002484D02*
X7353872Y-16002484D01*
X7353872Y-16002484D02*
X7372920Y-16012008D01*
X7372920Y-16012008D02*
X7382444Y-16021531D01*
X7382444Y-16021531D02*
X7391968Y-16040579D01*
X7391968Y-16040579D02*
X7401491Y-16078674D01*
X7401491Y-16078674D02*
X7401491Y-16126293D01*
X7401491Y-16126293D02*
X7391968Y-16164388D01*
X7391968Y-16164388D02*
X7382444Y-16183436D01*
X7382444Y-16183436D02*
X7372920Y-16192960D01*
X7372920Y-16192960D02*
X7353872Y-16202484D01*
X7353872Y-16202484D02*
X7334825Y-16202484D01*
X7334825Y-16202484D02*
X7315777Y-16192960D01*
X7315777Y-16192960D02*
X7306253Y-16183436D01*
X7306253Y-16183436D02*
X7296729Y-16164388D01*
X7296729Y-16164388D02*
X7287206Y-16126293D01*
X7287206Y-16126293D02*
X7287206Y-16078674D01*
X7287206Y-16078674D02*
X7296729Y-16040579D01*
X7296729Y-16040579D02*
X7306253Y-16021531D01*
X7306253Y-16021531D02*
X7315777Y-16012008D01*
X7315777Y-16012008D02*
X7334825Y-16002484D01*
X7639587Y-16202484D02*
X7639587Y-16002484D01*
X7725301Y-16202484D02*
X7725301Y-16097722D01*
X7725301Y-16097722D02*
X7715777Y-16078674D01*
X7715777Y-16078674D02*
X7696730Y-16069150D01*
X7696730Y-16069150D02*
X7668158Y-16069150D01*
X7668158Y-16069150D02*
X7649110Y-16078674D01*
X7649110Y-16078674D02*
X7639587Y-16088198D01*
X7849110Y-16202484D02*
X7830063Y-16192960D01*
X7830063Y-16192960D02*
X7820539Y-16183436D01*
X7820539Y-16183436D02*
X7811015Y-16164388D01*
X7811015Y-16164388D02*
X7811015Y-16107246D01*
X7811015Y-16107246D02*
X7820539Y-16088198D01*
X7820539Y-16088198D02*
X7830063Y-16078674D01*
X7830063Y-16078674D02*
X7849110Y-16069150D01*
X7849110Y-16069150D02*
X7877682Y-16069150D01*
X7877682Y-16069150D02*
X7896730Y-16078674D01*
X7896730Y-16078674D02*
X7906253Y-16088198D01*
X7906253Y-16088198D02*
X7915777Y-16107246D01*
X7915777Y-16107246D02*
X7915777Y-16164388D01*
X7915777Y-16164388D02*
X7906253Y-16183436D01*
X7906253Y-16183436D02*
X7896730Y-16192960D01*
X7896730Y-16192960D02*
X7877682Y-16202484D01*
X7877682Y-16202484D02*
X7849110Y-16202484D01*
X8030063Y-16202484D02*
X8011015Y-16192960D01*
X8011015Y-16192960D02*
X8001491Y-16173912D01*
X8001491Y-16173912D02*
X8001491Y-16002484D01*
X8182444Y-16192960D02*
X8163396Y-16202484D01*
X8163396Y-16202484D02*
X8125301Y-16202484D01*
X8125301Y-16202484D02*
X8106253Y-16192960D01*
X8106253Y-16192960D02*
X8096730Y-16173912D01*
X8096730Y-16173912D02*
X8096730Y-16097722D01*
X8096730Y-16097722D02*
X8106253Y-16078674D01*
X8106253Y-16078674D02*
X8125301Y-16069150D01*
X8125301Y-16069150D02*
X8163396Y-16069150D01*
X8163396Y-16069150D02*
X8182444Y-16078674D01*
X8182444Y-16078674D02*
X8191968Y-16097722D01*
X8191968Y-16097722D02*
X8191968Y-16116769D01*
X8191968Y-16116769D02*
X8096730Y-16135817D01*
X8268158Y-16192960D02*
X8287206Y-16202484D01*
X8287206Y-16202484D02*
X8325301Y-16202484D01*
X8325301Y-16202484D02*
X8344349Y-16192960D01*
X8344349Y-16192960D02*
X8353872Y-16173912D01*
X8353872Y-16173912D02*
X8353872Y-16164388D01*
X8353872Y-16164388D02*
X8344349Y-16145341D01*
X8344349Y-16145341D02*
X8325301Y-16135817D01*
X8325301Y-16135817D02*
X8296730Y-16135817D01*
X8296730Y-16135817D02*
X8277682Y-16126293D01*
X8277682Y-16126293D02*
X8268158Y-16107246D01*
X8268158Y-16107246D02*
X8268158Y-16097722D01*
X8268158Y-16097722D02*
X8277682Y-16078674D01*
X8277682Y-16078674D02*
X8296730Y-16069150D01*
X8296730Y-16069150D02*
X8325301Y-16069150D01*
X8325301Y-16069150D02*
X8344349Y-16078674D01*
X8420539Y-16278674D02*
X8430063Y-16269150D01*
X8430063Y-16269150D02*
X8449111Y-16240579D01*
X8449111Y-16240579D02*
X8458634Y-16221531D01*
X8458634Y-16221531D02*
X8468158Y-16192960D01*
X8468158Y-16192960D02*
X8477682Y-16145341D01*
X8477682Y-16145341D02*
X8477682Y-16107246D01*
X8477682Y-16107246D02*
X8468158Y-16059627D01*
X8468158Y-16059627D02*
X8458634Y-16031055D01*
X8458634Y-16031055D02*
X8449111Y-16012008D01*
X8449111Y-16012008D02*
X8430063Y-15983436D01*
X8430063Y-15983436D02*
X8420539Y-15973912D01*
D16*
X3345000Y-16320000D02*
X3455000Y-16430000D01*
X3455000Y-16320000D02*
X3345000Y-16430000D01*
X3455000Y-16375000D02*
G75*
G03*
X3455000Y-16375000I-55000J0D01*
G01*
D11*
X3820539Y-16466484D02*
X3706253Y-16466484D01*
X3763396Y-16466484D02*
X3763396Y-16266484D01*
X3763396Y-16266484D02*
X3744348Y-16295055D01*
X3744348Y-16295055D02*
X3725301Y-16314103D01*
X3725301Y-16314103D02*
X3706253Y-16323627D01*
X3906253Y-16447436D02*
X3915777Y-16456960D01*
X3915777Y-16456960D02*
X3906253Y-16466484D01*
X3906253Y-16466484D02*
X3896729Y-16456960D01*
X3896729Y-16456960D02*
X3906253Y-16447436D01*
X3906253Y-16447436D02*
X3906253Y-16466484D01*
X4106253Y-16466484D02*
X3991967Y-16466484D01*
X4049110Y-16466484D02*
X4049110Y-16266484D01*
X4049110Y-16266484D02*
X4030062Y-16295055D01*
X4030062Y-16295055D02*
X4011015Y-16314103D01*
X4011015Y-16314103D02*
X3991967Y-16323627D01*
X4230063Y-16266484D02*
X4249110Y-16266484D01*
X4249110Y-16266484D02*
X4268158Y-16276008D01*
X4268158Y-16276008D02*
X4277682Y-16285531D01*
X4277682Y-16285531D02*
X4287205Y-16304579D01*
X4287205Y-16304579D02*
X4296729Y-16342674D01*
X4296729Y-16342674D02*
X4296729Y-16390293D01*
X4296729Y-16390293D02*
X4287205Y-16428388D01*
X4287205Y-16428388D02*
X4277682Y-16447436D01*
X4277682Y-16447436D02*
X4268158Y-16456960D01*
X4268158Y-16456960D02*
X4249110Y-16466484D01*
X4249110Y-16466484D02*
X4230063Y-16466484D01*
X4230063Y-16466484D02*
X4211015Y-16456960D01*
X4211015Y-16456960D02*
X4201491Y-16447436D01*
X4201491Y-16447436D02*
X4191967Y-16428388D01*
X4191967Y-16428388D02*
X4182443Y-16390293D01*
X4182443Y-16390293D02*
X4182443Y-16342674D01*
X4182443Y-16342674D02*
X4191967Y-16304579D01*
X4191967Y-16304579D02*
X4201491Y-16285531D01*
X4201491Y-16285531D02*
X4211015Y-16276008D01*
X4211015Y-16276008D02*
X4230063Y-16266484D01*
X4420539Y-16266484D02*
X4439586Y-16266484D01*
X4439586Y-16266484D02*
X4458634Y-16276008D01*
X4458634Y-16276008D02*
X4468158Y-16285531D01*
X4468158Y-16285531D02*
X4477682Y-16304579D01*
X4477682Y-16304579D02*
X4487205Y-16342674D01*
X4487205Y-16342674D02*
X4487205Y-16390293D01*
X4487205Y-16390293D02*
X4477682Y-16428388D01*
X4477682Y-16428388D02*
X4468158Y-16447436D01*
X4468158Y-16447436D02*
X4458634Y-16456960D01*
X4458634Y-16456960D02*
X4439586Y-16466484D01*
X4439586Y-16466484D02*
X4420539Y-16466484D01*
X4420539Y-16466484D02*
X4401491Y-16456960D01*
X4401491Y-16456960D02*
X4391967Y-16447436D01*
X4391967Y-16447436D02*
X4382444Y-16428388D01*
X4382444Y-16428388D02*
X4372920Y-16390293D01*
X4372920Y-16390293D02*
X4372920Y-16342674D01*
X4372920Y-16342674D02*
X4382444Y-16304579D01*
X4382444Y-16304579D02*
X4391967Y-16285531D01*
X4391967Y-16285531D02*
X4401491Y-16276008D01*
X4401491Y-16276008D02*
X4420539Y-16266484D01*
X4572920Y-16466484D02*
X4572920Y-16333150D01*
X4572920Y-16352198D02*
X4582444Y-16342674D01*
X4582444Y-16342674D02*
X4601491Y-16333150D01*
X4601491Y-16333150D02*
X4630063Y-16333150D01*
X4630063Y-16333150D02*
X4649110Y-16342674D01*
X4649110Y-16342674D02*
X4658634Y-16361722D01*
X4658634Y-16361722D02*
X4658634Y-16466484D01*
X4658634Y-16361722D02*
X4668158Y-16342674D01*
X4668158Y-16342674D02*
X4687205Y-16333150D01*
X4687205Y-16333150D02*
X4715777Y-16333150D01*
X4715777Y-16333150D02*
X4734825Y-16342674D01*
X4734825Y-16342674D02*
X4744348Y-16361722D01*
X4744348Y-16361722D02*
X4744348Y-16466484D01*
X4839586Y-16466484D02*
X4839586Y-16333150D01*
X4839586Y-16352198D02*
X4849110Y-16342674D01*
X4849110Y-16342674D02*
X4868158Y-16333150D01*
X4868158Y-16333150D02*
X4896729Y-16333150D01*
X4896729Y-16333150D02*
X4915777Y-16342674D01*
X4915777Y-16342674D02*
X4925301Y-16361722D01*
X4925301Y-16361722D02*
X4925301Y-16466484D01*
X4925301Y-16361722D02*
X4934825Y-16342674D01*
X4934825Y-16342674D02*
X4953872Y-16333150D01*
X4953872Y-16333150D02*
X4982444Y-16333150D01*
X4982444Y-16333150D02*
X5001491Y-16342674D01*
X5001491Y-16342674D02*
X5011015Y-16361722D01*
X5011015Y-16361722D02*
X5011015Y-16466484D01*
X5401491Y-16256960D02*
X5230063Y-16514103D01*
X5658634Y-16266484D02*
X5677682Y-16266484D01*
X5677682Y-16266484D02*
X5696729Y-16276008D01*
X5696729Y-16276008D02*
X5706253Y-16285531D01*
X5706253Y-16285531D02*
X5715777Y-16304579D01*
X5715777Y-16304579D02*
X5725301Y-16342674D01*
X5725301Y-16342674D02*
X5725301Y-16390293D01*
X5725301Y-16390293D02*
X5715777Y-16428388D01*
X5715777Y-16428388D02*
X5706253Y-16447436D01*
X5706253Y-16447436D02*
X5696729Y-16456960D01*
X5696729Y-16456960D02*
X5677682Y-16466484D01*
X5677682Y-16466484D02*
X5658634Y-16466484D01*
X5658634Y-16466484D02*
X5639586Y-16456960D01*
X5639586Y-16456960D02*
X5630063Y-16447436D01*
X5630063Y-16447436D02*
X5620539Y-16428388D01*
X5620539Y-16428388D02*
X5611015Y-16390293D01*
X5611015Y-16390293D02*
X5611015Y-16342674D01*
X5611015Y-16342674D02*
X5620539Y-16304579D01*
X5620539Y-16304579D02*
X5630063Y-16285531D01*
X5630063Y-16285531D02*
X5639586Y-16276008D01*
X5639586Y-16276008D02*
X5658634Y-16266484D01*
X5811015Y-16447436D02*
X5820539Y-16456960D01*
X5820539Y-16456960D02*
X5811015Y-16466484D01*
X5811015Y-16466484D02*
X5801491Y-16456960D01*
X5801491Y-16456960D02*
X5811015Y-16447436D01*
X5811015Y-16447436D02*
X5811015Y-16466484D01*
X5944348Y-16266484D02*
X5963396Y-16266484D01*
X5963396Y-16266484D02*
X5982444Y-16276008D01*
X5982444Y-16276008D02*
X5991967Y-16285531D01*
X5991967Y-16285531D02*
X6001491Y-16304579D01*
X6001491Y-16304579D02*
X6011015Y-16342674D01*
X6011015Y-16342674D02*
X6011015Y-16390293D01*
X6011015Y-16390293D02*
X6001491Y-16428388D01*
X6001491Y-16428388D02*
X5991967Y-16447436D01*
X5991967Y-16447436D02*
X5982444Y-16456960D01*
X5982444Y-16456960D02*
X5963396Y-16466484D01*
X5963396Y-16466484D02*
X5944348Y-16466484D01*
X5944348Y-16466484D02*
X5925301Y-16456960D01*
X5925301Y-16456960D02*
X5915777Y-16447436D01*
X5915777Y-16447436D02*
X5906253Y-16428388D01*
X5906253Y-16428388D02*
X5896729Y-16390293D01*
X5896729Y-16390293D02*
X5896729Y-16342674D01*
X5896729Y-16342674D02*
X5906253Y-16304579D01*
X5906253Y-16304579D02*
X5915777Y-16285531D01*
X5915777Y-16285531D02*
X5925301Y-16276008D01*
X5925301Y-16276008D02*
X5944348Y-16266484D01*
X6182444Y-16333150D02*
X6182444Y-16466484D01*
X6134825Y-16256960D02*
X6087206Y-16399817D01*
X6087206Y-16399817D02*
X6211015Y-16399817D01*
X6268158Y-16266484D02*
X6391967Y-16266484D01*
X6391967Y-16266484D02*
X6325301Y-16342674D01*
X6325301Y-16342674D02*
X6353872Y-16342674D01*
X6353872Y-16342674D02*
X6372920Y-16352198D01*
X6372920Y-16352198D02*
X6382444Y-16361722D01*
X6382444Y-16361722D02*
X6391967Y-16380769D01*
X6391967Y-16380769D02*
X6391967Y-16428388D01*
X6391967Y-16428388D02*
X6382444Y-16447436D01*
X6382444Y-16447436D02*
X6372920Y-16456960D01*
X6372920Y-16456960D02*
X6353872Y-16466484D01*
X6353872Y-16466484D02*
X6296729Y-16466484D01*
X6296729Y-16466484D02*
X6277682Y-16456960D01*
X6277682Y-16456960D02*
X6268158Y-16447436D01*
X6458634Y-16266484D02*
X6582444Y-16266484D01*
X6582444Y-16266484D02*
X6515777Y-16342674D01*
X6515777Y-16342674D02*
X6544348Y-16342674D01*
X6544348Y-16342674D02*
X6563396Y-16352198D01*
X6563396Y-16352198D02*
X6572920Y-16361722D01*
X6572920Y-16361722D02*
X6582444Y-16380769D01*
X6582444Y-16380769D02*
X6582444Y-16428388D01*
X6582444Y-16428388D02*
X6572920Y-16447436D01*
X6572920Y-16447436D02*
X6563396Y-16456960D01*
X6563396Y-16456960D02*
X6544348Y-16466484D01*
X6544348Y-16466484D02*
X6487206Y-16466484D01*
X6487206Y-16466484D02*
X6468158Y-16456960D01*
X6468158Y-16456960D02*
X6458634Y-16447436D01*
X6658634Y-16266484D02*
X6658634Y-16304579D01*
X6734825Y-16266484D02*
X6734825Y-16304579D01*
X7030063Y-16542674D02*
X7020539Y-16533150D01*
X7020539Y-16533150D02*
X7001491Y-16504579D01*
X7001491Y-16504579D02*
X6991968Y-16485531D01*
X6991968Y-16485531D02*
X6982444Y-16456960D01*
X6982444Y-16456960D02*
X6972920Y-16409341D01*
X6972920Y-16409341D02*
X6972920Y-16371246D01*
X6972920Y-16371246D02*
X6982444Y-16323627D01*
X6982444Y-16323627D02*
X6991968Y-16295055D01*
X6991968Y-16295055D02*
X7001491Y-16276008D01*
X7001491Y-16276008D02*
X7020539Y-16247436D01*
X7020539Y-16247436D02*
X7030063Y-16237912D01*
X7096729Y-16285531D02*
X7106253Y-16276008D01*
X7106253Y-16276008D02*
X7125301Y-16266484D01*
X7125301Y-16266484D02*
X7172920Y-16266484D01*
X7172920Y-16266484D02*
X7191968Y-16276008D01*
X7191968Y-16276008D02*
X7201491Y-16285531D01*
X7201491Y-16285531D02*
X7211015Y-16304579D01*
X7211015Y-16304579D02*
X7211015Y-16323627D01*
X7211015Y-16323627D02*
X7201491Y-16352198D01*
X7201491Y-16352198D02*
X7087206Y-16466484D01*
X7087206Y-16466484D02*
X7211015Y-16466484D01*
X7449110Y-16466484D02*
X7449110Y-16266484D01*
X7534825Y-16466484D02*
X7534825Y-16361722D01*
X7534825Y-16361722D02*
X7525301Y-16342674D01*
X7525301Y-16342674D02*
X7506253Y-16333150D01*
X7506253Y-16333150D02*
X7477682Y-16333150D01*
X7477682Y-16333150D02*
X7458634Y-16342674D01*
X7458634Y-16342674D02*
X7449110Y-16352198D01*
X7658634Y-16466484D02*
X7639587Y-16456960D01*
X7639587Y-16456960D02*
X7630063Y-16447436D01*
X7630063Y-16447436D02*
X7620539Y-16428388D01*
X7620539Y-16428388D02*
X7620539Y-16371246D01*
X7620539Y-16371246D02*
X7630063Y-16352198D01*
X7630063Y-16352198D02*
X7639587Y-16342674D01*
X7639587Y-16342674D02*
X7658634Y-16333150D01*
X7658634Y-16333150D02*
X7687206Y-16333150D01*
X7687206Y-16333150D02*
X7706253Y-16342674D01*
X7706253Y-16342674D02*
X7715777Y-16352198D01*
X7715777Y-16352198D02*
X7725301Y-16371246D01*
X7725301Y-16371246D02*
X7725301Y-16428388D01*
X7725301Y-16428388D02*
X7715777Y-16447436D01*
X7715777Y-16447436D02*
X7706253Y-16456960D01*
X7706253Y-16456960D02*
X7687206Y-16466484D01*
X7687206Y-16466484D02*
X7658634Y-16466484D01*
X7839587Y-16466484D02*
X7820539Y-16456960D01*
X7820539Y-16456960D02*
X7811015Y-16437912D01*
X7811015Y-16437912D02*
X7811015Y-16266484D01*
X7991968Y-16456960D02*
X7972920Y-16466484D01*
X7972920Y-16466484D02*
X7934825Y-16466484D01*
X7934825Y-16466484D02*
X7915777Y-16456960D01*
X7915777Y-16456960D02*
X7906253Y-16437912D01*
X7906253Y-16437912D02*
X7906253Y-16361722D01*
X7906253Y-16361722D02*
X7915777Y-16342674D01*
X7915777Y-16342674D02*
X7934825Y-16333150D01*
X7934825Y-16333150D02*
X7972920Y-16333150D01*
X7972920Y-16333150D02*
X7991968Y-16342674D01*
X7991968Y-16342674D02*
X8001491Y-16361722D01*
X8001491Y-16361722D02*
X8001491Y-16380769D01*
X8001491Y-16380769D02*
X7906253Y-16399817D01*
X8077682Y-16456960D02*
X8096730Y-16466484D01*
X8096730Y-16466484D02*
X8134825Y-16466484D01*
X8134825Y-16466484D02*
X8153872Y-16456960D01*
X8153872Y-16456960D02*
X8163396Y-16437912D01*
X8163396Y-16437912D02*
X8163396Y-16428388D01*
X8163396Y-16428388D02*
X8153872Y-16409341D01*
X8153872Y-16409341D02*
X8134825Y-16399817D01*
X8134825Y-16399817D02*
X8106253Y-16399817D01*
X8106253Y-16399817D02*
X8087206Y-16390293D01*
X8087206Y-16390293D02*
X8077682Y-16371246D01*
X8077682Y-16371246D02*
X8077682Y-16361722D01*
X8077682Y-16361722D02*
X8087206Y-16342674D01*
X8087206Y-16342674D02*
X8106253Y-16333150D01*
X8106253Y-16333150D02*
X8134825Y-16333150D01*
X8134825Y-16333150D02*
X8153872Y-16342674D01*
X8230063Y-16542674D02*
X8239587Y-16533150D01*
X8239587Y-16533150D02*
X8258634Y-16504579D01*
X8258634Y-16504579D02*
X8268158Y-16485531D01*
X8268158Y-16485531D02*
X8277682Y-16456960D01*
X8277682Y-16456960D02*
X8287206Y-16409341D01*
X8287206Y-16409341D02*
X8287206Y-16371246D01*
X8287206Y-16371246D02*
X8277682Y-16323627D01*
X8277682Y-16323627D02*
X8268158Y-16295055D01*
X8268158Y-16295055D02*
X8258634Y-16276008D01*
X8258634Y-16276008D02*
X8239587Y-16247436D01*
X8239587Y-16247436D02*
X8230063Y-16237912D01*
D17*
X3335000Y-16579000D02*
X3455000Y-16699000D01*
X3455000Y-16579000D02*
X3335000Y-16699000D01*
X3395000Y-16579000D02*
X3395000Y-16699000D01*
X3335000Y-16639000D02*
X3455000Y-16639000D01*
D11*
X3820539Y-16730484D02*
X3706253Y-16730484D01*
X3763396Y-16730484D02*
X3763396Y-16530484D01*
X3763396Y-16530484D02*
X3744348Y-16559055D01*
X3744348Y-16559055D02*
X3725301Y-16578103D01*
X3725301Y-16578103D02*
X3706253Y-16587627D01*
X3906253Y-16711436D02*
X3915777Y-16720960D01*
X3915777Y-16720960D02*
X3906253Y-16730484D01*
X3906253Y-16730484D02*
X3896729Y-16720960D01*
X3896729Y-16720960D02*
X3906253Y-16711436D01*
X3906253Y-16711436D02*
X3906253Y-16730484D01*
X3991967Y-16549531D02*
X4001491Y-16540008D01*
X4001491Y-16540008D02*
X4020539Y-16530484D01*
X4020539Y-16530484D02*
X4068158Y-16530484D01*
X4068158Y-16530484D02*
X4087205Y-16540008D01*
X4087205Y-16540008D02*
X4096729Y-16549531D01*
X4096729Y-16549531D02*
X4106253Y-16568579D01*
X4106253Y-16568579D02*
X4106253Y-16587627D01*
X4106253Y-16587627D02*
X4096729Y-16616198D01*
X4096729Y-16616198D02*
X3982443Y-16730484D01*
X3982443Y-16730484D02*
X4106253Y-16730484D01*
X4230063Y-16530484D02*
X4249110Y-16530484D01*
X4249110Y-16530484D02*
X4268158Y-16540008D01*
X4268158Y-16540008D02*
X4277682Y-16549531D01*
X4277682Y-16549531D02*
X4287205Y-16568579D01*
X4287205Y-16568579D02*
X4296729Y-16606674D01*
X4296729Y-16606674D02*
X4296729Y-16654293D01*
X4296729Y-16654293D02*
X4287205Y-16692388D01*
X4287205Y-16692388D02*
X4277682Y-16711436D01*
X4277682Y-16711436D02*
X4268158Y-16720960D01*
X4268158Y-16720960D02*
X4249110Y-16730484D01*
X4249110Y-16730484D02*
X4230063Y-16730484D01*
X4230063Y-16730484D02*
X4211015Y-16720960D01*
X4211015Y-16720960D02*
X4201491Y-16711436D01*
X4201491Y-16711436D02*
X4191967Y-16692388D01*
X4191967Y-16692388D02*
X4182443Y-16654293D01*
X4182443Y-16654293D02*
X4182443Y-16606674D01*
X4182443Y-16606674D02*
X4191967Y-16568579D01*
X4191967Y-16568579D02*
X4201491Y-16549531D01*
X4201491Y-16549531D02*
X4211015Y-16540008D01*
X4211015Y-16540008D02*
X4230063Y-16530484D01*
X4420539Y-16530484D02*
X4439586Y-16530484D01*
X4439586Y-16530484D02*
X4458634Y-16540008D01*
X4458634Y-16540008D02*
X4468158Y-16549531D01*
X4468158Y-16549531D02*
X4477682Y-16568579D01*
X4477682Y-16568579D02*
X4487205Y-16606674D01*
X4487205Y-16606674D02*
X4487205Y-16654293D01*
X4487205Y-16654293D02*
X4477682Y-16692388D01*
X4477682Y-16692388D02*
X4468158Y-16711436D01*
X4468158Y-16711436D02*
X4458634Y-16720960D01*
X4458634Y-16720960D02*
X4439586Y-16730484D01*
X4439586Y-16730484D02*
X4420539Y-16730484D01*
X4420539Y-16730484D02*
X4401491Y-16720960D01*
X4401491Y-16720960D02*
X4391967Y-16711436D01*
X4391967Y-16711436D02*
X4382444Y-16692388D01*
X4382444Y-16692388D02*
X4372920Y-16654293D01*
X4372920Y-16654293D02*
X4372920Y-16606674D01*
X4372920Y-16606674D02*
X4382444Y-16568579D01*
X4382444Y-16568579D02*
X4391967Y-16549531D01*
X4391967Y-16549531D02*
X4401491Y-16540008D01*
X4401491Y-16540008D02*
X4420539Y-16530484D01*
X4572920Y-16730484D02*
X4572920Y-16597150D01*
X4572920Y-16616198D02*
X4582444Y-16606674D01*
X4582444Y-16606674D02*
X4601491Y-16597150D01*
X4601491Y-16597150D02*
X4630063Y-16597150D01*
X4630063Y-16597150D02*
X4649110Y-16606674D01*
X4649110Y-16606674D02*
X4658634Y-16625722D01*
X4658634Y-16625722D02*
X4658634Y-16730484D01*
X4658634Y-16625722D02*
X4668158Y-16606674D01*
X4668158Y-16606674D02*
X4687205Y-16597150D01*
X4687205Y-16597150D02*
X4715777Y-16597150D01*
X4715777Y-16597150D02*
X4734825Y-16606674D01*
X4734825Y-16606674D02*
X4744348Y-16625722D01*
X4744348Y-16625722D02*
X4744348Y-16730484D01*
X4839586Y-16730484D02*
X4839586Y-16597150D01*
X4839586Y-16616198D02*
X4849110Y-16606674D01*
X4849110Y-16606674D02*
X4868158Y-16597150D01*
X4868158Y-16597150D02*
X4896729Y-16597150D01*
X4896729Y-16597150D02*
X4915777Y-16606674D01*
X4915777Y-16606674D02*
X4925301Y-16625722D01*
X4925301Y-16625722D02*
X4925301Y-16730484D01*
X4925301Y-16625722D02*
X4934825Y-16606674D01*
X4934825Y-16606674D02*
X4953872Y-16597150D01*
X4953872Y-16597150D02*
X4982444Y-16597150D01*
X4982444Y-16597150D02*
X5001491Y-16606674D01*
X5001491Y-16606674D02*
X5011015Y-16625722D01*
X5011015Y-16625722D02*
X5011015Y-16730484D01*
X5401491Y-16520960D02*
X5230063Y-16778103D01*
X5658634Y-16530484D02*
X5677682Y-16530484D01*
X5677682Y-16530484D02*
X5696729Y-16540008D01*
X5696729Y-16540008D02*
X5706253Y-16549531D01*
X5706253Y-16549531D02*
X5715777Y-16568579D01*
X5715777Y-16568579D02*
X5725301Y-16606674D01*
X5725301Y-16606674D02*
X5725301Y-16654293D01*
X5725301Y-16654293D02*
X5715777Y-16692388D01*
X5715777Y-16692388D02*
X5706253Y-16711436D01*
X5706253Y-16711436D02*
X5696729Y-16720960D01*
X5696729Y-16720960D02*
X5677682Y-16730484D01*
X5677682Y-16730484D02*
X5658634Y-16730484D01*
X5658634Y-16730484D02*
X5639586Y-16720960D01*
X5639586Y-16720960D02*
X5630063Y-16711436D01*
X5630063Y-16711436D02*
X5620539Y-16692388D01*
X5620539Y-16692388D02*
X5611015Y-16654293D01*
X5611015Y-16654293D02*
X5611015Y-16606674D01*
X5611015Y-16606674D02*
X5620539Y-16568579D01*
X5620539Y-16568579D02*
X5630063Y-16549531D01*
X5630063Y-16549531D02*
X5639586Y-16540008D01*
X5639586Y-16540008D02*
X5658634Y-16530484D01*
X5811015Y-16711436D02*
X5820539Y-16720960D01*
X5820539Y-16720960D02*
X5811015Y-16730484D01*
X5811015Y-16730484D02*
X5801491Y-16720960D01*
X5801491Y-16720960D02*
X5811015Y-16711436D01*
X5811015Y-16711436D02*
X5811015Y-16730484D01*
X5944348Y-16530484D02*
X5963396Y-16530484D01*
X5963396Y-16530484D02*
X5982444Y-16540008D01*
X5982444Y-16540008D02*
X5991967Y-16549531D01*
X5991967Y-16549531D02*
X6001491Y-16568579D01*
X6001491Y-16568579D02*
X6011015Y-16606674D01*
X6011015Y-16606674D02*
X6011015Y-16654293D01*
X6011015Y-16654293D02*
X6001491Y-16692388D01*
X6001491Y-16692388D02*
X5991967Y-16711436D01*
X5991967Y-16711436D02*
X5982444Y-16720960D01*
X5982444Y-16720960D02*
X5963396Y-16730484D01*
X5963396Y-16730484D02*
X5944348Y-16730484D01*
X5944348Y-16730484D02*
X5925301Y-16720960D01*
X5925301Y-16720960D02*
X5915777Y-16711436D01*
X5915777Y-16711436D02*
X5906253Y-16692388D01*
X5906253Y-16692388D02*
X5896729Y-16654293D01*
X5896729Y-16654293D02*
X5896729Y-16606674D01*
X5896729Y-16606674D02*
X5906253Y-16568579D01*
X5906253Y-16568579D02*
X5915777Y-16549531D01*
X5915777Y-16549531D02*
X5925301Y-16540008D01*
X5925301Y-16540008D02*
X5944348Y-16530484D01*
X6182444Y-16597150D02*
X6182444Y-16730484D01*
X6134825Y-16520960D02*
X6087206Y-16663817D01*
X6087206Y-16663817D02*
X6211015Y-16663817D01*
X6268158Y-16530484D02*
X6401491Y-16530484D01*
X6401491Y-16530484D02*
X6315777Y-16730484D01*
X6468158Y-16549531D02*
X6477682Y-16540008D01*
X6477682Y-16540008D02*
X6496729Y-16530484D01*
X6496729Y-16530484D02*
X6544348Y-16530484D01*
X6544348Y-16530484D02*
X6563396Y-16540008D01*
X6563396Y-16540008D02*
X6572920Y-16549531D01*
X6572920Y-16549531D02*
X6582444Y-16568579D01*
X6582444Y-16568579D02*
X6582444Y-16587627D01*
X6582444Y-16587627D02*
X6572920Y-16616198D01*
X6572920Y-16616198D02*
X6458634Y-16730484D01*
X6458634Y-16730484D02*
X6582444Y-16730484D01*
X6658634Y-16530484D02*
X6658634Y-16568579D01*
X6734825Y-16530484D02*
X6734825Y-16568579D01*
X7030063Y-16806674D02*
X7020539Y-16797150D01*
X7020539Y-16797150D02*
X7001491Y-16768579D01*
X7001491Y-16768579D02*
X6991968Y-16749531D01*
X6991968Y-16749531D02*
X6982444Y-16720960D01*
X6982444Y-16720960D02*
X6972920Y-16673341D01*
X6972920Y-16673341D02*
X6972920Y-16635246D01*
X6972920Y-16635246D02*
X6982444Y-16587627D01*
X6982444Y-16587627D02*
X6991968Y-16559055D01*
X6991968Y-16559055D02*
X7001491Y-16540008D01*
X7001491Y-16540008D02*
X7020539Y-16511436D01*
X7020539Y-16511436D02*
X7030063Y-16501912D01*
X7211015Y-16730484D02*
X7096729Y-16730484D01*
X7153872Y-16730484D02*
X7153872Y-16530484D01*
X7153872Y-16530484D02*
X7134825Y-16559055D01*
X7134825Y-16559055D02*
X7115777Y-16578103D01*
X7115777Y-16578103D02*
X7096729Y-16587627D01*
X7325301Y-16616198D02*
X7306253Y-16606674D01*
X7306253Y-16606674D02*
X7296729Y-16597150D01*
X7296729Y-16597150D02*
X7287206Y-16578103D01*
X7287206Y-16578103D02*
X7287206Y-16568579D01*
X7287206Y-16568579D02*
X7296729Y-16549531D01*
X7296729Y-16549531D02*
X7306253Y-16540008D01*
X7306253Y-16540008D02*
X7325301Y-16530484D01*
X7325301Y-16530484D02*
X7363396Y-16530484D01*
X7363396Y-16530484D02*
X7382444Y-16540008D01*
X7382444Y-16540008D02*
X7391968Y-16549531D01*
X7391968Y-16549531D02*
X7401491Y-16568579D01*
X7401491Y-16568579D02*
X7401491Y-16578103D01*
X7401491Y-16578103D02*
X7391968Y-16597150D01*
X7391968Y-16597150D02*
X7382444Y-16606674D01*
X7382444Y-16606674D02*
X7363396Y-16616198D01*
X7363396Y-16616198D02*
X7325301Y-16616198D01*
X7325301Y-16616198D02*
X7306253Y-16625722D01*
X7306253Y-16625722D02*
X7296729Y-16635246D01*
X7296729Y-16635246D02*
X7287206Y-16654293D01*
X7287206Y-16654293D02*
X7287206Y-16692388D01*
X7287206Y-16692388D02*
X7296729Y-16711436D01*
X7296729Y-16711436D02*
X7306253Y-16720960D01*
X7306253Y-16720960D02*
X7325301Y-16730484D01*
X7325301Y-16730484D02*
X7363396Y-16730484D01*
X7363396Y-16730484D02*
X7382444Y-16720960D01*
X7382444Y-16720960D02*
X7391968Y-16711436D01*
X7391968Y-16711436D02*
X7401491Y-16692388D01*
X7401491Y-16692388D02*
X7401491Y-16654293D01*
X7401491Y-16654293D02*
X7391968Y-16635246D01*
X7391968Y-16635246D02*
X7382444Y-16625722D01*
X7382444Y-16625722D02*
X7363396Y-16616198D01*
X7639587Y-16730484D02*
X7639587Y-16530484D01*
X7725301Y-16730484D02*
X7725301Y-16625722D01*
X7725301Y-16625722D02*
X7715777Y-16606674D01*
X7715777Y-16606674D02*
X7696730Y-16597150D01*
X7696730Y-16597150D02*
X7668158Y-16597150D01*
X7668158Y-16597150D02*
X7649110Y-16606674D01*
X7649110Y-16606674D02*
X7639587Y-16616198D01*
X7849110Y-16730484D02*
X7830063Y-16720960D01*
X7830063Y-16720960D02*
X7820539Y-16711436D01*
X7820539Y-16711436D02*
X7811015Y-16692388D01*
X7811015Y-16692388D02*
X7811015Y-16635246D01*
X7811015Y-16635246D02*
X7820539Y-16616198D01*
X7820539Y-16616198D02*
X7830063Y-16606674D01*
X7830063Y-16606674D02*
X7849110Y-16597150D01*
X7849110Y-16597150D02*
X7877682Y-16597150D01*
X7877682Y-16597150D02*
X7896730Y-16606674D01*
X7896730Y-16606674D02*
X7906253Y-16616198D01*
X7906253Y-16616198D02*
X7915777Y-16635246D01*
X7915777Y-16635246D02*
X7915777Y-16692388D01*
X7915777Y-16692388D02*
X7906253Y-16711436D01*
X7906253Y-16711436D02*
X7896730Y-16720960D01*
X7896730Y-16720960D02*
X7877682Y-16730484D01*
X7877682Y-16730484D02*
X7849110Y-16730484D01*
X8030063Y-16730484D02*
X8011015Y-16720960D01*
X8011015Y-16720960D02*
X8001491Y-16701912D01*
X8001491Y-16701912D02*
X8001491Y-16530484D01*
X8182444Y-16720960D02*
X8163396Y-16730484D01*
X8163396Y-16730484D02*
X8125301Y-16730484D01*
X8125301Y-16730484D02*
X8106253Y-16720960D01*
X8106253Y-16720960D02*
X8096730Y-16701912D01*
X8096730Y-16701912D02*
X8096730Y-16625722D01*
X8096730Y-16625722D02*
X8106253Y-16606674D01*
X8106253Y-16606674D02*
X8125301Y-16597150D01*
X8125301Y-16597150D02*
X8163396Y-16597150D01*
X8163396Y-16597150D02*
X8182444Y-16606674D01*
X8182444Y-16606674D02*
X8191968Y-16625722D01*
X8191968Y-16625722D02*
X8191968Y-16644769D01*
X8191968Y-16644769D02*
X8096730Y-16663817D01*
X8268158Y-16720960D02*
X8287206Y-16730484D01*
X8287206Y-16730484D02*
X8325301Y-16730484D01*
X8325301Y-16730484D02*
X8344349Y-16720960D01*
X8344349Y-16720960D02*
X8353872Y-16701912D01*
X8353872Y-16701912D02*
X8353872Y-16692388D01*
X8353872Y-16692388D02*
X8344349Y-16673341D01*
X8344349Y-16673341D02*
X8325301Y-16663817D01*
X8325301Y-16663817D02*
X8296730Y-16663817D01*
X8296730Y-16663817D02*
X8277682Y-16654293D01*
X8277682Y-16654293D02*
X8268158Y-16635246D01*
X8268158Y-16635246D02*
X8268158Y-16625722D01*
X8268158Y-16625722D02*
X8277682Y-16606674D01*
X8277682Y-16606674D02*
X8296730Y-16597150D01*
X8296730Y-16597150D02*
X8325301Y-16597150D01*
X8325301Y-16597150D02*
X8344349Y-16606674D01*
X8420539Y-16806674D02*
X8430063Y-16797150D01*
X8430063Y-16797150D02*
X8449111Y-16768579D01*
X8449111Y-16768579D02*
X8458634Y-16749531D01*
X8458634Y-16749531D02*
X8468158Y-16720960D01*
X8468158Y-16720960D02*
X8477682Y-16673341D01*
X8477682Y-16673341D02*
X8477682Y-16635246D01*
X8477682Y-16635246D02*
X8468158Y-16587627D01*
X8468158Y-16587627D02*
X8458634Y-16559055D01*
X8458634Y-16559055D02*
X8449111Y-16540008D01*
X8449111Y-16540008D02*
X8430063Y-16511436D01*
X8430063Y-16511436D02*
X8420539Y-16501912D01*
D18*
X3325000Y-16838000D02*
X3455000Y-16968000D01*
X3455000Y-16838000D02*
X3325000Y-16968000D01*
X3435962Y-16948962D02*
X3435962Y-16857038D01*
X3344038Y-16857038D01*
X3344038Y-16948962D01*
X3435962Y-16948962D01*
D11*
X3820539Y-16994484D02*
X3706253Y-16994484D01*
X3763396Y-16994484D02*
X3763396Y-16794484D01*
X3763396Y-16794484D02*
X3744348Y-16823055D01*
X3744348Y-16823055D02*
X3725301Y-16842103D01*
X3725301Y-16842103D02*
X3706253Y-16851627D01*
X3906253Y-16975436D02*
X3915777Y-16984960D01*
X3915777Y-16984960D02*
X3906253Y-16994484D01*
X3906253Y-16994484D02*
X3896729Y-16984960D01*
X3896729Y-16984960D02*
X3906253Y-16975436D01*
X3906253Y-16975436D02*
X3906253Y-16994484D01*
X3982443Y-16794484D02*
X4106253Y-16794484D01*
X4106253Y-16794484D02*
X4039586Y-16870674D01*
X4039586Y-16870674D02*
X4068158Y-16870674D01*
X4068158Y-16870674D02*
X4087205Y-16880198D01*
X4087205Y-16880198D02*
X4096729Y-16889722D01*
X4096729Y-16889722D02*
X4106253Y-16908770D01*
X4106253Y-16908770D02*
X4106253Y-16956389D01*
X4106253Y-16956389D02*
X4096729Y-16975436D01*
X4096729Y-16975436D02*
X4087205Y-16984960D01*
X4087205Y-16984960D02*
X4068158Y-16994484D01*
X4068158Y-16994484D02*
X4011015Y-16994484D01*
X4011015Y-16994484D02*
X3991967Y-16984960D01*
X3991967Y-16984960D02*
X3982443Y-16975436D01*
X4230063Y-16794484D02*
X4249110Y-16794484D01*
X4249110Y-16794484D02*
X4268158Y-16804008D01*
X4268158Y-16804008D02*
X4277682Y-16813531D01*
X4277682Y-16813531D02*
X4287205Y-16832579D01*
X4287205Y-16832579D02*
X4296729Y-16870674D01*
X4296729Y-16870674D02*
X4296729Y-16918293D01*
X4296729Y-16918293D02*
X4287205Y-16956389D01*
X4287205Y-16956389D02*
X4277682Y-16975436D01*
X4277682Y-16975436D02*
X4268158Y-16984960D01*
X4268158Y-16984960D02*
X4249110Y-16994484D01*
X4249110Y-16994484D02*
X4230063Y-16994484D01*
X4230063Y-16994484D02*
X4211015Y-16984960D01*
X4211015Y-16984960D02*
X4201491Y-16975436D01*
X4201491Y-16975436D02*
X4191967Y-16956389D01*
X4191967Y-16956389D02*
X4182443Y-16918293D01*
X4182443Y-16918293D02*
X4182443Y-16870674D01*
X4182443Y-16870674D02*
X4191967Y-16832579D01*
X4191967Y-16832579D02*
X4201491Y-16813531D01*
X4201491Y-16813531D02*
X4211015Y-16804008D01*
X4211015Y-16804008D02*
X4230063Y-16794484D01*
X4420539Y-16794484D02*
X4439586Y-16794484D01*
X4439586Y-16794484D02*
X4458634Y-16804008D01*
X4458634Y-16804008D02*
X4468158Y-16813531D01*
X4468158Y-16813531D02*
X4477682Y-16832579D01*
X4477682Y-16832579D02*
X4487205Y-16870674D01*
X4487205Y-16870674D02*
X4487205Y-16918293D01*
X4487205Y-16918293D02*
X4477682Y-16956389D01*
X4477682Y-16956389D02*
X4468158Y-16975436D01*
X4468158Y-16975436D02*
X4458634Y-16984960D01*
X4458634Y-16984960D02*
X4439586Y-16994484D01*
X4439586Y-16994484D02*
X4420539Y-16994484D01*
X4420539Y-16994484D02*
X4401491Y-16984960D01*
X4401491Y-16984960D02*
X4391967Y-16975436D01*
X4391967Y-16975436D02*
X4382444Y-16956389D01*
X4382444Y-16956389D02*
X4372920Y-16918293D01*
X4372920Y-16918293D02*
X4372920Y-16870674D01*
X4372920Y-16870674D02*
X4382444Y-16832579D01*
X4382444Y-16832579D02*
X4391967Y-16813531D01*
X4391967Y-16813531D02*
X4401491Y-16804008D01*
X4401491Y-16804008D02*
X4420539Y-16794484D01*
X4572920Y-16994484D02*
X4572920Y-16861150D01*
X4572920Y-16880198D02*
X4582444Y-16870674D01*
X4582444Y-16870674D02*
X4601491Y-16861150D01*
X4601491Y-16861150D02*
X4630063Y-16861150D01*
X4630063Y-16861150D02*
X4649110Y-16870674D01*
X4649110Y-16870674D02*
X4658634Y-16889722D01*
X4658634Y-16889722D02*
X4658634Y-16994484D01*
X4658634Y-16889722D02*
X4668158Y-16870674D01*
X4668158Y-16870674D02*
X4687205Y-16861150D01*
X4687205Y-16861150D02*
X4715777Y-16861150D01*
X4715777Y-16861150D02*
X4734825Y-16870674D01*
X4734825Y-16870674D02*
X4744348Y-16889722D01*
X4744348Y-16889722D02*
X4744348Y-16994484D01*
X4839586Y-16994484D02*
X4839586Y-16861150D01*
X4839586Y-16880198D02*
X4849110Y-16870674D01*
X4849110Y-16870674D02*
X4868158Y-16861150D01*
X4868158Y-16861150D02*
X4896729Y-16861150D01*
X4896729Y-16861150D02*
X4915777Y-16870674D01*
X4915777Y-16870674D02*
X4925301Y-16889722D01*
X4925301Y-16889722D02*
X4925301Y-16994484D01*
X4925301Y-16889722D02*
X4934825Y-16870674D01*
X4934825Y-16870674D02*
X4953872Y-16861150D01*
X4953872Y-16861150D02*
X4982444Y-16861150D01*
X4982444Y-16861150D02*
X5001491Y-16870674D01*
X5001491Y-16870674D02*
X5011015Y-16889722D01*
X5011015Y-16889722D02*
X5011015Y-16994484D01*
X5401491Y-16784960D02*
X5230063Y-17042103D01*
X5658634Y-16794484D02*
X5677682Y-16794484D01*
X5677682Y-16794484D02*
X5696729Y-16804008D01*
X5696729Y-16804008D02*
X5706253Y-16813531D01*
X5706253Y-16813531D02*
X5715777Y-16832579D01*
X5715777Y-16832579D02*
X5725301Y-16870674D01*
X5725301Y-16870674D02*
X5725301Y-16918293D01*
X5725301Y-16918293D02*
X5715777Y-16956389D01*
X5715777Y-16956389D02*
X5706253Y-16975436D01*
X5706253Y-16975436D02*
X5696729Y-16984960D01*
X5696729Y-16984960D02*
X5677682Y-16994484D01*
X5677682Y-16994484D02*
X5658634Y-16994484D01*
X5658634Y-16994484D02*
X5639586Y-16984960D01*
X5639586Y-16984960D02*
X5630063Y-16975436D01*
X5630063Y-16975436D02*
X5620539Y-16956389D01*
X5620539Y-16956389D02*
X5611015Y-16918293D01*
X5611015Y-16918293D02*
X5611015Y-16870674D01*
X5611015Y-16870674D02*
X5620539Y-16832579D01*
X5620539Y-16832579D02*
X5630063Y-16813531D01*
X5630063Y-16813531D02*
X5639586Y-16804008D01*
X5639586Y-16804008D02*
X5658634Y-16794484D01*
X5811015Y-16975436D02*
X5820539Y-16984960D01*
X5820539Y-16984960D02*
X5811015Y-16994484D01*
X5811015Y-16994484D02*
X5801491Y-16984960D01*
X5801491Y-16984960D02*
X5811015Y-16975436D01*
X5811015Y-16975436D02*
X5811015Y-16994484D01*
X5944348Y-16794484D02*
X5963396Y-16794484D01*
X5963396Y-16794484D02*
X5982444Y-16804008D01*
X5982444Y-16804008D02*
X5991967Y-16813531D01*
X5991967Y-16813531D02*
X6001491Y-16832579D01*
X6001491Y-16832579D02*
X6011015Y-16870674D01*
X6011015Y-16870674D02*
X6011015Y-16918293D01*
X6011015Y-16918293D02*
X6001491Y-16956389D01*
X6001491Y-16956389D02*
X5991967Y-16975436D01*
X5991967Y-16975436D02*
X5982444Y-16984960D01*
X5982444Y-16984960D02*
X5963396Y-16994484D01*
X5963396Y-16994484D02*
X5944348Y-16994484D01*
X5944348Y-16994484D02*
X5925301Y-16984960D01*
X5925301Y-16984960D02*
X5915777Y-16975436D01*
X5915777Y-16975436D02*
X5906253Y-16956389D01*
X5906253Y-16956389D02*
X5896729Y-16918293D01*
X5896729Y-16918293D02*
X5896729Y-16870674D01*
X5896729Y-16870674D02*
X5906253Y-16832579D01*
X5906253Y-16832579D02*
X5915777Y-16813531D01*
X5915777Y-16813531D02*
X5925301Y-16804008D01*
X5925301Y-16804008D02*
X5944348Y-16794484D01*
X6191967Y-16794484D02*
X6096729Y-16794484D01*
X6096729Y-16794484D02*
X6087206Y-16889722D01*
X6087206Y-16889722D02*
X6096729Y-16880198D01*
X6096729Y-16880198D02*
X6115777Y-16870674D01*
X6115777Y-16870674D02*
X6163396Y-16870674D01*
X6163396Y-16870674D02*
X6182444Y-16880198D01*
X6182444Y-16880198D02*
X6191967Y-16889722D01*
X6191967Y-16889722D02*
X6201491Y-16908770D01*
X6201491Y-16908770D02*
X6201491Y-16956389D01*
X6201491Y-16956389D02*
X6191967Y-16975436D01*
X6191967Y-16975436D02*
X6182444Y-16984960D01*
X6182444Y-16984960D02*
X6163396Y-16994484D01*
X6163396Y-16994484D02*
X6115777Y-16994484D01*
X6115777Y-16994484D02*
X6096729Y-16984960D01*
X6096729Y-16984960D02*
X6087206Y-16975436D01*
X6391967Y-16994484D02*
X6277682Y-16994484D01*
X6334825Y-16994484D02*
X6334825Y-16794484D01*
X6334825Y-16794484D02*
X6315777Y-16823055D01*
X6315777Y-16823055D02*
X6296729Y-16842103D01*
X6296729Y-16842103D02*
X6277682Y-16851627D01*
X6468158Y-16813531D02*
X6477682Y-16804008D01*
X6477682Y-16804008D02*
X6496729Y-16794484D01*
X6496729Y-16794484D02*
X6544348Y-16794484D01*
X6544348Y-16794484D02*
X6563396Y-16804008D01*
X6563396Y-16804008D02*
X6572920Y-16813531D01*
X6572920Y-16813531D02*
X6582444Y-16832579D01*
X6582444Y-16832579D02*
X6582444Y-16851627D01*
X6582444Y-16851627D02*
X6572920Y-16880198D01*
X6572920Y-16880198D02*
X6458634Y-16994484D01*
X6458634Y-16994484D02*
X6582444Y-16994484D01*
X6658634Y-16794484D02*
X6658634Y-16832579D01*
X6734825Y-16794484D02*
X6734825Y-16832579D01*
X7030063Y-17070674D02*
X7020539Y-17061150D01*
X7020539Y-17061150D02*
X7001491Y-17032579D01*
X7001491Y-17032579D02*
X6991968Y-17013531D01*
X6991968Y-17013531D02*
X6982444Y-16984960D01*
X6982444Y-16984960D02*
X6972920Y-16937341D01*
X6972920Y-16937341D02*
X6972920Y-16899246D01*
X6972920Y-16899246D02*
X6982444Y-16851627D01*
X6982444Y-16851627D02*
X6991968Y-16823055D01*
X6991968Y-16823055D02*
X7001491Y-16804008D01*
X7001491Y-16804008D02*
X7020539Y-16775436D01*
X7020539Y-16775436D02*
X7030063Y-16765912D01*
X7134825Y-16880198D02*
X7115777Y-16870674D01*
X7115777Y-16870674D02*
X7106253Y-16861150D01*
X7106253Y-16861150D02*
X7096729Y-16842103D01*
X7096729Y-16842103D02*
X7096729Y-16832579D01*
X7096729Y-16832579D02*
X7106253Y-16813531D01*
X7106253Y-16813531D02*
X7115777Y-16804008D01*
X7115777Y-16804008D02*
X7134825Y-16794484D01*
X7134825Y-16794484D02*
X7172920Y-16794484D01*
X7172920Y-16794484D02*
X7191968Y-16804008D01*
X7191968Y-16804008D02*
X7201491Y-16813531D01*
X7201491Y-16813531D02*
X7211015Y-16832579D01*
X7211015Y-16832579D02*
X7211015Y-16842103D01*
X7211015Y-16842103D02*
X7201491Y-16861150D01*
X7201491Y-16861150D02*
X7191968Y-16870674D01*
X7191968Y-16870674D02*
X7172920Y-16880198D01*
X7172920Y-16880198D02*
X7134825Y-16880198D01*
X7134825Y-16880198D02*
X7115777Y-16889722D01*
X7115777Y-16889722D02*
X7106253Y-16899246D01*
X7106253Y-16899246D02*
X7096729Y-16918293D01*
X7096729Y-16918293D02*
X7096729Y-16956389D01*
X7096729Y-16956389D02*
X7106253Y-16975436D01*
X7106253Y-16975436D02*
X7115777Y-16984960D01*
X7115777Y-16984960D02*
X7134825Y-16994484D01*
X7134825Y-16994484D02*
X7172920Y-16994484D01*
X7172920Y-16994484D02*
X7191968Y-16984960D01*
X7191968Y-16984960D02*
X7201491Y-16975436D01*
X7201491Y-16975436D02*
X7211015Y-16956389D01*
X7211015Y-16956389D02*
X7211015Y-16918293D01*
X7211015Y-16918293D02*
X7201491Y-16899246D01*
X7201491Y-16899246D02*
X7191968Y-16889722D01*
X7191968Y-16889722D02*
X7172920Y-16880198D01*
X7449110Y-16994484D02*
X7449110Y-16794484D01*
X7534825Y-16994484D02*
X7534825Y-16889722D01*
X7534825Y-16889722D02*
X7525301Y-16870674D01*
X7525301Y-16870674D02*
X7506253Y-16861150D01*
X7506253Y-16861150D02*
X7477682Y-16861150D01*
X7477682Y-16861150D02*
X7458634Y-16870674D01*
X7458634Y-16870674D02*
X7449110Y-16880198D01*
X7658634Y-16994484D02*
X7639587Y-16984960D01*
X7639587Y-16984960D02*
X7630063Y-16975436D01*
X7630063Y-16975436D02*
X7620539Y-16956389D01*
X7620539Y-16956389D02*
X7620539Y-16899246D01*
X7620539Y-16899246D02*
X7630063Y-16880198D01*
X7630063Y-16880198D02*
X7639587Y-16870674D01*
X7639587Y-16870674D02*
X7658634Y-16861150D01*
X7658634Y-16861150D02*
X7687206Y-16861150D01*
X7687206Y-16861150D02*
X7706253Y-16870674D01*
X7706253Y-16870674D02*
X7715777Y-16880198D01*
X7715777Y-16880198D02*
X7725301Y-16899246D01*
X7725301Y-16899246D02*
X7725301Y-16956389D01*
X7725301Y-16956389D02*
X7715777Y-16975436D01*
X7715777Y-16975436D02*
X7706253Y-16984960D01*
X7706253Y-16984960D02*
X7687206Y-16994484D01*
X7687206Y-16994484D02*
X7658634Y-16994484D01*
X7839587Y-16994484D02*
X7820539Y-16984960D01*
X7820539Y-16984960D02*
X7811015Y-16965912D01*
X7811015Y-16965912D02*
X7811015Y-16794484D01*
X7991968Y-16984960D02*
X7972920Y-16994484D01*
X7972920Y-16994484D02*
X7934825Y-16994484D01*
X7934825Y-16994484D02*
X7915777Y-16984960D01*
X7915777Y-16984960D02*
X7906253Y-16965912D01*
X7906253Y-16965912D02*
X7906253Y-16889722D01*
X7906253Y-16889722D02*
X7915777Y-16870674D01*
X7915777Y-16870674D02*
X7934825Y-16861150D01*
X7934825Y-16861150D02*
X7972920Y-16861150D01*
X7972920Y-16861150D02*
X7991968Y-16870674D01*
X7991968Y-16870674D02*
X8001491Y-16889722D01*
X8001491Y-16889722D02*
X8001491Y-16908770D01*
X8001491Y-16908770D02*
X7906253Y-16927817D01*
X8077682Y-16984960D02*
X8096730Y-16994484D01*
X8096730Y-16994484D02*
X8134825Y-16994484D01*
X8134825Y-16994484D02*
X8153872Y-16984960D01*
X8153872Y-16984960D02*
X8163396Y-16965912D01*
X8163396Y-16965912D02*
X8163396Y-16956389D01*
X8163396Y-16956389D02*
X8153872Y-16937341D01*
X8153872Y-16937341D02*
X8134825Y-16927817D01*
X8134825Y-16927817D02*
X8106253Y-16927817D01*
X8106253Y-16927817D02*
X8087206Y-16918293D01*
X8087206Y-16918293D02*
X8077682Y-16899246D01*
X8077682Y-16899246D02*
X8077682Y-16889722D01*
X8077682Y-16889722D02*
X8087206Y-16870674D01*
X8087206Y-16870674D02*
X8106253Y-16861150D01*
X8106253Y-16861150D02*
X8134825Y-16861150D01*
X8134825Y-16861150D02*
X8153872Y-16870674D01*
X8230063Y-17070674D02*
X8239587Y-17061150D01*
X8239587Y-17061150D02*
X8258634Y-17032579D01*
X8258634Y-17032579D02*
X8268158Y-17013531D01*
X8268158Y-17013531D02*
X8277682Y-16984960D01*
X8277682Y-16984960D02*
X8287206Y-16937341D01*
X8287206Y-16937341D02*
X8287206Y-16899246D01*
X8287206Y-16899246D02*
X8277682Y-16851627D01*
X8277682Y-16851627D02*
X8268158Y-16823055D01*
X8268158Y-16823055D02*
X8258634Y-16804008D01*
X8258634Y-16804008D02*
X8239587Y-16775436D01*
X8239587Y-16775436D02*
X8230063Y-16765912D01*
M02*
