%TF.GenerationSoftware,KiCad,Pcbnew,7.0.7*%
%TF.CreationDate,2024-02-25T20:38:04+01:00*%
%TF.ProjectId,TFT_tactil_screen,5446545f-7461-4637-9469-6c5f73637265,rev?*%
%TF.SameCoordinates,Original*%
%TF.FileFunction,Drillmap*%
%TF.FilePolarity,Positive*%
%FSLAX45Y45*%
G04 Gerber Fmt 4.5, Leading zero omitted, Abs format (unit mm)*
G04 Created by KiCad (PCBNEW 7.0.7) date 2024-02-25 20:38:04*
%MOMM*%
%LPD*%
G01*
G04 APERTURE LIST*
%ADD10C,0.100000*%
%ADD11C,0.200000*%
%ADD12C,0.110000*%
%ADD13C,0.300000*%
G04 APERTURE END LIST*
D10*
X3950000Y-3900000D02*
G75*
G03*
X3950000Y-3900000I-150000J0D01*
G01*
X9450000Y-3900000D02*
G75*
G03*
X9450000Y-3900000I-150000J0D01*
G01*
X3950000Y-14100000D02*
G75*
G03*
X3950000Y-14100000I-150000J0D01*
G01*
X9450000Y-14100000D02*
G75*
G03*
X9450000Y-14100000I-150000J0D01*
G01*
X9640000Y-3630000D02*
X3460000Y-3630000D01*
X9640000Y-4150000D02*
X9640000Y-3630000D01*
X8100000Y-4150000D02*
X9640000Y-4150000D01*
X8100000Y-13800000D02*
X8100000Y-4150000D01*
X9640000Y-13800000D02*
X8100000Y-13800000D01*
X9640000Y-14410000D02*
X9640000Y-13800000D01*
X3460000Y-14410000D02*
X9640000Y-14410000D01*
X3460000Y-3630000D02*
X3460000Y-14410000D01*
D11*
D12*
X3591000Y-9945000D02*
X3701000Y-10055000D01*
X3701000Y-9945000D02*
X3591000Y-10055000D01*
X3591000Y-10199000D02*
X3701000Y-10309000D01*
X3701000Y-10199000D02*
X3591000Y-10309000D01*
D13*
X3850000Y-4500000D02*
G75*
G03*
X3850000Y-4500000I-150000J0D01*
G01*
X3850000Y-9195000D02*
G75*
G03*
X3850000Y-9195000I-150000J0D01*
G01*
X6301000Y-4500000D02*
G75*
G03*
X6301000Y-4500000I-150000J0D01*
G01*
X6301000Y-9195000D02*
G75*
G03*
X6301000Y-9195000I-150000J0D01*
G01*
D11*
X3715777Y-14726484D02*
X3715777Y-14526484D01*
X3715777Y-14526484D02*
X3763396Y-14526484D01*
X3763396Y-14526484D02*
X3791967Y-14536008D01*
X3791967Y-14536008D02*
X3811015Y-14555055D01*
X3811015Y-14555055D02*
X3820539Y-14574103D01*
X3820539Y-14574103D02*
X3830062Y-14612198D01*
X3830062Y-14612198D02*
X3830062Y-14640769D01*
X3830062Y-14640769D02*
X3820539Y-14678865D01*
X3820539Y-14678865D02*
X3811015Y-14697912D01*
X3811015Y-14697912D02*
X3791967Y-14716960D01*
X3791967Y-14716960D02*
X3763396Y-14726484D01*
X3763396Y-14726484D02*
X3715777Y-14726484D01*
X3915777Y-14726484D02*
X3915777Y-14593150D01*
X3915777Y-14631246D02*
X3925301Y-14612198D01*
X3925301Y-14612198D02*
X3934824Y-14602674D01*
X3934824Y-14602674D02*
X3953872Y-14593150D01*
X3953872Y-14593150D02*
X3972920Y-14593150D01*
X4039586Y-14726484D02*
X4039586Y-14593150D01*
X4039586Y-14526484D02*
X4030062Y-14536008D01*
X4030062Y-14536008D02*
X4039586Y-14545531D01*
X4039586Y-14545531D02*
X4049110Y-14536008D01*
X4049110Y-14536008D02*
X4039586Y-14526484D01*
X4039586Y-14526484D02*
X4039586Y-14545531D01*
X4163396Y-14726484D02*
X4144348Y-14716960D01*
X4144348Y-14716960D02*
X4134824Y-14697912D01*
X4134824Y-14697912D02*
X4134824Y-14526484D01*
X4268158Y-14726484D02*
X4249110Y-14716960D01*
X4249110Y-14716960D02*
X4239586Y-14697912D01*
X4239586Y-14697912D02*
X4239586Y-14526484D01*
X4496729Y-14726484D02*
X4496729Y-14526484D01*
X4496729Y-14526484D02*
X4563396Y-14669341D01*
X4563396Y-14669341D02*
X4630063Y-14526484D01*
X4630063Y-14526484D02*
X4630063Y-14726484D01*
X4811015Y-14726484D02*
X4811015Y-14621722D01*
X4811015Y-14621722D02*
X4801491Y-14602674D01*
X4801491Y-14602674D02*
X4782444Y-14593150D01*
X4782444Y-14593150D02*
X4744348Y-14593150D01*
X4744348Y-14593150D02*
X4725301Y-14602674D01*
X4811015Y-14716960D02*
X4791967Y-14726484D01*
X4791967Y-14726484D02*
X4744348Y-14726484D01*
X4744348Y-14726484D02*
X4725301Y-14716960D01*
X4725301Y-14716960D02*
X4715777Y-14697912D01*
X4715777Y-14697912D02*
X4715777Y-14678865D01*
X4715777Y-14678865D02*
X4725301Y-14659817D01*
X4725301Y-14659817D02*
X4744348Y-14650293D01*
X4744348Y-14650293D02*
X4791967Y-14650293D01*
X4791967Y-14650293D02*
X4811015Y-14640769D01*
X4906253Y-14593150D02*
X4906253Y-14793150D01*
X4906253Y-14602674D02*
X4925301Y-14593150D01*
X4925301Y-14593150D02*
X4963396Y-14593150D01*
X4963396Y-14593150D02*
X4982444Y-14602674D01*
X4982444Y-14602674D02*
X4991967Y-14612198D01*
X4991967Y-14612198D02*
X5001491Y-14631246D01*
X5001491Y-14631246D02*
X5001491Y-14688388D01*
X5001491Y-14688388D02*
X4991967Y-14707436D01*
X4991967Y-14707436D02*
X4982444Y-14716960D01*
X4982444Y-14716960D02*
X4963396Y-14726484D01*
X4963396Y-14726484D02*
X4925301Y-14726484D01*
X4925301Y-14726484D02*
X4906253Y-14716960D01*
X5087205Y-14707436D02*
X5096729Y-14716960D01*
X5096729Y-14716960D02*
X5087205Y-14726484D01*
X5087205Y-14726484D02*
X5077682Y-14716960D01*
X5077682Y-14716960D02*
X5087205Y-14707436D01*
X5087205Y-14707436D02*
X5087205Y-14726484D01*
X5087205Y-14602674D02*
X5096729Y-14612198D01*
X5096729Y-14612198D02*
X5087205Y-14621722D01*
X5087205Y-14621722D02*
X5077682Y-14612198D01*
X5077682Y-14612198D02*
X5087205Y-14602674D01*
X5087205Y-14602674D02*
X5087205Y-14621722D01*
D12*
X3345000Y-15000000D02*
X3455000Y-15110000D01*
X3455000Y-15000000D02*
X3345000Y-15110000D01*
D11*
X3820539Y-15146484D02*
X3706253Y-15146484D01*
X3763396Y-15146484D02*
X3763396Y-14946484D01*
X3763396Y-14946484D02*
X3744348Y-14975055D01*
X3744348Y-14975055D02*
X3725301Y-14994103D01*
X3725301Y-14994103D02*
X3706253Y-15003627D01*
X3906253Y-15127436D02*
X3915777Y-15136960D01*
X3915777Y-15136960D02*
X3906253Y-15146484D01*
X3906253Y-15146484D02*
X3896729Y-15136960D01*
X3896729Y-15136960D02*
X3906253Y-15127436D01*
X3906253Y-15127436D02*
X3906253Y-15146484D01*
X4106253Y-15146484D02*
X3991967Y-15146484D01*
X4049110Y-15146484D02*
X4049110Y-14946484D01*
X4049110Y-14946484D02*
X4030062Y-14975055D01*
X4030062Y-14975055D02*
X4011015Y-14994103D01*
X4011015Y-14994103D02*
X3991967Y-15003627D01*
X4230063Y-14946484D02*
X4249110Y-14946484D01*
X4249110Y-14946484D02*
X4268158Y-14956008D01*
X4268158Y-14956008D02*
X4277682Y-14965531D01*
X4277682Y-14965531D02*
X4287205Y-14984579D01*
X4287205Y-14984579D02*
X4296729Y-15022674D01*
X4296729Y-15022674D02*
X4296729Y-15070293D01*
X4296729Y-15070293D02*
X4287205Y-15108388D01*
X4287205Y-15108388D02*
X4277682Y-15127436D01*
X4277682Y-15127436D02*
X4268158Y-15136960D01*
X4268158Y-15136960D02*
X4249110Y-15146484D01*
X4249110Y-15146484D02*
X4230063Y-15146484D01*
X4230063Y-15146484D02*
X4211015Y-15136960D01*
X4211015Y-15136960D02*
X4201491Y-15127436D01*
X4201491Y-15127436D02*
X4191967Y-15108388D01*
X4191967Y-15108388D02*
X4182443Y-15070293D01*
X4182443Y-15070293D02*
X4182443Y-15022674D01*
X4182443Y-15022674D02*
X4191967Y-14984579D01*
X4191967Y-14984579D02*
X4201491Y-14965531D01*
X4201491Y-14965531D02*
X4211015Y-14956008D01*
X4211015Y-14956008D02*
X4230063Y-14946484D01*
X4420539Y-14946484D02*
X4439586Y-14946484D01*
X4439586Y-14946484D02*
X4458634Y-14956008D01*
X4458634Y-14956008D02*
X4468158Y-14965531D01*
X4468158Y-14965531D02*
X4477682Y-14984579D01*
X4477682Y-14984579D02*
X4487205Y-15022674D01*
X4487205Y-15022674D02*
X4487205Y-15070293D01*
X4487205Y-15070293D02*
X4477682Y-15108388D01*
X4477682Y-15108388D02*
X4468158Y-15127436D01*
X4468158Y-15127436D02*
X4458634Y-15136960D01*
X4458634Y-15136960D02*
X4439586Y-15146484D01*
X4439586Y-15146484D02*
X4420539Y-15146484D01*
X4420539Y-15146484D02*
X4401491Y-15136960D01*
X4401491Y-15136960D02*
X4391967Y-15127436D01*
X4391967Y-15127436D02*
X4382444Y-15108388D01*
X4382444Y-15108388D02*
X4372920Y-15070293D01*
X4372920Y-15070293D02*
X4372920Y-15022674D01*
X4372920Y-15022674D02*
X4382444Y-14984579D01*
X4382444Y-14984579D02*
X4391967Y-14965531D01*
X4391967Y-14965531D02*
X4401491Y-14956008D01*
X4401491Y-14956008D02*
X4420539Y-14946484D01*
X4572920Y-15146484D02*
X4572920Y-15013150D01*
X4572920Y-15032198D02*
X4582444Y-15022674D01*
X4582444Y-15022674D02*
X4601491Y-15013150D01*
X4601491Y-15013150D02*
X4630063Y-15013150D01*
X4630063Y-15013150D02*
X4649110Y-15022674D01*
X4649110Y-15022674D02*
X4658634Y-15041722D01*
X4658634Y-15041722D02*
X4658634Y-15146484D01*
X4658634Y-15041722D02*
X4668158Y-15022674D01*
X4668158Y-15022674D02*
X4687205Y-15013150D01*
X4687205Y-15013150D02*
X4715777Y-15013150D01*
X4715777Y-15013150D02*
X4734825Y-15022674D01*
X4734825Y-15022674D02*
X4744348Y-15041722D01*
X4744348Y-15041722D02*
X4744348Y-15146484D01*
X4839586Y-15146484D02*
X4839586Y-15013150D01*
X4839586Y-15032198D02*
X4849110Y-15022674D01*
X4849110Y-15022674D02*
X4868158Y-15013150D01*
X4868158Y-15013150D02*
X4896729Y-15013150D01*
X4896729Y-15013150D02*
X4915777Y-15022674D01*
X4915777Y-15022674D02*
X4925301Y-15041722D01*
X4925301Y-15041722D02*
X4925301Y-15146484D01*
X4925301Y-15041722D02*
X4934825Y-15022674D01*
X4934825Y-15022674D02*
X4953872Y-15013150D01*
X4953872Y-15013150D02*
X4982444Y-15013150D01*
X4982444Y-15013150D02*
X5001491Y-15022674D01*
X5001491Y-15022674D02*
X5011015Y-15041722D01*
X5011015Y-15041722D02*
X5011015Y-15146484D01*
X5401491Y-14936960D02*
X5230063Y-15194103D01*
X5658634Y-14946484D02*
X5677682Y-14946484D01*
X5677682Y-14946484D02*
X5696729Y-14956008D01*
X5696729Y-14956008D02*
X5706253Y-14965531D01*
X5706253Y-14965531D02*
X5715777Y-14984579D01*
X5715777Y-14984579D02*
X5725301Y-15022674D01*
X5725301Y-15022674D02*
X5725301Y-15070293D01*
X5725301Y-15070293D02*
X5715777Y-15108388D01*
X5715777Y-15108388D02*
X5706253Y-15127436D01*
X5706253Y-15127436D02*
X5696729Y-15136960D01*
X5696729Y-15136960D02*
X5677682Y-15146484D01*
X5677682Y-15146484D02*
X5658634Y-15146484D01*
X5658634Y-15146484D02*
X5639586Y-15136960D01*
X5639586Y-15136960D02*
X5630063Y-15127436D01*
X5630063Y-15127436D02*
X5620539Y-15108388D01*
X5620539Y-15108388D02*
X5611015Y-15070293D01*
X5611015Y-15070293D02*
X5611015Y-15022674D01*
X5611015Y-15022674D02*
X5620539Y-14984579D01*
X5620539Y-14984579D02*
X5630063Y-14965531D01*
X5630063Y-14965531D02*
X5639586Y-14956008D01*
X5639586Y-14956008D02*
X5658634Y-14946484D01*
X5811015Y-15127436D02*
X5820539Y-15136960D01*
X5820539Y-15136960D02*
X5811015Y-15146484D01*
X5811015Y-15146484D02*
X5801491Y-15136960D01*
X5801491Y-15136960D02*
X5811015Y-15127436D01*
X5811015Y-15127436D02*
X5811015Y-15146484D01*
X5944348Y-14946484D02*
X5963396Y-14946484D01*
X5963396Y-14946484D02*
X5982444Y-14956008D01*
X5982444Y-14956008D02*
X5991967Y-14965531D01*
X5991967Y-14965531D02*
X6001491Y-14984579D01*
X6001491Y-14984579D02*
X6011015Y-15022674D01*
X6011015Y-15022674D02*
X6011015Y-15070293D01*
X6011015Y-15070293D02*
X6001491Y-15108388D01*
X6001491Y-15108388D02*
X5991967Y-15127436D01*
X5991967Y-15127436D02*
X5982444Y-15136960D01*
X5982444Y-15136960D02*
X5963396Y-15146484D01*
X5963396Y-15146484D02*
X5944348Y-15146484D01*
X5944348Y-15146484D02*
X5925301Y-15136960D01*
X5925301Y-15136960D02*
X5915777Y-15127436D01*
X5915777Y-15127436D02*
X5906253Y-15108388D01*
X5906253Y-15108388D02*
X5896729Y-15070293D01*
X5896729Y-15070293D02*
X5896729Y-15022674D01*
X5896729Y-15022674D02*
X5906253Y-14984579D01*
X5906253Y-14984579D02*
X5915777Y-14965531D01*
X5915777Y-14965531D02*
X5925301Y-14956008D01*
X5925301Y-14956008D02*
X5944348Y-14946484D01*
X6182444Y-15013150D02*
X6182444Y-15146484D01*
X6134825Y-14936960D02*
X6087206Y-15079817D01*
X6087206Y-15079817D02*
X6211015Y-15079817D01*
X6268158Y-14946484D02*
X6391967Y-14946484D01*
X6391967Y-14946484D02*
X6325301Y-15022674D01*
X6325301Y-15022674D02*
X6353872Y-15022674D01*
X6353872Y-15022674D02*
X6372920Y-15032198D01*
X6372920Y-15032198D02*
X6382444Y-15041722D01*
X6382444Y-15041722D02*
X6391967Y-15060769D01*
X6391967Y-15060769D02*
X6391967Y-15108388D01*
X6391967Y-15108388D02*
X6382444Y-15127436D01*
X6382444Y-15127436D02*
X6372920Y-15136960D01*
X6372920Y-15136960D02*
X6353872Y-15146484D01*
X6353872Y-15146484D02*
X6296729Y-15146484D01*
X6296729Y-15146484D02*
X6277682Y-15136960D01*
X6277682Y-15136960D02*
X6268158Y-15127436D01*
X6458634Y-14946484D02*
X6582444Y-14946484D01*
X6582444Y-14946484D02*
X6515777Y-15022674D01*
X6515777Y-15022674D02*
X6544348Y-15022674D01*
X6544348Y-15022674D02*
X6563396Y-15032198D01*
X6563396Y-15032198D02*
X6572920Y-15041722D01*
X6572920Y-15041722D02*
X6582444Y-15060769D01*
X6582444Y-15060769D02*
X6582444Y-15108388D01*
X6582444Y-15108388D02*
X6572920Y-15127436D01*
X6572920Y-15127436D02*
X6563396Y-15136960D01*
X6563396Y-15136960D02*
X6544348Y-15146484D01*
X6544348Y-15146484D02*
X6487206Y-15146484D01*
X6487206Y-15146484D02*
X6468158Y-15136960D01*
X6468158Y-15136960D02*
X6458634Y-15127436D01*
X6658634Y-14946484D02*
X6658634Y-14984579D01*
X6734825Y-14946484D02*
X6734825Y-14984579D01*
X7030063Y-15222674D02*
X7020539Y-15213150D01*
X7020539Y-15213150D02*
X7001491Y-15184579D01*
X7001491Y-15184579D02*
X6991968Y-15165531D01*
X6991968Y-15165531D02*
X6982444Y-15136960D01*
X6982444Y-15136960D02*
X6972920Y-15089341D01*
X6972920Y-15089341D02*
X6972920Y-15051246D01*
X6972920Y-15051246D02*
X6982444Y-15003627D01*
X6982444Y-15003627D02*
X6991968Y-14975055D01*
X6991968Y-14975055D02*
X7001491Y-14956008D01*
X7001491Y-14956008D02*
X7020539Y-14927436D01*
X7020539Y-14927436D02*
X7030063Y-14917912D01*
X7096729Y-14965531D02*
X7106253Y-14956008D01*
X7106253Y-14956008D02*
X7125301Y-14946484D01*
X7125301Y-14946484D02*
X7172920Y-14946484D01*
X7172920Y-14946484D02*
X7191968Y-14956008D01*
X7191968Y-14956008D02*
X7201491Y-14965531D01*
X7201491Y-14965531D02*
X7211015Y-14984579D01*
X7211015Y-14984579D02*
X7211015Y-15003627D01*
X7211015Y-15003627D02*
X7201491Y-15032198D01*
X7201491Y-15032198D02*
X7087206Y-15146484D01*
X7087206Y-15146484D02*
X7211015Y-15146484D01*
X7449110Y-15146484D02*
X7449110Y-14946484D01*
X7534825Y-15146484D02*
X7534825Y-15041722D01*
X7534825Y-15041722D02*
X7525301Y-15022674D01*
X7525301Y-15022674D02*
X7506253Y-15013150D01*
X7506253Y-15013150D02*
X7477682Y-15013150D01*
X7477682Y-15013150D02*
X7458634Y-15022674D01*
X7458634Y-15022674D02*
X7449110Y-15032198D01*
X7658634Y-15146484D02*
X7639587Y-15136960D01*
X7639587Y-15136960D02*
X7630063Y-15127436D01*
X7630063Y-15127436D02*
X7620539Y-15108388D01*
X7620539Y-15108388D02*
X7620539Y-15051246D01*
X7620539Y-15051246D02*
X7630063Y-15032198D01*
X7630063Y-15032198D02*
X7639587Y-15022674D01*
X7639587Y-15022674D02*
X7658634Y-15013150D01*
X7658634Y-15013150D02*
X7687206Y-15013150D01*
X7687206Y-15013150D02*
X7706253Y-15022674D01*
X7706253Y-15022674D02*
X7715777Y-15032198D01*
X7715777Y-15032198D02*
X7725301Y-15051246D01*
X7725301Y-15051246D02*
X7725301Y-15108388D01*
X7725301Y-15108388D02*
X7715777Y-15127436D01*
X7715777Y-15127436D02*
X7706253Y-15136960D01*
X7706253Y-15136960D02*
X7687206Y-15146484D01*
X7687206Y-15146484D02*
X7658634Y-15146484D01*
X7839587Y-15146484D02*
X7820539Y-15136960D01*
X7820539Y-15136960D02*
X7811015Y-15117912D01*
X7811015Y-15117912D02*
X7811015Y-14946484D01*
X7991968Y-15136960D02*
X7972920Y-15146484D01*
X7972920Y-15146484D02*
X7934825Y-15146484D01*
X7934825Y-15146484D02*
X7915777Y-15136960D01*
X7915777Y-15136960D02*
X7906253Y-15117912D01*
X7906253Y-15117912D02*
X7906253Y-15041722D01*
X7906253Y-15041722D02*
X7915777Y-15022674D01*
X7915777Y-15022674D02*
X7934825Y-15013150D01*
X7934825Y-15013150D02*
X7972920Y-15013150D01*
X7972920Y-15013150D02*
X7991968Y-15022674D01*
X7991968Y-15022674D02*
X8001491Y-15041722D01*
X8001491Y-15041722D02*
X8001491Y-15060769D01*
X8001491Y-15060769D02*
X7906253Y-15079817D01*
X8077682Y-15136960D02*
X8096730Y-15146484D01*
X8096730Y-15146484D02*
X8134825Y-15146484D01*
X8134825Y-15146484D02*
X8153872Y-15136960D01*
X8153872Y-15136960D02*
X8163396Y-15117912D01*
X8163396Y-15117912D02*
X8163396Y-15108388D01*
X8163396Y-15108388D02*
X8153872Y-15089341D01*
X8153872Y-15089341D02*
X8134825Y-15079817D01*
X8134825Y-15079817D02*
X8106253Y-15079817D01*
X8106253Y-15079817D02*
X8087206Y-15070293D01*
X8087206Y-15070293D02*
X8077682Y-15051246D01*
X8077682Y-15051246D02*
X8077682Y-15041722D01*
X8077682Y-15041722D02*
X8087206Y-15022674D01*
X8087206Y-15022674D02*
X8106253Y-15013150D01*
X8106253Y-15013150D02*
X8134825Y-15013150D01*
X8134825Y-15013150D02*
X8153872Y-15022674D01*
X8230063Y-15222674D02*
X8239587Y-15213150D01*
X8239587Y-15213150D02*
X8258634Y-15184579D01*
X8258634Y-15184579D02*
X8268158Y-15165531D01*
X8268158Y-15165531D02*
X8277682Y-15136960D01*
X8277682Y-15136960D02*
X8287206Y-15089341D01*
X8287206Y-15089341D02*
X8287206Y-15051246D01*
X8287206Y-15051246D02*
X8277682Y-15003627D01*
X8277682Y-15003627D02*
X8268158Y-14975055D01*
X8268158Y-14975055D02*
X8258634Y-14956008D01*
X8258634Y-14956008D02*
X8239587Y-14927436D01*
X8239587Y-14927436D02*
X8230063Y-14917912D01*
X8591968Y-15222674D02*
X8582444Y-15213150D01*
X8582444Y-15213150D02*
X8563396Y-15184579D01*
X8563396Y-15184579D02*
X8553873Y-15165531D01*
X8553873Y-15165531D02*
X8544349Y-15136960D01*
X8544349Y-15136960D02*
X8534825Y-15089341D01*
X8534825Y-15089341D02*
X8534825Y-15051246D01*
X8534825Y-15051246D02*
X8544349Y-15003627D01*
X8544349Y-15003627D02*
X8553873Y-14975055D01*
X8553873Y-14975055D02*
X8563396Y-14956008D01*
X8563396Y-14956008D02*
X8582444Y-14927436D01*
X8582444Y-14927436D02*
X8591968Y-14917912D01*
X8668158Y-15013150D02*
X8668158Y-15146484D01*
X8668158Y-15032198D02*
X8677682Y-15022674D01*
X8677682Y-15022674D02*
X8696730Y-15013150D01*
X8696730Y-15013150D02*
X8725301Y-15013150D01*
X8725301Y-15013150D02*
X8744349Y-15022674D01*
X8744349Y-15022674D02*
X8753873Y-15041722D01*
X8753873Y-15041722D02*
X8753873Y-15146484D01*
X8877682Y-15146484D02*
X8858634Y-15136960D01*
X8858634Y-15136960D02*
X8849111Y-15127436D01*
X8849111Y-15127436D02*
X8839587Y-15108388D01*
X8839587Y-15108388D02*
X8839587Y-15051246D01*
X8839587Y-15051246D02*
X8849111Y-15032198D01*
X8849111Y-15032198D02*
X8858634Y-15022674D01*
X8858634Y-15022674D02*
X8877682Y-15013150D01*
X8877682Y-15013150D02*
X8906254Y-15013150D01*
X8906254Y-15013150D02*
X8925301Y-15022674D01*
X8925301Y-15022674D02*
X8934825Y-15032198D01*
X8934825Y-15032198D02*
X8944349Y-15051246D01*
X8944349Y-15051246D02*
X8944349Y-15108388D01*
X8944349Y-15108388D02*
X8934825Y-15127436D01*
X8934825Y-15127436D02*
X8925301Y-15136960D01*
X8925301Y-15136960D02*
X8906254Y-15146484D01*
X8906254Y-15146484D02*
X8877682Y-15146484D01*
X9001492Y-15013150D02*
X9077682Y-15013150D01*
X9030063Y-14946484D02*
X9030063Y-15117912D01*
X9030063Y-15117912D02*
X9039587Y-15136960D01*
X9039587Y-15136960D02*
X9058634Y-15146484D01*
X9058634Y-15146484D02*
X9077682Y-15146484D01*
X9296730Y-15013150D02*
X9296730Y-15213150D01*
X9296730Y-15022674D02*
X9315777Y-15013150D01*
X9315777Y-15013150D02*
X9353873Y-15013150D01*
X9353873Y-15013150D02*
X9372920Y-15022674D01*
X9372920Y-15022674D02*
X9382444Y-15032198D01*
X9382444Y-15032198D02*
X9391968Y-15051246D01*
X9391968Y-15051246D02*
X9391968Y-15108388D01*
X9391968Y-15108388D02*
X9382444Y-15127436D01*
X9382444Y-15127436D02*
X9372920Y-15136960D01*
X9372920Y-15136960D02*
X9353873Y-15146484D01*
X9353873Y-15146484D02*
X9315777Y-15146484D01*
X9315777Y-15146484D02*
X9296730Y-15136960D01*
X9506254Y-15146484D02*
X9487206Y-15136960D01*
X9487206Y-15136960D02*
X9477682Y-15117912D01*
X9477682Y-15117912D02*
X9477682Y-14946484D01*
X9668158Y-15146484D02*
X9668158Y-15041722D01*
X9668158Y-15041722D02*
X9658635Y-15022674D01*
X9658635Y-15022674D02*
X9639587Y-15013150D01*
X9639587Y-15013150D02*
X9601492Y-15013150D01*
X9601492Y-15013150D02*
X9582444Y-15022674D01*
X9668158Y-15136960D02*
X9649111Y-15146484D01*
X9649111Y-15146484D02*
X9601492Y-15146484D01*
X9601492Y-15146484D02*
X9582444Y-15136960D01*
X9582444Y-15136960D02*
X9572920Y-15117912D01*
X9572920Y-15117912D02*
X9572920Y-15098865D01*
X9572920Y-15098865D02*
X9582444Y-15079817D01*
X9582444Y-15079817D02*
X9601492Y-15070293D01*
X9601492Y-15070293D02*
X9649111Y-15070293D01*
X9649111Y-15070293D02*
X9668158Y-15060769D01*
X9734825Y-15013150D02*
X9811015Y-15013150D01*
X9763396Y-14946484D02*
X9763396Y-15117912D01*
X9763396Y-15117912D02*
X9772920Y-15136960D01*
X9772920Y-15136960D02*
X9791968Y-15146484D01*
X9791968Y-15146484D02*
X9811015Y-15146484D01*
X9953873Y-15136960D02*
X9934825Y-15146484D01*
X9934825Y-15146484D02*
X9896730Y-15146484D01*
X9896730Y-15146484D02*
X9877682Y-15136960D01*
X9877682Y-15136960D02*
X9868158Y-15117912D01*
X9868158Y-15117912D02*
X9868158Y-15041722D01*
X9868158Y-15041722D02*
X9877682Y-15022674D01*
X9877682Y-15022674D02*
X9896730Y-15013150D01*
X9896730Y-15013150D02*
X9934825Y-15013150D01*
X9934825Y-15013150D02*
X9953873Y-15022674D01*
X9953873Y-15022674D02*
X9963396Y-15041722D01*
X9963396Y-15041722D02*
X9963396Y-15060769D01*
X9963396Y-15060769D02*
X9868158Y-15079817D01*
X10134825Y-15146484D02*
X10134825Y-14946484D01*
X10134825Y-15136960D02*
X10115777Y-15146484D01*
X10115777Y-15146484D02*
X10077682Y-15146484D01*
X10077682Y-15146484D02*
X10058635Y-15136960D01*
X10058635Y-15136960D02*
X10049111Y-15127436D01*
X10049111Y-15127436D02*
X10039587Y-15108388D01*
X10039587Y-15108388D02*
X10039587Y-15051246D01*
X10039587Y-15051246D02*
X10049111Y-15032198D01*
X10049111Y-15032198D02*
X10058635Y-15022674D01*
X10058635Y-15022674D02*
X10077682Y-15013150D01*
X10077682Y-15013150D02*
X10115777Y-15013150D01*
X10115777Y-15013150D02*
X10134825Y-15022674D01*
X10211016Y-15222674D02*
X10220539Y-15213150D01*
X10220539Y-15213150D02*
X10239587Y-15184579D01*
X10239587Y-15184579D02*
X10249111Y-15165531D01*
X10249111Y-15165531D02*
X10258635Y-15136960D01*
X10258635Y-15136960D02*
X10268158Y-15089341D01*
X10268158Y-15089341D02*
X10268158Y-15051246D01*
X10268158Y-15051246D02*
X10258635Y-15003627D01*
X10258635Y-15003627D02*
X10249111Y-14975055D01*
X10249111Y-14975055D02*
X10239587Y-14956008D01*
X10239587Y-14956008D02*
X10220539Y-14927436D01*
X10220539Y-14927436D02*
X10211016Y-14917912D01*
X3455000Y-15319000D02*
G75*
G03*
X3455000Y-15319000I-100000J0D01*
G01*
X3696729Y-15210484D02*
X3820539Y-15210484D01*
X3820539Y-15210484D02*
X3753872Y-15286674D01*
X3753872Y-15286674D02*
X3782443Y-15286674D01*
X3782443Y-15286674D02*
X3801491Y-15296198D01*
X3801491Y-15296198D02*
X3811015Y-15305722D01*
X3811015Y-15305722D02*
X3820539Y-15324769D01*
X3820539Y-15324769D02*
X3820539Y-15372388D01*
X3820539Y-15372388D02*
X3811015Y-15391436D01*
X3811015Y-15391436D02*
X3801491Y-15400960D01*
X3801491Y-15400960D02*
X3782443Y-15410484D01*
X3782443Y-15410484D02*
X3725301Y-15410484D01*
X3725301Y-15410484D02*
X3706253Y-15400960D01*
X3706253Y-15400960D02*
X3696729Y-15391436D01*
X3906253Y-15391436D02*
X3915777Y-15400960D01*
X3915777Y-15400960D02*
X3906253Y-15410484D01*
X3906253Y-15410484D02*
X3896729Y-15400960D01*
X3896729Y-15400960D02*
X3906253Y-15391436D01*
X3906253Y-15391436D02*
X3906253Y-15410484D01*
X4039586Y-15210484D02*
X4058634Y-15210484D01*
X4058634Y-15210484D02*
X4077682Y-15220008D01*
X4077682Y-15220008D02*
X4087205Y-15229531D01*
X4087205Y-15229531D02*
X4096729Y-15248579D01*
X4096729Y-15248579D02*
X4106253Y-15286674D01*
X4106253Y-15286674D02*
X4106253Y-15334293D01*
X4106253Y-15334293D02*
X4096729Y-15372388D01*
X4096729Y-15372388D02*
X4087205Y-15391436D01*
X4087205Y-15391436D02*
X4077682Y-15400960D01*
X4077682Y-15400960D02*
X4058634Y-15410484D01*
X4058634Y-15410484D02*
X4039586Y-15410484D01*
X4039586Y-15410484D02*
X4020539Y-15400960D01*
X4020539Y-15400960D02*
X4011015Y-15391436D01*
X4011015Y-15391436D02*
X4001491Y-15372388D01*
X4001491Y-15372388D02*
X3991967Y-15334293D01*
X3991967Y-15334293D02*
X3991967Y-15286674D01*
X3991967Y-15286674D02*
X4001491Y-15248579D01*
X4001491Y-15248579D02*
X4011015Y-15229531D01*
X4011015Y-15229531D02*
X4020539Y-15220008D01*
X4020539Y-15220008D02*
X4039586Y-15210484D01*
X4230063Y-15210484D02*
X4249110Y-15210484D01*
X4249110Y-15210484D02*
X4268158Y-15220008D01*
X4268158Y-15220008D02*
X4277682Y-15229531D01*
X4277682Y-15229531D02*
X4287205Y-15248579D01*
X4287205Y-15248579D02*
X4296729Y-15286674D01*
X4296729Y-15286674D02*
X4296729Y-15334293D01*
X4296729Y-15334293D02*
X4287205Y-15372388D01*
X4287205Y-15372388D02*
X4277682Y-15391436D01*
X4277682Y-15391436D02*
X4268158Y-15400960D01*
X4268158Y-15400960D02*
X4249110Y-15410484D01*
X4249110Y-15410484D02*
X4230063Y-15410484D01*
X4230063Y-15410484D02*
X4211015Y-15400960D01*
X4211015Y-15400960D02*
X4201491Y-15391436D01*
X4201491Y-15391436D02*
X4191967Y-15372388D01*
X4191967Y-15372388D02*
X4182443Y-15334293D01*
X4182443Y-15334293D02*
X4182443Y-15286674D01*
X4182443Y-15286674D02*
X4191967Y-15248579D01*
X4191967Y-15248579D02*
X4201491Y-15229531D01*
X4201491Y-15229531D02*
X4211015Y-15220008D01*
X4211015Y-15220008D02*
X4230063Y-15210484D01*
X4420539Y-15210484D02*
X4439586Y-15210484D01*
X4439586Y-15210484D02*
X4458634Y-15220008D01*
X4458634Y-15220008D02*
X4468158Y-15229531D01*
X4468158Y-15229531D02*
X4477682Y-15248579D01*
X4477682Y-15248579D02*
X4487205Y-15286674D01*
X4487205Y-15286674D02*
X4487205Y-15334293D01*
X4487205Y-15334293D02*
X4477682Y-15372388D01*
X4477682Y-15372388D02*
X4468158Y-15391436D01*
X4468158Y-15391436D02*
X4458634Y-15400960D01*
X4458634Y-15400960D02*
X4439586Y-15410484D01*
X4439586Y-15410484D02*
X4420539Y-15410484D01*
X4420539Y-15410484D02*
X4401491Y-15400960D01*
X4401491Y-15400960D02*
X4391967Y-15391436D01*
X4391967Y-15391436D02*
X4382444Y-15372388D01*
X4382444Y-15372388D02*
X4372920Y-15334293D01*
X4372920Y-15334293D02*
X4372920Y-15286674D01*
X4372920Y-15286674D02*
X4382444Y-15248579D01*
X4382444Y-15248579D02*
X4391967Y-15229531D01*
X4391967Y-15229531D02*
X4401491Y-15220008D01*
X4401491Y-15220008D02*
X4420539Y-15210484D01*
X4572920Y-15410484D02*
X4572920Y-15277150D01*
X4572920Y-15296198D02*
X4582444Y-15286674D01*
X4582444Y-15286674D02*
X4601491Y-15277150D01*
X4601491Y-15277150D02*
X4630063Y-15277150D01*
X4630063Y-15277150D02*
X4649110Y-15286674D01*
X4649110Y-15286674D02*
X4658634Y-15305722D01*
X4658634Y-15305722D02*
X4658634Y-15410484D01*
X4658634Y-15305722D02*
X4668158Y-15286674D01*
X4668158Y-15286674D02*
X4687205Y-15277150D01*
X4687205Y-15277150D02*
X4715777Y-15277150D01*
X4715777Y-15277150D02*
X4734825Y-15286674D01*
X4734825Y-15286674D02*
X4744348Y-15305722D01*
X4744348Y-15305722D02*
X4744348Y-15410484D01*
X4839586Y-15410484D02*
X4839586Y-15277150D01*
X4839586Y-15296198D02*
X4849110Y-15286674D01*
X4849110Y-15286674D02*
X4868158Y-15277150D01*
X4868158Y-15277150D02*
X4896729Y-15277150D01*
X4896729Y-15277150D02*
X4915777Y-15286674D01*
X4915777Y-15286674D02*
X4925301Y-15305722D01*
X4925301Y-15305722D02*
X4925301Y-15410484D01*
X4925301Y-15305722D02*
X4934825Y-15286674D01*
X4934825Y-15286674D02*
X4953872Y-15277150D01*
X4953872Y-15277150D02*
X4982444Y-15277150D01*
X4982444Y-15277150D02*
X5001491Y-15286674D01*
X5001491Y-15286674D02*
X5011015Y-15305722D01*
X5011015Y-15305722D02*
X5011015Y-15410484D01*
X5401491Y-15200960D02*
X5230063Y-15458103D01*
X5658634Y-15210484D02*
X5677682Y-15210484D01*
X5677682Y-15210484D02*
X5696729Y-15220008D01*
X5696729Y-15220008D02*
X5706253Y-15229531D01*
X5706253Y-15229531D02*
X5715777Y-15248579D01*
X5715777Y-15248579D02*
X5725301Y-15286674D01*
X5725301Y-15286674D02*
X5725301Y-15334293D01*
X5725301Y-15334293D02*
X5715777Y-15372388D01*
X5715777Y-15372388D02*
X5706253Y-15391436D01*
X5706253Y-15391436D02*
X5696729Y-15400960D01*
X5696729Y-15400960D02*
X5677682Y-15410484D01*
X5677682Y-15410484D02*
X5658634Y-15410484D01*
X5658634Y-15410484D02*
X5639586Y-15400960D01*
X5639586Y-15400960D02*
X5630063Y-15391436D01*
X5630063Y-15391436D02*
X5620539Y-15372388D01*
X5620539Y-15372388D02*
X5611015Y-15334293D01*
X5611015Y-15334293D02*
X5611015Y-15286674D01*
X5611015Y-15286674D02*
X5620539Y-15248579D01*
X5620539Y-15248579D02*
X5630063Y-15229531D01*
X5630063Y-15229531D02*
X5639586Y-15220008D01*
X5639586Y-15220008D02*
X5658634Y-15210484D01*
X5811015Y-15391436D02*
X5820539Y-15400960D01*
X5820539Y-15400960D02*
X5811015Y-15410484D01*
X5811015Y-15410484D02*
X5801491Y-15400960D01*
X5801491Y-15400960D02*
X5811015Y-15391436D01*
X5811015Y-15391436D02*
X5811015Y-15410484D01*
X6011015Y-15410484D02*
X5896729Y-15410484D01*
X5953872Y-15410484D02*
X5953872Y-15210484D01*
X5953872Y-15210484D02*
X5934825Y-15239055D01*
X5934825Y-15239055D02*
X5915777Y-15258103D01*
X5915777Y-15258103D02*
X5896729Y-15267627D01*
X6201491Y-15410484D02*
X6087206Y-15410484D01*
X6144348Y-15410484D02*
X6144348Y-15210484D01*
X6144348Y-15210484D02*
X6125301Y-15239055D01*
X6125301Y-15239055D02*
X6106253Y-15258103D01*
X6106253Y-15258103D02*
X6087206Y-15267627D01*
X6315777Y-15296198D02*
X6296729Y-15286674D01*
X6296729Y-15286674D02*
X6287206Y-15277150D01*
X6287206Y-15277150D02*
X6277682Y-15258103D01*
X6277682Y-15258103D02*
X6277682Y-15248579D01*
X6277682Y-15248579D02*
X6287206Y-15229531D01*
X6287206Y-15229531D02*
X6296729Y-15220008D01*
X6296729Y-15220008D02*
X6315777Y-15210484D01*
X6315777Y-15210484D02*
X6353872Y-15210484D01*
X6353872Y-15210484D02*
X6372920Y-15220008D01*
X6372920Y-15220008D02*
X6382444Y-15229531D01*
X6382444Y-15229531D02*
X6391967Y-15248579D01*
X6391967Y-15248579D02*
X6391967Y-15258103D01*
X6391967Y-15258103D02*
X6382444Y-15277150D01*
X6382444Y-15277150D02*
X6372920Y-15286674D01*
X6372920Y-15286674D02*
X6353872Y-15296198D01*
X6353872Y-15296198D02*
X6315777Y-15296198D01*
X6315777Y-15296198D02*
X6296729Y-15305722D01*
X6296729Y-15305722D02*
X6287206Y-15315246D01*
X6287206Y-15315246D02*
X6277682Y-15334293D01*
X6277682Y-15334293D02*
X6277682Y-15372388D01*
X6277682Y-15372388D02*
X6287206Y-15391436D01*
X6287206Y-15391436D02*
X6296729Y-15400960D01*
X6296729Y-15400960D02*
X6315777Y-15410484D01*
X6315777Y-15410484D02*
X6353872Y-15410484D01*
X6353872Y-15410484D02*
X6372920Y-15400960D01*
X6372920Y-15400960D02*
X6382444Y-15391436D01*
X6382444Y-15391436D02*
X6391967Y-15372388D01*
X6391967Y-15372388D02*
X6391967Y-15334293D01*
X6391967Y-15334293D02*
X6382444Y-15315246D01*
X6382444Y-15315246D02*
X6372920Y-15305722D01*
X6372920Y-15305722D02*
X6353872Y-15296198D01*
X6582444Y-15410484D02*
X6468158Y-15410484D01*
X6525301Y-15410484D02*
X6525301Y-15210484D01*
X6525301Y-15210484D02*
X6506253Y-15239055D01*
X6506253Y-15239055D02*
X6487206Y-15258103D01*
X6487206Y-15258103D02*
X6468158Y-15267627D01*
X6658634Y-15210484D02*
X6658634Y-15248579D01*
X6734825Y-15210484D02*
X6734825Y-15248579D01*
X7030063Y-15486674D02*
X7020539Y-15477150D01*
X7020539Y-15477150D02*
X7001491Y-15448579D01*
X7001491Y-15448579D02*
X6991968Y-15429531D01*
X6991968Y-15429531D02*
X6982444Y-15400960D01*
X6982444Y-15400960D02*
X6972920Y-15353341D01*
X6972920Y-15353341D02*
X6972920Y-15315246D01*
X6972920Y-15315246D02*
X6982444Y-15267627D01*
X6982444Y-15267627D02*
X6991968Y-15239055D01*
X6991968Y-15239055D02*
X7001491Y-15220008D01*
X7001491Y-15220008D02*
X7020539Y-15191436D01*
X7020539Y-15191436D02*
X7030063Y-15181912D01*
X7191968Y-15277150D02*
X7191968Y-15410484D01*
X7144348Y-15200960D02*
X7096729Y-15343817D01*
X7096729Y-15343817D02*
X7220539Y-15343817D01*
X7449110Y-15410484D02*
X7449110Y-15210484D01*
X7534825Y-15410484D02*
X7534825Y-15305722D01*
X7534825Y-15305722D02*
X7525301Y-15286674D01*
X7525301Y-15286674D02*
X7506253Y-15277150D01*
X7506253Y-15277150D02*
X7477682Y-15277150D01*
X7477682Y-15277150D02*
X7458634Y-15286674D01*
X7458634Y-15286674D02*
X7449110Y-15296198D01*
X7658634Y-15410484D02*
X7639587Y-15400960D01*
X7639587Y-15400960D02*
X7630063Y-15391436D01*
X7630063Y-15391436D02*
X7620539Y-15372388D01*
X7620539Y-15372388D02*
X7620539Y-15315246D01*
X7620539Y-15315246D02*
X7630063Y-15296198D01*
X7630063Y-15296198D02*
X7639587Y-15286674D01*
X7639587Y-15286674D02*
X7658634Y-15277150D01*
X7658634Y-15277150D02*
X7687206Y-15277150D01*
X7687206Y-15277150D02*
X7706253Y-15286674D01*
X7706253Y-15286674D02*
X7715777Y-15296198D01*
X7715777Y-15296198D02*
X7725301Y-15315246D01*
X7725301Y-15315246D02*
X7725301Y-15372388D01*
X7725301Y-15372388D02*
X7715777Y-15391436D01*
X7715777Y-15391436D02*
X7706253Y-15400960D01*
X7706253Y-15400960D02*
X7687206Y-15410484D01*
X7687206Y-15410484D02*
X7658634Y-15410484D01*
X7839587Y-15410484D02*
X7820539Y-15400960D01*
X7820539Y-15400960D02*
X7811015Y-15381912D01*
X7811015Y-15381912D02*
X7811015Y-15210484D01*
X7991968Y-15400960D02*
X7972920Y-15410484D01*
X7972920Y-15410484D02*
X7934825Y-15410484D01*
X7934825Y-15410484D02*
X7915777Y-15400960D01*
X7915777Y-15400960D02*
X7906253Y-15381912D01*
X7906253Y-15381912D02*
X7906253Y-15305722D01*
X7906253Y-15305722D02*
X7915777Y-15286674D01*
X7915777Y-15286674D02*
X7934825Y-15277150D01*
X7934825Y-15277150D02*
X7972920Y-15277150D01*
X7972920Y-15277150D02*
X7991968Y-15286674D01*
X7991968Y-15286674D02*
X8001491Y-15305722D01*
X8001491Y-15305722D02*
X8001491Y-15324769D01*
X8001491Y-15324769D02*
X7906253Y-15343817D01*
X8077682Y-15400960D02*
X8096730Y-15410484D01*
X8096730Y-15410484D02*
X8134825Y-15410484D01*
X8134825Y-15410484D02*
X8153872Y-15400960D01*
X8153872Y-15400960D02*
X8163396Y-15381912D01*
X8163396Y-15381912D02*
X8163396Y-15372388D01*
X8163396Y-15372388D02*
X8153872Y-15353341D01*
X8153872Y-15353341D02*
X8134825Y-15343817D01*
X8134825Y-15343817D02*
X8106253Y-15343817D01*
X8106253Y-15343817D02*
X8087206Y-15334293D01*
X8087206Y-15334293D02*
X8077682Y-15315246D01*
X8077682Y-15315246D02*
X8077682Y-15305722D01*
X8077682Y-15305722D02*
X8087206Y-15286674D01*
X8087206Y-15286674D02*
X8106253Y-15277150D01*
X8106253Y-15277150D02*
X8134825Y-15277150D01*
X8134825Y-15277150D02*
X8153872Y-15286674D01*
X8230063Y-15486674D02*
X8239587Y-15477150D01*
X8239587Y-15477150D02*
X8258634Y-15448579D01*
X8258634Y-15448579D02*
X8268158Y-15429531D01*
X8268158Y-15429531D02*
X8277682Y-15400960D01*
X8277682Y-15400960D02*
X8287206Y-15353341D01*
X8287206Y-15353341D02*
X8287206Y-15315246D01*
X8287206Y-15315246D02*
X8277682Y-15267627D01*
X8277682Y-15267627D02*
X8268158Y-15239055D01*
X8268158Y-15239055D02*
X8258634Y-15220008D01*
X8258634Y-15220008D02*
X8239587Y-15191436D01*
X8239587Y-15191436D02*
X8230063Y-15181912D01*
X8591968Y-15486674D02*
X8582444Y-15477150D01*
X8582444Y-15477150D02*
X8563396Y-15448579D01*
X8563396Y-15448579D02*
X8553873Y-15429531D01*
X8553873Y-15429531D02*
X8544349Y-15400960D01*
X8544349Y-15400960D02*
X8534825Y-15353341D01*
X8534825Y-15353341D02*
X8534825Y-15315246D01*
X8534825Y-15315246D02*
X8544349Y-15267627D01*
X8544349Y-15267627D02*
X8553873Y-15239055D01*
X8553873Y-15239055D02*
X8563396Y-15220008D01*
X8563396Y-15220008D02*
X8582444Y-15191436D01*
X8582444Y-15191436D02*
X8591968Y-15181912D01*
X8668158Y-15277150D02*
X8668158Y-15410484D01*
X8668158Y-15296198D02*
X8677682Y-15286674D01*
X8677682Y-15286674D02*
X8696730Y-15277150D01*
X8696730Y-15277150D02*
X8725301Y-15277150D01*
X8725301Y-15277150D02*
X8744349Y-15286674D01*
X8744349Y-15286674D02*
X8753873Y-15305722D01*
X8753873Y-15305722D02*
X8753873Y-15410484D01*
X8877682Y-15410484D02*
X8858634Y-15400960D01*
X8858634Y-15400960D02*
X8849111Y-15391436D01*
X8849111Y-15391436D02*
X8839587Y-15372388D01*
X8839587Y-15372388D02*
X8839587Y-15315246D01*
X8839587Y-15315246D02*
X8849111Y-15296198D01*
X8849111Y-15296198D02*
X8858634Y-15286674D01*
X8858634Y-15286674D02*
X8877682Y-15277150D01*
X8877682Y-15277150D02*
X8906254Y-15277150D01*
X8906254Y-15277150D02*
X8925301Y-15286674D01*
X8925301Y-15286674D02*
X8934825Y-15296198D01*
X8934825Y-15296198D02*
X8944349Y-15315246D01*
X8944349Y-15315246D02*
X8944349Y-15372388D01*
X8944349Y-15372388D02*
X8934825Y-15391436D01*
X8934825Y-15391436D02*
X8925301Y-15400960D01*
X8925301Y-15400960D02*
X8906254Y-15410484D01*
X8906254Y-15410484D02*
X8877682Y-15410484D01*
X9001492Y-15277150D02*
X9077682Y-15277150D01*
X9030063Y-15210484D02*
X9030063Y-15381912D01*
X9030063Y-15381912D02*
X9039587Y-15400960D01*
X9039587Y-15400960D02*
X9058634Y-15410484D01*
X9058634Y-15410484D02*
X9077682Y-15410484D01*
X9296730Y-15277150D02*
X9296730Y-15477150D01*
X9296730Y-15286674D02*
X9315777Y-15277150D01*
X9315777Y-15277150D02*
X9353873Y-15277150D01*
X9353873Y-15277150D02*
X9372920Y-15286674D01*
X9372920Y-15286674D02*
X9382444Y-15296198D01*
X9382444Y-15296198D02*
X9391968Y-15315246D01*
X9391968Y-15315246D02*
X9391968Y-15372388D01*
X9391968Y-15372388D02*
X9382444Y-15391436D01*
X9382444Y-15391436D02*
X9372920Y-15400960D01*
X9372920Y-15400960D02*
X9353873Y-15410484D01*
X9353873Y-15410484D02*
X9315777Y-15410484D01*
X9315777Y-15410484D02*
X9296730Y-15400960D01*
X9506254Y-15410484D02*
X9487206Y-15400960D01*
X9487206Y-15400960D02*
X9477682Y-15381912D01*
X9477682Y-15381912D02*
X9477682Y-15210484D01*
X9668158Y-15410484D02*
X9668158Y-15305722D01*
X9668158Y-15305722D02*
X9658635Y-15286674D01*
X9658635Y-15286674D02*
X9639587Y-15277150D01*
X9639587Y-15277150D02*
X9601492Y-15277150D01*
X9601492Y-15277150D02*
X9582444Y-15286674D01*
X9668158Y-15400960D02*
X9649111Y-15410484D01*
X9649111Y-15410484D02*
X9601492Y-15410484D01*
X9601492Y-15410484D02*
X9582444Y-15400960D01*
X9582444Y-15400960D02*
X9572920Y-15381912D01*
X9572920Y-15381912D02*
X9572920Y-15362865D01*
X9572920Y-15362865D02*
X9582444Y-15343817D01*
X9582444Y-15343817D02*
X9601492Y-15334293D01*
X9601492Y-15334293D02*
X9649111Y-15334293D01*
X9649111Y-15334293D02*
X9668158Y-15324769D01*
X9734825Y-15277150D02*
X9811015Y-15277150D01*
X9763396Y-15210484D02*
X9763396Y-15381912D01*
X9763396Y-15381912D02*
X9772920Y-15400960D01*
X9772920Y-15400960D02*
X9791968Y-15410484D01*
X9791968Y-15410484D02*
X9811015Y-15410484D01*
X9953873Y-15400960D02*
X9934825Y-15410484D01*
X9934825Y-15410484D02*
X9896730Y-15410484D01*
X9896730Y-15410484D02*
X9877682Y-15400960D01*
X9877682Y-15400960D02*
X9868158Y-15381912D01*
X9868158Y-15381912D02*
X9868158Y-15305722D01*
X9868158Y-15305722D02*
X9877682Y-15286674D01*
X9877682Y-15286674D02*
X9896730Y-15277150D01*
X9896730Y-15277150D02*
X9934825Y-15277150D01*
X9934825Y-15277150D02*
X9953873Y-15286674D01*
X9953873Y-15286674D02*
X9963396Y-15305722D01*
X9963396Y-15305722D02*
X9963396Y-15324769D01*
X9963396Y-15324769D02*
X9868158Y-15343817D01*
X10134825Y-15410484D02*
X10134825Y-15210484D01*
X10134825Y-15400960D02*
X10115777Y-15410484D01*
X10115777Y-15410484D02*
X10077682Y-15410484D01*
X10077682Y-15410484D02*
X10058635Y-15400960D01*
X10058635Y-15400960D02*
X10049111Y-15391436D01*
X10049111Y-15391436D02*
X10039587Y-15372388D01*
X10039587Y-15372388D02*
X10039587Y-15315246D01*
X10039587Y-15315246D02*
X10049111Y-15296198D01*
X10049111Y-15296198D02*
X10058635Y-15286674D01*
X10058635Y-15286674D02*
X10077682Y-15277150D01*
X10077682Y-15277150D02*
X10115777Y-15277150D01*
X10115777Y-15277150D02*
X10134825Y-15286674D01*
X10211016Y-15486674D02*
X10220539Y-15477150D01*
X10220539Y-15477150D02*
X10239587Y-15448579D01*
X10239587Y-15448579D02*
X10249111Y-15429531D01*
X10249111Y-15429531D02*
X10258635Y-15400960D01*
X10258635Y-15400960D02*
X10268158Y-15353341D01*
X10268158Y-15353341D02*
X10268158Y-15315246D01*
X10268158Y-15315246D02*
X10258635Y-15267627D01*
X10258635Y-15267627D02*
X10249111Y-15239055D01*
X10249111Y-15239055D02*
X10239587Y-15220008D01*
X10239587Y-15220008D02*
X10220539Y-15191436D01*
X10220539Y-15191436D02*
X10211016Y-15181912D01*
M02*
