%TF.GenerationSoftware,KiCad,Pcbnew,7.0.7*%
%TF.CreationDate,2024-02-25T20:38:01+01:00*%
%TF.ProjectId,TFT_tactil_screen,5446545f-7461-4637-9469-6c5f73637265,rev?*%
%TF.SameCoordinates,Original*%
%TF.FileFunction,Copper,L2,Bot*%
%TF.FilePolarity,Positive*%
%FSLAX46Y46*%
G04 Gerber Fmt 4.6, Leading zero omitted, Abs format (unit mm)*
G04 Created by KiCad (PCBNEW 7.0.7) date 2024-02-25 20:38:01*
%MOMM*%
%LPD*%
G01*
G04 APERTURE LIST*
%TA.AperFunction,ComponentPad*%
%ADD10R,2.200000X2.200000*%
%TD*%
%TA.AperFunction,ComponentPad*%
%ADD11C,2.200000*%
%TD*%
%TA.AperFunction,ComponentPad*%
%ADD12R,2.000000X2.000000*%
%TD*%
%TA.AperFunction,ComponentPad*%
%ADD13C,2.000000*%
%TD*%
%TA.AperFunction,ComponentPad*%
%ADD14C,1.800000*%
%TD*%
%TA.AperFunction,ComponentPad*%
%ADD15R,1.800000X1.800000*%
%TD*%
%TA.AperFunction,ComponentPad*%
%ADD16R,1.700000X1.700000*%
%TD*%
%TA.AperFunction,ComponentPad*%
%ADD17O,1.700000X1.700000*%
%TD*%
%TA.AperFunction,ComponentPad*%
%ADD18O,1.600000X1.600000*%
%TD*%
%TA.AperFunction,ComponentPad*%
%ADD19C,1.600000*%
%TD*%
%TA.AperFunction,ComponentPad*%
%ADD20O,3.048000X1.850000*%
%TD*%
%TA.AperFunction,ViaPad*%
%ADD21C,0.800000*%
%TD*%
%TA.AperFunction,Conductor*%
%ADD22C,0.250000*%
%TD*%
G04 APERTURE END LIST*
D10*
%TO.P,J6,1,Pin_1*%
%TO.N,VCC*%
X39000000Y-100000000D03*
D11*
%TO.P,J6,2,Pin_2*%
%TO.N,GND*%
X39000000Y-102540000D03*
%TD*%
D12*
%TO.P,U1,1,3V3*%
%TO.N,VCC*%
X61930000Y-83990000D03*
D13*
%TO.P,U1,2,GND*%
%TO.N,GND*%
X61930000Y-81450000D03*
%TO.P,U1,3,D15*%
%TO.N,D15*%
X61930000Y-78910000D03*
%TO.P,U1,4,D2*%
%TO.N,D2*%
X61930000Y-76370000D03*
%TO.P,U1,5,D4*%
%TO.N,D4*%
X61930000Y-73830000D03*
%TO.P,U1,6,RX2*%
%TO.N,unconnected-(U1-RX2-Pad6)*%
X61930000Y-71290000D03*
%TO.P,U1,7,TX2*%
%TO.N,unconnected-(U1-TX2-Pad7)*%
X61930000Y-68750000D03*
%TO.P,U1,8,D5*%
%TO.N,D5*%
X61930000Y-66210000D03*
%TO.P,U1,9,D18*%
%TO.N,D18*%
X61930000Y-63670000D03*
%TO.P,U1,10,D19*%
%TO.N,D19*%
X61930000Y-61130000D03*
%TO.P,U1,11,D21*%
%TO.N,D21*%
X61930000Y-58590000D03*
%TO.P,U1,12,RX0*%
%TO.N,unconnected-(U1-RX0-Pad12)*%
X61930000Y-56050000D03*
%TO.P,U1,13,TX0*%
%TO.N,unconnected-(U1-TX0-Pad13)*%
X61930000Y-53510000D03*
%TO.P,U1,14,D22*%
%TO.N,D22*%
X61930000Y-50970000D03*
%TO.P,U1,15,D23*%
%TO.N,D23*%
X61930000Y-48430000D03*
%TO.P,U1,16,EN*%
%TO.N,unconnected-(U1-EN-Pad16)*%
X36530000Y-48430000D03*
%TO.P,U1,17,VP*%
%TO.N,unconnected-(U1-VP-Pad17)*%
X36530000Y-50970000D03*
%TO.P,U1,18,VN*%
%TO.N,unconnected-(U1-VN-Pad18)*%
X36530000Y-53510000D03*
%TO.P,U1,19,D34*%
%TO.N,D34*%
X36530000Y-56050000D03*
%TO.P,U1,20,D35*%
%TO.N,D35*%
X36530000Y-58590000D03*
%TO.P,U1,21,D32*%
%TO.N,D32*%
X36530000Y-61130000D03*
%TO.P,U1,22,D33*%
%TO.N,D33*%
X36530000Y-63670000D03*
%TO.P,U1,23,D25*%
%TO.N,D25*%
X36530000Y-66210000D03*
%TO.P,U1,24,D26*%
%TO.N,D26*%
X36530000Y-68750000D03*
%TO.P,U1,25,D27*%
%TO.N,D27*%
X36530000Y-71290000D03*
%TO.P,U1,26,D14*%
%TO.N,D14*%
X36530000Y-73830000D03*
%TO.P,U1,27,D12*%
%TO.N,D12*%
X36530000Y-76370000D03*
%TO.P,U1,28,D13*%
%TO.N,D13*%
X36530000Y-78910000D03*
%TO.P,U1,29,GND*%
%TO.N,GND*%
X36530000Y-81450000D03*
%TO.P,U1,30,VIN*%
%TO.N,unconnected-(U1-VIN-Pad30)*%
X36530000Y-83990000D03*
%TD*%
D14*
%TO.P,D3,2,A*%
%TO.N,Net-(D3-A)*%
X45040000Y-140000000D03*
D15*
%TO.P,D3,1,K*%
%TO.N,GND*%
X42500000Y-140000000D03*
%TD*%
D16*
%TO.P,J5,1,Pin_1*%
%TO.N,D25*%
X57000000Y-114000000D03*
D17*
%TO.P,J5,2,Pin_2*%
%TO.N,VCC*%
X59540000Y-114000000D03*
%TO.P,J5,3,Pin_3*%
%TO.N,GND*%
X62080000Y-114000000D03*
%TD*%
D18*
%TO.P,R3,2*%
%TO.N,Net-(D3-A)*%
X57000000Y-106080000D03*
D19*
%TO.P,R3,1*%
%TO.N,D14*%
X57000000Y-95920000D03*
%TD*%
D16*
%TO.P,J2,1,Pin_1*%
%TO.N,D26*%
X70000000Y-122000000D03*
D17*
%TO.P,J2,2,Pin_2*%
%TO.N,VCC*%
X72540000Y-122000000D03*
%TO.P,J2,3,Pin_3*%
%TO.N,GND*%
X75080000Y-122000000D03*
%TD*%
D16*
%TO.P,J3,1,Pin_1*%
%TO.N,VCC*%
X72000000Y-45000000D03*
D17*
%TO.P,J3,2,Pin_2*%
%TO.N,D34*%
X74540000Y-45000000D03*
%TO.P,J3,3,Pin_3*%
%TO.N,GND*%
X77080000Y-45000000D03*
%TD*%
%TO.P,J4,3,Pin_3*%
%TO.N,GND*%
X77080000Y-81000000D03*
%TO.P,J4,2,Pin_2*%
%TO.N,D35*%
X74540000Y-81000000D03*
D16*
%TO.P,J4,1,Pin_1*%
%TO.N,VCC*%
X72000000Y-81000000D03*
%TD*%
D18*
%TO.P,R2,2*%
%TO.N,Net-(D2-A)*%
X53000000Y-106080000D03*
D19*
%TO.P,R2,1*%
%TO.N,D13*%
X53000000Y-95920000D03*
%TD*%
D18*
%TO.P,R1,2*%
%TO.N,Net-(D1-A)*%
X49000000Y-106080000D03*
D19*
%TO.P,R1,1*%
%TO.N,D12*%
X49000000Y-95920000D03*
%TD*%
D14*
%TO.P,D2,2,A*%
%TO.N,Net-(D2-A)*%
X50540000Y-140000000D03*
D15*
%TO.P,D2,1,K*%
%TO.N,GND*%
X48000000Y-140000000D03*
%TD*%
D14*
%TO.P,D1,2,A*%
%TO.N,Net-(D1-A)*%
X56040000Y-140000000D03*
D15*
%TO.P,D1,1,K*%
%TO.N,GND*%
X53500000Y-140000000D03*
%TD*%
D17*
%TO.P,J1,4,Pin_4*%
%TO.N,D12*%
X61320000Y-134000000D03*
%TO.P,J1,3,Pin_3*%
X58780000Y-134000000D03*
%TO.P,J1,2,Pin_2*%
%TO.N,D13*%
X56240000Y-134000000D03*
D16*
%TO.P,J1,1,Pin_1*%
X53700000Y-134000000D03*
%TD*%
D19*
%TO.P,R4,1*%
%TO.N,D33*%
X61000000Y-95920000D03*
D18*
%TO.P,R4,2*%
%TO.N,GND*%
X61000000Y-106080000D03*
%TD*%
D20*
%TO.P,SW2,1,1*%
%TO.N,VCC*%
X49240000Y-118500000D03*
X36740000Y-118500000D03*
%TO.P,SW2,2,2*%
%TO.N,D22*%
X49240000Y-113500000D03*
X36740000Y-113500000D03*
%TD*%
D19*
%TO.P,R5,1*%
%TO.N,D22*%
X65000000Y-95920000D03*
D18*
%TO.P,R5,2*%
%TO.N,GND*%
X65000000Y-106080000D03*
%TD*%
D20*
%TO.P,SW1,2,2*%
%TO.N,D33*%
X36740000Y-127050000D03*
X49240000Y-127050000D03*
%TO.P,SW1,1,1*%
%TO.N,VCC*%
X36740000Y-132050000D03*
X49240000Y-132050000D03*
%TD*%
D13*
%TO.P,S1,1,VDD*%
%TO.N,VCC*%
X49000000Y-38000000D03*
%TO.P,S1,2,GND*%
%TO.N,GND*%
X51540000Y-38000000D03*
%TO.P,S1,3,CS*%
%TO.N,D15*%
X54080000Y-38000000D03*
%TO.P,S1,4,RST*%
%TO.N,D4*%
X56620000Y-38000000D03*
%TO.P,S1,5,OC*%
%TO.N,D2*%
X59160000Y-38000000D03*
%TO.P,S1,6,SDI*%
%TO.N,D23*%
X61700000Y-38000000D03*
%TO.P,S1,7,SCK*%
%TO.N,D18*%
X64240000Y-38000000D03*
%TO.P,S1,8,BL*%
%TO.N,D32*%
X66780000Y-38000000D03*
%TO.P,S1,9,SDO*%
%TO.N,unconnected-(S1-SDO-Pad9)*%
X69320000Y-38000000D03*
%TO.P,S1,10,TCK*%
%TO.N,D18*%
X71860000Y-38000000D03*
%TO.P,S1,11,TCS*%
%TO.N,D21*%
X74400000Y-38000000D03*
%TO.P,S1,12,TDI*%
%TO.N,D23*%
X76940000Y-38000000D03*
%TO.P,S1,13,TDO*%
%TO.N,D19*%
X79480000Y-38000000D03*
%TO.P,S1,14,PEN*%
%TO.N,D27*%
X82020000Y-38000000D03*
%TO.P,S1,15,SCS*%
%TO.N,D5*%
X61640000Y-142400000D03*
%TO.P,S1,16,SDI*%
%TO.N,D23*%
X64180000Y-142400000D03*
%TO.P,S1,17,SDO*%
%TO.N,D19*%
X66720000Y-142400000D03*
%TO.P,S1,18,CLK*%
%TO.N,D18*%
X69260000Y-142400000D03*
%TD*%
D21*
%TO.N,D22*%
X68805900Y-93270900D03*
%TO.N,D33*%
X61861400Y-116540000D03*
%TO.N,D26*%
X60576800Y-118617000D03*
%TO.N,D4*%
X62000000Y-40000000D03*
%TO.N,D18*%
X66485600Y-57045800D03*
%TO.N,D19*%
X66720000Y-68350400D03*
%TO.N,D23*%
X73810000Y-133255000D03*
%TO.N,D32*%
X56000000Y-41000000D03*
X66000000Y-40064700D03*
%TO.N,Net-(D1-A)*%
X53178100Y-111385000D03*
%TD*%
D22*
%TO.N,D22*%
X65578400Y-96498400D02*
X65000000Y-95920000D01*
X65578400Y-96498400D02*
X68805900Y-93270900D01*
X36740000Y-113500000D02*
X49240000Y-113500000D01*
X66156800Y-97076800D02*
X65578400Y-96498400D01*
X66156800Y-106522000D02*
X66156800Y-97076800D01*
X59978100Y-112700000D02*
X66156800Y-106522000D01*
X51890700Y-112700000D02*
X59978100Y-112700000D01*
X51090900Y-113500000D02*
X51890700Y-112700000D01*
X49240000Y-113500000D02*
X51090900Y-113500000D01*
%TO.N,D33*%
X49265600Y-76405600D02*
X36530000Y-63670000D01*
X49265600Y-84185600D02*
X49265600Y-76405600D01*
X61000000Y-95920000D02*
X49265600Y-84185600D01*
X36740000Y-127050000D02*
X49240000Y-127050000D01*
X61600500Y-116540000D02*
X61861400Y-116540000D01*
X51090900Y-127050000D02*
X61600500Y-116540000D01*
X49240000Y-127050000D02*
X51090900Y-127050000D01*
%TO.N,D35*%
X60449400Y-82509400D02*
X36530000Y-58590000D01*
X60449400Y-84979400D02*
X60449400Y-82509400D01*
X60792900Y-85322900D02*
X60449400Y-84979400D01*
X69849300Y-85322900D02*
X60792900Y-85322900D01*
X73363100Y-81809100D02*
X69849300Y-85322900D01*
X73363100Y-81000000D02*
X73363100Y-81809100D01*
X74540000Y-81000000D02*
X73363100Y-81000000D01*
%TO.N,D34*%
X73363100Y-45000000D02*
X74540000Y-45000000D01*
X73363100Y-45809100D02*
X73363100Y-45000000D01*
X72082300Y-47089900D02*
X73363100Y-45809100D01*
X61377600Y-47089900D02*
X72082300Y-47089900D01*
X52417500Y-56050000D02*
X61377600Y-47089900D01*
X36530000Y-56050000D02*
X52417500Y-56050000D01*
%TO.N,D26*%
X63960100Y-122000000D02*
X60576800Y-118617000D01*
X70000000Y-122000000D02*
X63960100Y-122000000D01*
%TO.N,VCC*%
X54695400Y-118500000D02*
X49240000Y-118500000D01*
X58363100Y-114832000D02*
X54695400Y-118500000D01*
X58363100Y-114000000D02*
X58363100Y-114832000D01*
X59540000Y-114000000D02*
X58363100Y-114000000D01*
X66246900Y-81000000D02*
X72000000Y-81000000D01*
X63256900Y-83990000D02*
X66246900Y-81000000D01*
X61930000Y-83990000D02*
X63256900Y-83990000D01*
X60716900Y-114000000D02*
X59540000Y-114000000D01*
X60716900Y-114366000D02*
X60716900Y-114000000D01*
X66722300Y-120371000D02*
X60716900Y-114366000D01*
X70543500Y-120371000D02*
X66722300Y-120371000D01*
X71363100Y-121191000D02*
X70543500Y-120371000D01*
X71363100Y-122000000D02*
X71363100Y-121191000D01*
X72540000Y-122000000D02*
X71363100Y-122000000D01*
X53412300Y-42412300D02*
X49000000Y-38000000D01*
X68235400Y-42412300D02*
X53412300Y-42412300D01*
X70823100Y-45000000D02*
X68235400Y-42412300D01*
X72000000Y-45000000D02*
X70823100Y-45000000D01*
%TO.N,D4*%
X58620000Y-40000000D02*
X56620000Y-38000000D01*
X62000000Y-40000000D02*
X58620000Y-40000000D01*
%TO.N,D18*%
X71860000Y-38000000D02*
X71836600Y-38023400D01*
X65580200Y-39340200D02*
X64240000Y-38000000D01*
X70519800Y-39340200D02*
X65580200Y-39340200D01*
X71836600Y-38023400D02*
X70519800Y-39340200D01*
X66700800Y-57045800D02*
X66485600Y-57045800D01*
X78258000Y-45488600D02*
X66700800Y-57045800D01*
X78258000Y-44444800D02*
X78258000Y-45488600D01*
X71836600Y-38023400D02*
X78258000Y-44444800D01*
%TO.N,D19*%
X64092100Y-65722500D02*
X66720000Y-68350400D01*
X64092100Y-61130000D02*
X64092100Y-65722500D01*
X61930000Y-61130000D02*
X64092100Y-61130000D01*
X79480000Y-45742100D02*
X79480000Y-38000000D01*
X64092100Y-61130000D02*
X79480000Y-45742100D01*
%TO.N,D21*%
X65969700Y-58590000D02*
X61930000Y-58590000D01*
X78709900Y-45849800D02*
X65969700Y-58590000D01*
X78709900Y-42309900D02*
X78709900Y-45849800D01*
X74400000Y-38000000D02*
X78709900Y-42309900D01*
%TO.N,D23*%
X73325000Y-133255000D02*
X73810000Y-133255000D01*
X64180000Y-142400000D02*
X73325000Y-133255000D01*
%TO.N,D32*%
X66000000Y-41000000D02*
X66000000Y-40064700D01*
X56000000Y-41000000D02*
X66000000Y-41000000D01*
%TO.N,D27*%
X80138200Y-39881800D02*
X82020000Y-38000000D01*
X80138200Y-79610800D02*
X80138200Y-39881800D01*
X75910600Y-83838400D02*
X80138200Y-79610800D01*
X74682400Y-83838400D02*
X75910600Y-83838400D01*
X61453000Y-97067800D02*
X74682400Y-83838400D01*
X60482500Y-97067800D02*
X61453000Y-97067800D01*
X48354100Y-84939400D02*
X60482500Y-97067800D01*
X48354100Y-83114100D02*
X48354100Y-84939400D01*
X36530000Y-71290000D02*
X48354100Y-83114100D01*
%TO.N,D14*%
X57000000Y-94300000D02*
X57000000Y-95920000D01*
X36530000Y-73830000D02*
X57000000Y-94300000D01*
%TO.N,Net-(D1-A)*%
X49000000Y-107207000D02*
X53178100Y-111385000D01*
X49000000Y-106080000D02*
X49000000Y-107207000D01*
%TO.N,D13*%
X53700000Y-134000000D02*
X56240000Y-134000000D01*
X53000000Y-95380000D02*
X36530000Y-78910000D01*
X53000000Y-95920000D02*
X53000000Y-95380000D01*
%TO.N,GND*%
X37997200Y-82917200D02*
X36530000Y-81450000D01*
X37997200Y-88584500D02*
X37997200Y-82917200D01*
X40461400Y-91048700D02*
X37997200Y-88584500D01*
X40461400Y-102540000D02*
X40461400Y-91048700D01*
X40461400Y-102540000D02*
X39000000Y-102540000D01*
X46773100Y-140000000D02*
X48000000Y-140000000D01*
X46773100Y-140077000D02*
X46773100Y-140000000D01*
X45622900Y-141227000D02*
X46773100Y-140077000D01*
X44493600Y-141227000D02*
X45622900Y-141227000D01*
X43726900Y-140460000D02*
X44493600Y-141227000D01*
X43726900Y-140000000D02*
X43726900Y-140460000D01*
X42500000Y-140000000D02*
X43726900Y-140000000D01*
X73903100Y-122000000D02*
X74491600Y-122000000D01*
X73903100Y-121634000D02*
X73903100Y-122000000D01*
X66268900Y-114000000D02*
X73903100Y-121634000D01*
X62080000Y-114000000D02*
X66268900Y-114000000D01*
X74491600Y-122520000D02*
X74491600Y-122000000D01*
X58238300Y-138773000D02*
X74491600Y-122520000D01*
X55493600Y-138773000D02*
X58238300Y-138773000D01*
X54726900Y-139540000D02*
X55493600Y-138773000D01*
X54726900Y-140000000D02*
X54726900Y-139540000D01*
X53500000Y-140000000D02*
X54726900Y-140000000D01*
X63556900Y-79823100D02*
X61930000Y-81450000D01*
X75094100Y-79823100D02*
X63556900Y-79823100D01*
X75903100Y-80632100D02*
X75094100Y-79823100D01*
X75903100Y-81000000D02*
X75903100Y-80632100D01*
X77080000Y-81000000D02*
X75903100Y-81000000D01*
X55308200Y-41768200D02*
X51540000Y-38000000D01*
X73037100Y-41768200D02*
X55308200Y-41768200D01*
X75903100Y-44634200D02*
X73037100Y-41768200D01*
X75903100Y-45000000D02*
X75903100Y-44634200D01*
X77080000Y-45000000D02*
X75903100Y-45000000D01*
X75080000Y-122000000D02*
X74491600Y-122000000D01*
X65000000Y-106080000D02*
X61000000Y-106080000D01*
X56333100Y-102540000D02*
X40461400Y-102540000D01*
X59873100Y-106080000D02*
X56333100Y-102540000D01*
X61000000Y-106080000D02*
X59873100Y-106080000D01*
%TD*%
M02*
