%TF.GenerationSoftware,KiCad,Pcbnew,7.0.7*%
%TF.CreationDate,2024-02-25T20:38:01+01:00*%
%TF.ProjectId,TFT_tactil_screen,5446545f-7461-4637-9469-6c5f73637265,rev?*%
%TF.SameCoordinates,Original*%
%TF.FileFunction,Copper,L1,Top*%
%TF.FilePolarity,Positive*%
%FSLAX46Y46*%
G04 Gerber Fmt 4.6, Leading zero omitted, Abs format (unit mm)*
G04 Created by KiCad (PCBNEW 7.0.7) date 2024-02-25 20:38:01*
%MOMM*%
%LPD*%
G01*
G04 APERTURE LIST*
%TA.AperFunction,ComponentPad*%
%ADD10R,2.200000X2.200000*%
%TD*%
%TA.AperFunction,ComponentPad*%
%ADD11C,2.200000*%
%TD*%
%TA.AperFunction,ComponentPad*%
%ADD12R,2.000000X2.000000*%
%TD*%
%TA.AperFunction,ComponentPad*%
%ADD13C,2.000000*%
%TD*%
%TA.AperFunction,ComponentPad*%
%ADD14C,1.800000*%
%TD*%
%TA.AperFunction,ComponentPad*%
%ADD15R,1.800000X1.800000*%
%TD*%
%TA.AperFunction,ComponentPad*%
%ADD16R,1.700000X1.700000*%
%TD*%
%TA.AperFunction,ComponentPad*%
%ADD17O,1.700000X1.700000*%
%TD*%
%TA.AperFunction,ComponentPad*%
%ADD18O,1.600000X1.600000*%
%TD*%
%TA.AperFunction,ComponentPad*%
%ADD19C,1.600000*%
%TD*%
%TA.AperFunction,ComponentPad*%
%ADD20O,3.048000X1.850000*%
%TD*%
%TA.AperFunction,ViaPad*%
%ADD21C,0.800000*%
%TD*%
%TA.AperFunction,Conductor*%
%ADD22C,0.250000*%
%TD*%
G04 APERTURE END LIST*
D10*
%TO.P,J6,1,Pin_1*%
%TO.N,VCC*%
X39000000Y-100000000D03*
D11*
%TO.P,J6,2,Pin_2*%
%TO.N,GND*%
X39000000Y-102540000D03*
%TD*%
D12*
%TO.P,U1,1,3V3*%
%TO.N,VCC*%
X61930000Y-83990000D03*
D13*
%TO.P,U1,2,GND*%
%TO.N,GND*%
X61930000Y-81450000D03*
%TO.P,U1,3,D15*%
%TO.N,D15*%
X61930000Y-78910000D03*
%TO.P,U1,4,D2*%
%TO.N,D2*%
X61930000Y-76370000D03*
%TO.P,U1,5,D4*%
%TO.N,D4*%
X61930000Y-73830000D03*
%TO.P,U1,6,RX2*%
%TO.N,unconnected-(U1-RX2-Pad6)*%
X61930000Y-71290000D03*
%TO.P,U1,7,TX2*%
%TO.N,unconnected-(U1-TX2-Pad7)*%
X61930000Y-68750000D03*
%TO.P,U1,8,D5*%
%TO.N,D5*%
X61930000Y-66210000D03*
%TO.P,U1,9,D18*%
%TO.N,D18*%
X61930000Y-63670000D03*
%TO.P,U1,10,D19*%
%TO.N,D19*%
X61930000Y-61130000D03*
%TO.P,U1,11,D21*%
%TO.N,D21*%
X61930000Y-58590000D03*
%TO.P,U1,12,RX0*%
%TO.N,unconnected-(U1-RX0-Pad12)*%
X61930000Y-56050000D03*
%TO.P,U1,13,TX0*%
%TO.N,unconnected-(U1-TX0-Pad13)*%
X61930000Y-53510000D03*
%TO.P,U1,14,D22*%
%TO.N,D22*%
X61930000Y-50970000D03*
%TO.P,U1,15,D23*%
%TO.N,D23*%
X61930000Y-48430000D03*
%TO.P,U1,16,EN*%
%TO.N,unconnected-(U1-EN-Pad16)*%
X36530000Y-48430000D03*
%TO.P,U1,17,VP*%
%TO.N,unconnected-(U1-VP-Pad17)*%
X36530000Y-50970000D03*
%TO.P,U1,18,VN*%
%TO.N,unconnected-(U1-VN-Pad18)*%
X36530000Y-53510000D03*
%TO.P,U1,19,D34*%
%TO.N,D34*%
X36530000Y-56050000D03*
%TO.P,U1,20,D35*%
%TO.N,D35*%
X36530000Y-58590000D03*
%TO.P,U1,21,D32*%
%TO.N,D32*%
X36530000Y-61130000D03*
%TO.P,U1,22,D33*%
%TO.N,D33*%
X36530000Y-63670000D03*
%TO.P,U1,23,D25*%
%TO.N,D25*%
X36530000Y-66210000D03*
%TO.P,U1,24,D26*%
%TO.N,D26*%
X36530000Y-68750000D03*
%TO.P,U1,25,D27*%
%TO.N,D27*%
X36530000Y-71290000D03*
%TO.P,U1,26,D14*%
%TO.N,D14*%
X36530000Y-73830000D03*
%TO.P,U1,27,D12*%
%TO.N,D12*%
X36530000Y-76370000D03*
%TO.P,U1,28,D13*%
%TO.N,D13*%
X36530000Y-78910000D03*
%TO.P,U1,29,GND*%
%TO.N,GND*%
X36530000Y-81450000D03*
%TO.P,U1,30,VIN*%
%TO.N,unconnected-(U1-VIN-Pad30)*%
X36530000Y-83990000D03*
%TD*%
D14*
%TO.P,D3,2,A*%
%TO.N,Net-(D3-A)*%
X45040000Y-140000000D03*
D15*
%TO.P,D3,1,K*%
%TO.N,GND*%
X42500000Y-140000000D03*
%TD*%
D16*
%TO.P,J5,1,Pin_1*%
%TO.N,D25*%
X57000000Y-114000000D03*
D17*
%TO.P,J5,2,Pin_2*%
%TO.N,VCC*%
X59540000Y-114000000D03*
%TO.P,J5,3,Pin_3*%
%TO.N,GND*%
X62080000Y-114000000D03*
%TD*%
D18*
%TO.P,R3,2*%
%TO.N,Net-(D3-A)*%
X57000000Y-106080000D03*
D19*
%TO.P,R3,1*%
%TO.N,D14*%
X57000000Y-95920000D03*
%TD*%
D16*
%TO.P,J2,1,Pin_1*%
%TO.N,D26*%
X70000000Y-122000000D03*
D17*
%TO.P,J2,2,Pin_2*%
%TO.N,VCC*%
X72540000Y-122000000D03*
%TO.P,J2,3,Pin_3*%
%TO.N,GND*%
X75080000Y-122000000D03*
%TD*%
D16*
%TO.P,J3,1,Pin_1*%
%TO.N,VCC*%
X72000000Y-45000000D03*
D17*
%TO.P,J3,2,Pin_2*%
%TO.N,D34*%
X74540000Y-45000000D03*
%TO.P,J3,3,Pin_3*%
%TO.N,GND*%
X77080000Y-45000000D03*
%TD*%
%TO.P,J4,3,Pin_3*%
%TO.N,GND*%
X77080000Y-81000000D03*
%TO.P,J4,2,Pin_2*%
%TO.N,D35*%
X74540000Y-81000000D03*
D16*
%TO.P,J4,1,Pin_1*%
%TO.N,VCC*%
X72000000Y-81000000D03*
%TD*%
D18*
%TO.P,R2,2*%
%TO.N,Net-(D2-A)*%
X53000000Y-106080000D03*
D19*
%TO.P,R2,1*%
%TO.N,D13*%
X53000000Y-95920000D03*
%TD*%
D18*
%TO.P,R1,2*%
%TO.N,Net-(D1-A)*%
X49000000Y-106080000D03*
D19*
%TO.P,R1,1*%
%TO.N,D12*%
X49000000Y-95920000D03*
%TD*%
D14*
%TO.P,D2,2,A*%
%TO.N,Net-(D2-A)*%
X50540000Y-140000000D03*
D15*
%TO.P,D2,1,K*%
%TO.N,GND*%
X48000000Y-140000000D03*
%TD*%
D14*
%TO.P,D1,2,A*%
%TO.N,Net-(D1-A)*%
X56040000Y-140000000D03*
D15*
%TO.P,D1,1,K*%
%TO.N,GND*%
X53500000Y-140000000D03*
%TD*%
D17*
%TO.P,J1,4,Pin_4*%
%TO.N,D12*%
X61320000Y-134000000D03*
%TO.P,J1,3,Pin_3*%
X58780000Y-134000000D03*
%TO.P,J1,2,Pin_2*%
%TO.N,D13*%
X56240000Y-134000000D03*
D16*
%TO.P,J1,1,Pin_1*%
X53700000Y-134000000D03*
%TD*%
D19*
%TO.P,R4,1*%
%TO.N,D33*%
X61000000Y-95920000D03*
D18*
%TO.P,R4,2*%
%TO.N,GND*%
X61000000Y-106080000D03*
%TD*%
D20*
%TO.P,SW2,1,1*%
%TO.N,VCC*%
X49240000Y-118500000D03*
X36740000Y-118500000D03*
%TO.P,SW2,2,2*%
%TO.N,D22*%
X49240000Y-113500000D03*
X36740000Y-113500000D03*
%TD*%
D19*
%TO.P,R5,1*%
%TO.N,D22*%
X65000000Y-95920000D03*
D18*
%TO.P,R5,2*%
%TO.N,GND*%
X65000000Y-106080000D03*
%TD*%
D20*
%TO.P,SW1,2,2*%
%TO.N,D33*%
X36740000Y-127050000D03*
X49240000Y-127050000D03*
%TO.P,SW1,1,1*%
%TO.N,VCC*%
X36740000Y-132050000D03*
X49240000Y-132050000D03*
%TD*%
D13*
%TO.P,S1,1,VDD*%
%TO.N,VCC*%
X49000000Y-38000000D03*
%TO.P,S1,2,GND*%
%TO.N,GND*%
X51540000Y-38000000D03*
%TO.P,S1,3,CS*%
%TO.N,D15*%
X54080000Y-38000000D03*
%TO.P,S1,4,RST*%
%TO.N,D4*%
X56620000Y-38000000D03*
%TO.P,S1,5,OC*%
%TO.N,D2*%
X59160000Y-38000000D03*
%TO.P,S1,6,SDI*%
%TO.N,D23*%
X61700000Y-38000000D03*
%TO.P,S1,7,SCK*%
%TO.N,D18*%
X64240000Y-38000000D03*
%TO.P,S1,8,BL*%
%TO.N,D32*%
X66780000Y-38000000D03*
%TO.P,S1,9,SDO*%
%TO.N,unconnected-(S1-SDO-Pad9)*%
X69320000Y-38000000D03*
%TO.P,S1,10,TCK*%
%TO.N,D18*%
X71860000Y-38000000D03*
%TO.P,S1,11,TCS*%
%TO.N,D21*%
X74400000Y-38000000D03*
%TO.P,S1,12,TDI*%
%TO.N,D23*%
X76940000Y-38000000D03*
%TO.P,S1,13,TDO*%
%TO.N,D19*%
X79480000Y-38000000D03*
%TO.P,S1,14,PEN*%
%TO.N,D27*%
X82020000Y-38000000D03*
%TO.P,S1,15,SCS*%
%TO.N,D5*%
X61640000Y-142400000D03*
%TO.P,S1,16,SDI*%
%TO.N,D23*%
X64180000Y-142400000D03*
%TO.P,S1,17,SDO*%
%TO.N,D19*%
X66720000Y-142400000D03*
%TO.P,S1,18,CLK*%
%TO.N,D18*%
X69260000Y-142400000D03*
%TD*%
D21*
%TO.N,D22*%
X68805900Y-93270900D03*
%TO.N,D33*%
X61861400Y-116540000D03*
%TO.N,D26*%
X60576800Y-118617000D03*
%TO.N,D4*%
X62000000Y-40000000D03*
%TO.N,D18*%
X66485600Y-57045800D03*
%TO.N,D19*%
X66720000Y-68350400D03*
%TO.N,D23*%
X73810000Y-133255000D03*
%TO.N,D32*%
X56000000Y-41000000D03*
X66000000Y-40064700D03*
%TO.N,Net-(D1-A)*%
X53178100Y-111385000D03*
%TD*%
D22*
%TO.N,D32*%
X39000000Y-58660000D02*
X36530000Y-61130000D01*
X39000000Y-44273222D02*
X39000000Y-58660000D01*
X42273222Y-41000000D02*
X39000000Y-44273222D01*
X56000000Y-41000000D02*
X42273222Y-41000000D01*
%TO.N,D22*%
X68805900Y-57845900D02*
X68805900Y-93270900D01*
X61930000Y-50970000D02*
X68805900Y-57845900D01*
%TO.N,D33*%
X63726600Y-98646600D02*
X61000000Y-95920000D01*
X63726600Y-114675000D02*
X63726600Y-98646600D01*
X61861400Y-116540000D02*
X63726600Y-114675000D01*
%TO.N,D25*%
X55843300Y-85523300D02*
X36530000Y-66210000D01*
X55843300Y-96459400D02*
X55843300Y-85523300D01*
X59489000Y-100105000D02*
X55843300Y-96459400D01*
X59489000Y-110334000D02*
X59489000Y-100105000D01*
X57000000Y-112823000D02*
X59489000Y-110334000D01*
X57000000Y-114000000D02*
X57000000Y-112823000D01*
%TO.N,D26*%
X59450500Y-118617000D02*
X60576800Y-118617000D01*
X55823100Y-114989000D02*
X59450500Y-118617000D01*
X55823100Y-112750000D02*
X55823100Y-114989000D01*
X59037100Y-109536000D02*
X55823100Y-112750000D01*
X59037100Y-100929000D02*
X59037100Y-109536000D01*
X55084700Y-96976700D02*
X59037100Y-100929000D01*
X55084700Y-87304700D02*
X55084700Y-96976700D01*
X36530000Y-68750000D02*
X55084700Y-87304700D01*
%TO.N,VCC*%
X38590900Y-118502000D02*
X38590900Y-132050000D01*
X38589400Y-118500000D02*
X38590900Y-118502000D01*
X42365700Y-118500000D02*
X40478300Y-116613000D01*
X49240000Y-118500000D02*
X42365700Y-118500000D01*
X40478300Y-101478000D02*
X39000000Y-100000000D01*
X40478300Y-116613000D02*
X40478300Y-101478000D01*
X61930000Y-85316900D02*
X61930000Y-83990000D01*
X59430100Y-87816800D02*
X61930000Y-85316900D01*
X59430100Y-96027100D02*
X59430100Y-87816800D01*
X63264900Y-99861900D02*
X59430100Y-96027100D01*
X63264900Y-114489000D02*
X63264900Y-99861900D01*
X62547200Y-115206000D02*
X63264900Y-114489000D01*
X61557500Y-115206000D02*
X62547200Y-115206000D01*
X60716900Y-114366000D02*
X61557500Y-115206000D01*
X60716900Y-114000000D02*
X60716900Y-114366000D01*
X59540000Y-114000000D02*
X60716900Y-114000000D01*
X72000000Y-45000000D02*
X72000000Y-81000000D01*
X36740000Y-118500000D02*
X38589400Y-118500000D01*
X38590900Y-118500000D02*
X40478300Y-116613000D01*
X38589400Y-118500000D02*
X38590900Y-118500000D01*
X36740000Y-132050000D02*
X38590900Y-132050000D01*
X38590900Y-132050000D02*
X49240000Y-132050000D01*
%TO.N,D15*%
X58587500Y-42507500D02*
X54080000Y-38000000D01*
X58587500Y-75567500D02*
X58587500Y-42507500D01*
X61930000Y-78910000D02*
X58587500Y-75567500D01*
%TO.N,D2*%
X59160000Y-73600000D02*
X59160000Y-38000000D01*
X61930000Y-76370000D02*
X59160000Y-73600000D01*
%TO.N,D4*%
X60523500Y-72423500D02*
X61930000Y-73830000D01*
X60523500Y-47886700D02*
X60523500Y-72423500D01*
X61320200Y-47090000D02*
X60523500Y-47886700D01*
X62420700Y-47090000D02*
X61320200Y-47090000D01*
X63593700Y-45917000D02*
X62420700Y-47090000D01*
X63593700Y-44060300D02*
X63593700Y-45917000D01*
X62000000Y-42466600D02*
X63593700Y-44060300D01*
X62000000Y-40000000D02*
X62000000Y-42466600D01*
%TO.N,D5*%
X66129400Y-137911000D02*
X61640000Y-142400000D01*
X66129400Y-70409400D02*
X66129400Y-137911000D01*
X61930000Y-66210000D02*
X66129400Y-70409400D01*
%TO.N,D18*%
X63105800Y-63670000D02*
X61930000Y-63670000D01*
X66485600Y-60290200D02*
X66485600Y-57045800D01*
X63105800Y-63670000D02*
X66485600Y-60290200D01*
X68079000Y-141219000D02*
X69260000Y-142400000D01*
X68079000Y-68643200D02*
X68079000Y-141219000D01*
X63105800Y-63670000D02*
X68079000Y-68643200D01*
%TO.N,D19*%
X66720000Y-68350400D02*
X66720000Y-142400000D01*
%TO.N,D23*%
X64700000Y-41000000D02*
X64052300Y-40352300D01*
X75747500Y-41000000D02*
X64700000Y-41000000D01*
X61700000Y-38000000D02*
X64052300Y-40352300D01*
X64052300Y-46307700D02*
X64052300Y-40352300D01*
X61930000Y-48430000D02*
X64052300Y-46307700D01*
X75747500Y-39192500D02*
X75747500Y-41000000D01*
X76940000Y-38000000D02*
X75747500Y-39192500D01*
X73810000Y-85703300D02*
X73810000Y-133255000D01*
X75747500Y-83765800D02*
X73810000Y-85703300D01*
X75747500Y-41000000D02*
X75747500Y-83765800D01*
%TO.N,D32*%
X66780000Y-39284700D02*
X66780000Y-38000000D01*
X66000000Y-40064700D02*
X66780000Y-39284700D01*
%TO.N,Net-(D2-A)*%
X52279600Y-138260000D02*
X50540000Y-140000000D01*
X52279600Y-107927000D02*
X52279600Y-138260000D01*
X53000000Y-107207000D02*
X52279600Y-107927000D01*
X53000000Y-106080000D02*
X53000000Y-107207000D01*
%TO.N,Net-(D1-A)*%
X53178100Y-130398000D02*
X53178100Y-111385000D01*
X54969900Y-132190000D02*
X53178100Y-130398000D01*
X54969900Y-138930000D02*
X54969900Y-132190000D01*
X56040000Y-140000000D02*
X54969900Y-138930000D01*
%TO.N,D12*%
X59554600Y-133412000D02*
X58780000Y-133412000D01*
X60143100Y-134000000D02*
X59554600Y-133412000D01*
X61320000Y-134000000D02*
X60143100Y-134000000D01*
X50147000Y-89987000D02*
X36530000Y-76370000D01*
X50147000Y-94773000D02*
X50147000Y-89987000D01*
X49000000Y-95920000D02*
X50147000Y-94773000D01*
X58780000Y-132823000D02*
X58780000Y-133412000D01*
X55371200Y-129414000D02*
X58780000Y-132823000D01*
X55371200Y-112472000D02*
X55371200Y-129414000D01*
X58585200Y-109258000D02*
X55371200Y-112472000D01*
X58585200Y-101116000D02*
X58585200Y-109258000D01*
X54632800Y-97164000D02*
X58585200Y-101116000D01*
X54632800Y-95919400D02*
X54632800Y-97164000D01*
X53486400Y-94773000D02*
X54632800Y-95919400D01*
X50147000Y-94773000D02*
X53486400Y-94773000D01*
X58780000Y-133412000D02*
X58780000Y-134000000D01*
%TO.N,D13*%
X56240000Y-132821000D02*
X56240000Y-134000000D01*
X54919300Y-131500000D02*
X56240000Y-132821000D01*
X54919300Y-111737000D02*
X54919300Y-131500000D01*
X58131200Y-108525000D02*
X54919300Y-111737000D01*
X58131200Y-101302000D02*
X58131200Y-108525000D01*
X53000000Y-96170300D02*
X58131200Y-101302000D01*
X53000000Y-95920000D02*
X53000000Y-96170300D01*
%TO.N,Net-(D3-A)*%
X51116600Y-133923000D02*
X45040000Y-140000000D01*
X51116600Y-106369000D02*
X51116600Y-133923000D01*
X52578200Y-104907000D02*
X51116600Y-106369000D01*
X54700200Y-104907000D02*
X52578200Y-104907000D01*
X55873100Y-106080000D02*
X54700200Y-104907000D01*
X57000000Y-106080000D02*
X55873100Y-106080000D01*
%TO.N,GND*%
X77080000Y-45000000D02*
X77080000Y-81000000D01*
X61000000Y-111743000D02*
X61000000Y-106080000D01*
X62080000Y-112823000D02*
X61000000Y-111743000D01*
X62080000Y-114000000D02*
X62080000Y-112823000D01*
X52273100Y-140000000D02*
X53500000Y-140000000D01*
X52273100Y-140077000D02*
X52273100Y-140000000D01*
X51122900Y-141227000D02*
X52273100Y-140077000D01*
X49993600Y-141227000D02*
X51122900Y-141227000D01*
X49226900Y-140460000D02*
X49993600Y-141227000D01*
X49226900Y-140000000D02*
X49226900Y-140460000D01*
X48000000Y-140000000D02*
X49226900Y-140000000D01*
X61000000Y-98958500D02*
X61000000Y-106080000D01*
X58973700Y-96932200D02*
X61000000Y-98958500D01*
X58973700Y-84406300D02*
X58973700Y-96932200D01*
X61930000Y-81450000D02*
X58973700Y-84406300D01*
%TD*%
M02*
